<svg width="287" height="44" viewBox="0 0 287 44" fill="none" xmlns="http://www.w3.org/2000/svg">
<path d="M47.0294 22.4408C46.7078 32.9399 37.9451 41.275 27.4137 41.275H0C0 42.7176 1.12549 44 2.73333 44H27.4137C39.5529 44 49.7627 34.1421 49.7627 22.1202C49.7627 19.7158 49.4412 17.4717 48.6373 15.388C48.6373 15.388 48.4765 15.388 48.4765 15.2277C48.4765 15.0674 48.1549 14.9071 47.9941 14.7468C46.8686 13.785 46.5471 13.785 45.9039 13.4645L44.7784 12.9836C46.2255 15.8688 47.0294 19.0747 47.0294 22.4408Z" fill="#7AC143"/>
<path d="M41.1608 21.9599C41.1608 29.8142 34.8098 35.9854 27.0922 35.9854H10.3706L4.50195 38.7104H27.1725C36.4176 38.7104 43.8941 31.1767 43.8941 21.9599C43.8941 18.5938 42.9294 15.5482 41.3216 12.9836H38.1059C39.8745 15.388 41.1608 18.5938 41.1608 21.9599Z" fill="#7AC143"/>
<path d="M35.2118 21.9599C35.2118 26.929 31.1922 30.9362 26.2883 30.9362H10.3706V33.6612H26.2883C32.6392 33.6612 37.9451 28.3716 37.9451 22.0401C37.9451 18.3534 36.3373 15.1475 33.6039 13.0637H26.2883C31.2726 12.9836 35.2118 16.9909 35.2118 21.9599Z" fill="#7AC143"/>
<path d="M49.7629 21.9599C49.7629 19.5556 49.4413 17.3115 48.6374 15.2277C48.6374 15.2277 46.3864 13.1439 44.6982 12.7432C44.6982 12.7432 47.1904 17.6321 47.0296 22.2004C46.8688 25.5665 46.0649 28.6922 44.457 31.4171L46.9492 32.5392C48.7982 29.5738 49.7629 25.8871 49.7629 21.9599Z" fill="url(#paint0_linear_104_9687)"/>
<path d="M43.8943 21.9599C43.8943 18.5938 42.9296 15.5482 41.3218 12.9836H37.9453C40.0355 15.388 41.161 18.5938 41.161 21.9599C41.161 24.5246 40.4375 27.1694 39.1512 29.2532L41.6434 30.3752C43.0904 27.6502 43.8943 24.9253 43.8943 21.9599Z" fill="url(#paint1_linear_104_9687)"/>
<path d="M37.945 21.9599C37.945 18.2732 36.3371 15.0674 33.6038 12.9836H26.2881C31.192 12.9836 35.2116 16.9909 35.2116 21.9599C35.2116 23.5628 34.7293 25.1657 33.9253 26.6084L36.3371 27.7304C37.3018 26.0473 37.945 23.9635 37.945 21.9599Z" fill="url(#paint2_linear_104_9687)"/>
<path d="M41.1608 1.20218C39.5529 0.0801393 36.0961 0.0801392 36.0961 0.0801392H2.57255C1.12549 0.0801392 0 1.20218 0 2.80509H37.4627C40.5176 2.80509 42.1255 3.44626 43.9745 4.5683L44.7784 5.04917C44.7784 5.04917 43.251 2.48451 41.1608 1.20218Z" fill="#7AC143"/>
<path d="M20.4198 15.5483H10.21V18.2732H20.4198V15.5483Z" fill="#7AC143"/>
<path d="M20.4198 20.6776H10.21V23.4026H20.4198V20.6776Z" fill="#7AC143"/>
<path d="M20.4198 25.7267H10.21V28.4517H20.4198V25.7267Z" fill="#7AC143"/>
<path d="M39.392 7.85429C42.4469 7.85429 44.0548 8.49545 45.9038 9.61749L46.7077 10.0984C46.7077 10.0984 45.2606 7.53371 43.1704 6.25137C41.5626 5.12933 38.1057 5.12933 38.1057 5.12933H4.6626L10.5312 7.85429H39.392Z" fill="#7AC143"/>
<path d="M47.8334 14.7468L48.6373 15.2277C48.6373 15.2277 47.1902 12.663 45.1 11.3807C43.4922 10.2587 40.0353 10.2587 40.0353 10.2587H10.3706V12.9836H26.2883H33.6039H37.9451H41.1608C44.2157 12.9836 45.7432 13.6248 47.8334 14.7468Z" fill="#7AC143"/>
<path d="M6.35122 23.2423C7.06161 23.2423 7.63749 22.6682 7.63749 21.9599C7.63749 21.2517 7.06161 20.6776 6.35122 20.6776C5.64083 20.6776 5.06494 21.2517 5.06494 21.9599C5.06494 22.6682 5.64083 23.2423 6.35122 23.2423Z" fill="#7AC143"/>
<path d="M70.5841 0.561035C73.7194 0.561035 76.3724 1.68308 78.543 3.84701C80.7135 6.01094 81.7586 8.7359 81.7586 12.0219C81.7586 15.3078 80.7135 18.0328 78.543 20.1967C76.3724 22.3607 73.7194 23.4827 70.5841 23.4827H61.4194V0.561035H70.5841ZM70.5841 18.4335C72.4332 18.4335 73.8802 17.8725 75.0057 16.6703C76.1312 15.4681 76.6939 13.9454 76.6939 12.0219C76.6939 10.0984 76.1312 8.49546 75.0057 7.37342C73.8802 6.17124 72.4332 5.61022 70.5841 5.61022H66.6449V18.4335H70.5841Z" fill="#A7B6BF"/>
<path d="M89.9587 18.4335H99.1234V23.4827H84.6528V0.561035H98.9626V5.61022H89.9587V9.37706H98.1587V14.3461H89.9587V18.4335Z" fill="#A7B6BF"/>
<path d="M114.88 0.561035H120.106V23.4827H116.247L107.404 11.0601V23.4827H102.178V0.561035H106.117L114.961 12.9836V0.561035H114.88Z" fill="#A7B6BF"/>
<path d="M136.908 0.561035H142.133V23.4827H138.194L129.351 11.0601V23.4827H124.125V0.561035H128.065L136.908 12.9836V0.561035Z" fill="#A7B6BF"/>
<path d="M146.072 0.561035H151.298V23.4827H146.072V0.561035Z" fill="#A7B6BF"/>
<path d="M163.035 23.8834C160.704 23.8834 158.775 23.4026 157.167 22.3607C155.639 21.3188 154.514 19.9563 153.871 18.1931L158.373 15.5483C159.257 17.6321 160.865 18.7541 163.196 18.7541C165.286 18.7541 166.331 18.1129 166.331 16.9107C166.331 16.2696 166.01 15.7086 165.367 15.3078C164.724 14.9071 163.437 14.5064 161.588 13.9454C160.624 13.7049 159.82 13.3843 159.096 13.0638C158.373 12.7432 157.649 12.3424 157.006 11.7814C156.363 11.2204 155.8 10.5792 155.398 9.77778C155.076 8.97632 154.835 8.01457 154.835 6.97268C154.835 4.88889 155.559 3.12568 157.086 1.9235C158.614 0.641165 160.382 0 162.553 0C164.402 0 166.09 0.480874 167.537 1.36248C168.984 2.24408 170.11 3.52641 170.914 5.20947L166.492 7.77414C166.09 6.89253 165.527 6.25137 164.965 5.77049C164.322 5.28962 163.518 5.12933 162.553 5.12933C161.749 5.12933 161.186 5.28962 160.704 5.6102C160.302 5.93078 160.061 6.33151 160.061 6.81239C160.061 7.37341 160.302 7.85428 160.865 8.25501C161.427 8.65574 162.473 9.13661 164.161 9.61749C165.045 9.93807 165.769 10.0984 166.331 10.3388C166.814 10.4991 167.457 10.8197 168.261 11.2204C169.065 11.6211 169.627 12.0219 170.029 12.5027C170.431 12.9836 170.833 13.5446 171.075 14.2659C171.396 14.9872 171.557 15.8689 171.557 16.7505C171.557 18.9144 170.753 20.6776 169.226 21.8798C167.618 23.2423 165.527 23.8834 163.035 23.8834Z" fill="#A7B6BF"/>
<path d="M190.449 23.8834C188.118 23.8834 186.188 23.4026 184.58 22.3607C183.053 21.3188 181.927 19.9563 181.284 18.1931L185.786 15.5483C186.67 17.6321 188.278 18.7541 190.61 18.7541C192.7 18.7541 193.745 18.1129 193.745 16.9107C193.745 16.2696 193.423 15.7086 192.78 15.3078C192.137 14.9071 190.851 14.5064 189.002 13.9454C188.037 13.7049 187.233 13.3843 186.51 13.0638C185.786 12.7432 185.063 12.3424 184.419 11.7814C183.776 11.2204 183.214 10.5792 182.812 9.77778C182.49 8.97632 182.249 8.01457 182.249 6.97268C182.249 4.88889 182.972 3.12568 184.5 1.9235C186.027 0.641165 187.796 0 189.967 0C191.816 0 193.504 0.480874 194.951 1.36248C196.398 2.24408 197.523 3.52641 198.327 5.20947L193.906 7.77414C193.504 6.89253 192.941 6.25137 192.378 5.77049C191.735 5.28962 190.931 5.12933 189.967 5.12933C189.163 5.12933 188.6 5.28962 188.118 5.6102C187.716 5.93078 187.474 6.33151 187.474 6.81239C187.474 7.37341 187.716 7.85428 188.278 8.25501C188.841 8.65574 189.886 9.13661 191.574 9.61749C192.459 9.93807 193.182 10.0984 193.745 10.3388C194.227 10.4991 194.87 10.8197 195.674 11.2204C196.478 11.6211 197.041 12.0219 197.443 12.5027C197.845 12.9836 198.247 13.5446 198.488 14.2659C198.81 14.9872 198.97 15.8689 198.97 16.7505C198.97 18.9144 198.167 20.6776 196.639 21.8798C195.031 23.2423 192.941 23.8834 190.449 23.8834Z" fill="#A7B6BF"/>
<path d="M215.853 23.4026L214.727 19.796H206.206L205.08 23.4026H199.373L207.09 0.561035H213.763L221.561 23.4827H215.853V23.4026ZM207.733 14.9071H213.12L210.467 6.49182L207.733 14.9071Z" fill="#A7B6BF"/>
<path d="M236.353 0.561035H241.578V23.4827H237.639L228.796 10.98V23.4026H223.57V0.561035H227.51L236.353 12.9836V0.561035Z" fill="#A7B6BF"/>
<path d="M264.168 23.4026H258.219L250.904 12.8233V23.4026H245.678V0.561035H250.904V10.4991L257.817 0.561035H263.766L256.049 11.7013L264.168 23.4026Z" fill="#A7B6BF"/>
<path d="M283.543 20.4372C281.211 22.7614 278.398 23.8834 275.102 23.8834C271.806 23.8834 268.992 22.7614 266.66 20.4372C264.329 18.1129 263.204 15.3078 263.204 11.9417C263.204 8.57559 264.329 5.77049 266.66 3.44627C268.992 1.12204 271.806 0 275.102 0C278.398 0 281.292 1.12204 283.543 3.44627C285.874 5.77049 287 8.57559 287 11.9417C287 15.3078 285.874 18.1931 283.543 20.4372ZM270.359 16.9107C271.645 18.1931 273.253 18.8342 275.102 18.8342C277.031 18.8342 278.559 18.1931 279.845 16.9107C281.131 15.6284 281.774 14.0255 281.774 12.0219C281.774 10.0182 281.131 8.4153 279.845 7.13297C278.559 5.85064 276.951 5.20947 275.102 5.20947C273.172 5.20947 271.645 5.85064 270.359 7.13297C269.072 8.4153 268.429 10.0182 268.429 12.0219C268.429 14.0255 269.072 15.6284 270.359 16.9107Z" fill="#A7B6BF"/>
<path d="M67.1274 43.7596C65.4392 43.7596 64.0725 43.1985 62.947 42.0765C61.8215 40.9545 61.2588 39.592 61.2588 37.9089C61.2588 36.2259 61.8215 34.8634 62.947 33.7414C64.0725 32.6193 65.4392 32.0583 67.1274 32.0583C68.0921 32.0583 69.0568 32.2987 69.9411 32.7796C70.8255 33.2605 71.4686 33.9016 71.9509 34.7031L69.7804 35.9854C69.5392 35.5847 69.2176 35.184 68.7353 34.9435C68.2529 34.7031 67.7706 34.623 67.2078 34.623C66.2431 34.623 65.4392 34.9435 64.8764 35.5046C64.3137 36.1457 63.9921 36.9472 63.9921 37.9089C63.9921 38.8707 64.3137 39.6721 64.8764 40.3133C65.4392 40.9545 66.2431 41.1949 67.2078 41.1949C67.7706 41.1949 68.2529 41.0346 68.7353 40.7942C69.2176 40.5537 69.5392 40.2332 69.7804 39.7523L71.9509 41.0346C71.4686 41.8361 70.8255 42.4772 69.9411 42.9581C69.0568 43.439 68.0921 43.7596 67.1274 43.7596Z" fill="#7AC143"/>
<path d="M78.9453 43.5191L76.8551 39.8324H75.6492V43.5191H73.0767V32.3788H77.5786C78.6237 32.3788 79.508 32.7796 80.312 33.5009C81.1159 34.2222 81.4374 35.1839 81.4374 36.2258C81.4374 36.867 81.2767 37.5082 80.8747 38.1493C80.4727 38.7104 79.9904 39.1912 79.3472 39.5118L81.759 43.5992H78.9453V43.5191ZM75.6492 34.7832V37.6685H77.5786C77.9002 37.6685 78.2218 37.5082 78.4629 37.2677C78.7041 37.0273 78.8649 36.6266 78.8649 36.2258C78.8649 35.8251 78.7041 35.5045 78.4629 35.1839C78.2218 34.9435 77.9002 34.7832 77.5786 34.7832H75.6492Z" fill="#7AC143"/>
<path d="M85.457 41.1147H89.959V43.5992H82.9648V32.3788H89.8786V34.8634H85.457V36.7067H89.4766V39.1111H85.457V41.1147Z" fill="#7AC143"/>
<path d="M98.6411 43.5191L98.0783 41.7559H93.898L93.3352 43.5191H90.5215L94.2999 32.3788H97.596L101.374 43.5191H98.6411ZM94.7019 39.4317H97.3548L96.0685 35.3442L94.7019 39.4317Z" fill="#7AC143"/>
<path d="M109.092 32.3788V34.8634H106.198V43.5191H103.626V34.8634H100.731V32.3788H109.092Z" fill="#7AC143"/>
<path d="M110.218 32.3788H112.79V43.5191H110.218V32.3788Z" fill="#7AC143"/>
<path d="M120.91 32.3788H123.482V43.5191H121.553L117.212 37.5082V43.5191H114.639V32.3788H116.569L120.91 38.3898V32.3788Z" fill="#7AC143"/>
<path d="M136.425 37.3479V38.3096C136.425 39.9927 135.943 41.275 134.898 42.3169C133.853 43.2787 132.566 43.8397 130.959 43.8397C129.19 43.8397 127.823 43.2787 126.617 42.1566C125.492 41.0346 124.929 39.6721 124.929 38.0692C124.929 36.4663 125.492 35.1038 126.617 33.9818C127.743 32.8597 129.11 32.2987 130.798 32.2987C131.843 32.2987 132.808 32.5391 133.692 33.02C134.576 33.5009 135.219 34.1421 135.702 34.8634L133.531 36.0656C133.29 35.6648 132.888 35.3442 132.406 35.1038C131.923 34.8634 131.361 34.7031 130.798 34.7031C129.833 34.7031 129.029 35.0237 128.466 35.6648C127.904 36.306 127.502 37.1075 127.502 38.0692C127.502 39.0309 127.823 39.8324 128.466 40.3934C129.11 41.0346 129.994 41.275 131.039 41.275C132.486 41.275 133.451 40.714 133.933 39.592H130.959V37.3479H136.425Z" fill="#7AC143"/>
<path d="M147.198 43.7596C145.51 43.7596 144.143 43.1985 143.018 42.0765C141.892 40.9545 141.33 39.592 141.33 37.9089C141.33 36.2259 141.892 34.8634 143.018 33.7414C144.143 32.6193 145.51 32.0583 147.198 32.0583C148.163 32.0583 149.128 32.2987 150.012 32.7796C150.896 33.2605 151.539 33.9016 152.022 34.7031L149.851 35.9854C149.61 35.5847 149.288 35.184 148.806 34.9435C148.324 34.7031 147.841 34.623 147.279 34.623C146.314 34.623 145.51 34.9435 144.947 35.5046C144.384 36.1457 144.063 36.9472 144.063 37.9089C144.063 38.8707 144.384 39.6721 144.947 40.3133C145.51 40.9545 146.314 41.1949 147.279 41.1949C147.841 41.1949 148.324 41.0346 148.806 40.7942C149.288 40.5537 149.61 40.2332 149.851 39.7523L152.022 41.0346C151.539 41.8361 150.896 42.4772 150.012 42.9581C149.128 43.5191 148.243 43.7596 147.198 43.7596Z" fill="#7AC143"/>
<path d="M155.72 41.1147H159.739V43.5992H153.228V32.3788H155.8V41.1147H155.72Z" fill="#7AC143"/>
<path d="M168.261 43.5191L167.698 41.7559H163.518L162.955 43.5191H160.141L163.92 32.3788H167.216L170.994 43.5191H168.261ZM164.322 39.4317H166.974L165.688 35.3442L164.322 39.4317Z" fill="#7AC143"/>
<path d="M177.908 43.5191L175.818 39.8324H174.612V43.5191H172.039V32.3788H176.541C177.586 32.3788 178.47 32.7796 179.274 33.5009C180.078 34.2222 180.4 35.1839 180.4 36.2258C180.4 36.867 180.239 37.5082 179.837 38.1493C179.435 38.7104 178.953 39.1912 178.31 39.5118L180.721 43.5992H177.908V43.5191ZM174.612 34.7832V37.6685H176.541C176.863 37.6685 177.184 37.5082 177.425 37.2677C177.667 37.0273 177.827 36.6266 177.827 36.2258C177.827 35.8251 177.667 35.5045 177.425 35.1839C177.184 34.9435 176.863 34.7832 176.541 34.7832H174.612Z" fill="#7AC143"/>
<path d="M181.847 32.3788H184.42V43.5191H181.847V32.3788Z" fill="#7AC143"/>
<path d="M193.826 32.3788V34.8634H190.932V43.5191H188.359V34.8634H185.465V32.3788H193.826Z" fill="#7AC143"/>
<path d="M204.035 32.3788L200.257 39.2714V43.5191H197.684V39.2714L193.906 32.3788H196.8L198.89 36.7067L200.98 32.3788H204.035Z" fill="#7AC143"/>
<path d="M216.496 32.3788V34.8634H213.602V43.5191H211.029V34.8634H208.135V32.3788H216.496Z" fill="#7AC143"/>
<path d="M226.384 42.0765C225.259 43.1985 223.892 43.7596 222.284 43.7596C220.676 43.7596 219.31 43.1985 218.184 42.0765C217.059 40.9544 216.496 39.592 216.496 37.9891C216.496 36.3861 217.059 34.9435 218.184 33.9016C219.31 32.7796 220.676 32.2186 222.284 32.2186C223.892 32.2186 225.259 32.7796 226.384 33.9016C227.51 35.0237 228.073 36.3861 228.073 37.9891C228.073 39.592 227.51 40.9544 226.384 42.0765ZM219.953 40.3934C220.596 41.0346 221.32 41.3552 222.284 41.3552C223.249 41.3552 223.973 41.0346 224.616 40.3934C225.259 39.7523 225.58 38.9508 225.58 37.9891C225.58 37.0273 225.259 36.2259 224.616 35.5847C223.973 34.9435 223.249 34.6229 222.284 34.6229C221.32 34.6229 220.596 34.9435 219.953 35.5847C219.31 36.2259 218.988 37.0273 218.988 37.9891C218.988 38.9508 219.31 39.7523 219.953 40.3934Z" fill="#7AC143"/>
<path d="M240.614 37.3479V38.3096C240.614 39.9927 240.131 41.275 239.086 42.3169C238.041 43.2787 236.755 43.8397 235.147 43.8397C233.378 43.8397 232.012 43.2787 230.806 42.1566C229.68 41.0346 229.118 39.6721 229.118 38.0692C229.118 36.4663 229.68 35.1038 230.806 33.9818C231.931 32.8597 233.298 32.2987 234.986 32.2987C236.031 32.2987 236.996 32.5391 237.88 33.02C238.765 33.5009 239.408 34.1421 239.89 34.8634L237.72 36.0656C237.478 35.6648 237.077 35.3442 236.594 35.1038C236.112 34.8634 235.549 34.7031 234.986 34.7031C234.022 34.7031 233.218 35.0237 232.655 35.6648C232.092 36.306 231.69 37.1075 231.69 38.0692C231.69 39.0309 232.012 39.8324 232.655 40.3934C233.298 41.0346 234.182 41.275 235.227 41.275C236.675 41.275 237.639 40.714 238.122 39.592H235.147V37.3479H240.614Z" fill="#7AC143"/>
<path d="M244.633 41.1147H249.135V43.5992H242.141V32.3788H249.055V34.8634H244.633V36.7067H248.653V39.1111H244.633V41.1147Z" fill="#7AC143"/>
<path d="M257.979 32.3788V34.8634H255.085V43.5191H252.512V34.8634H249.698V32.3788H257.979Z" fill="#7AC143"/>
<path d="M265.214 32.3788H267.786V43.5191H265.214V39.1111H261.677V43.5191H259.104V32.3788H261.677V36.6266H265.214V32.3788Z" fill="#7AC143"/>
<path d="M272.208 41.1147H276.71V43.5992H269.716V32.3788H276.63V34.8634H272.208V36.7067H276.228V39.1111H272.208V41.1147Z" fill="#7AC143"/>
<path d="M284.025 43.5191L281.935 39.8324H280.729V43.5191H278.157V32.3788H282.659C283.704 32.3788 284.588 32.7796 285.392 33.5009C286.196 34.2222 286.518 35.1839 286.518 36.2258C286.518 36.867 286.357 37.5082 285.955 38.1493C285.553 38.7104 285.07 39.1912 284.427 39.5118L286.839 43.5992H284.025V43.5191ZM280.649 34.7832V37.6685H282.578C282.9 37.6685 283.221 37.5082 283.463 37.2677C283.704 37.0273 283.865 36.6266 283.865 36.2258C283.865 35.8251 283.704 35.5045 283.463 35.1839C283.221 34.9435 282.9 34.7832 282.578 34.7832H280.649Z" fill="#7AC143"/>
<defs>
<linearGradient id="paint0_linear_104_9687" x1="47.11" y1="24.7106" x2="47.11" y2="17.567" gradientUnits="userSpaceOnUse">
<stop stop-color="#7AC143"/>
<stop offset="1" stop-color="#578C3E"/>
</linearGradient>
<linearGradient id="paint1_linear_104_9687" x1="40.9198" y1="24.7106" x2="40.9198" y2="17.567" gradientUnits="userSpaceOnUse">
<stop stop-color="#7AC143"/>
<stop offset="1" stop-color="#578C3E"/>
</linearGradient>
<linearGradient id="paint2_linear_104_9687" x1="32.1165" y1="24.7106" x2="32.1165" y2="17.567" gradientUnits="userSpaceOnUse">
<stop stop-color="#7AC143"/>
<stop offset="1" stop-color="#578C3E"/>
</linearGradient>
</defs>
</svg>
