<svg width="31" height="27" viewBox="0 0 31 27" fill="none" xmlns="http://www.w3.org/2000/svg">
<path d="M30.432 0.259102L29.664 5.7311C28.128 5.6031 26.88 5.8591 25.92 6.4991C24.96 7.1071 24.288 8.00311 23.904 9.1871C23.552 10.3391 23.488 11.6831 23.712 13.2191H30.432V26.2751H17.376V13.2191C17.376 8.6111 18.448 5.1231 20.592 2.7551C22.736 0.355103 26.016 -0.476898 30.432 0.259102ZM13.056 0.259102L12.288 5.7311C10.752 5.6031 9.504 5.8591 8.544 6.4991C7.584 7.1071 6.912 8.00311 6.528 9.1871C6.176 10.3391 6.112 11.6831 6.336 13.2191H13.056V26.2751H0V13.2191C0 8.6111 1.072 5.1231 3.216 2.7551C5.36 0.355103 8.64 -0.476898 13.056 0.259102Z" fill="#D4DDE0"/>
</svg>
