<svg width="69" height="42" viewBox="0 0 69 42" fill="none" xmlns="http://www.w3.org/2000/svg">
<g clip-path="url(#clip0_216_2)">
<mask id="mask0_216_2" style="mask-type:luminance" maskUnits="userSpaceOnUse" x="0" y="0" width="69" height="42">
<path d="M69 0H0V42H69V0Z" fill="white"/>
</mask>
<g mask="url(#mask0_216_2)">
<mask id="mask1_216_2" style="mask-type:luminance" maskUnits="userSpaceOnUse" x="0" y="0" width="69" height="42">
<path d="M69 0H0V42H69V0Z" fill="white"/>
</mask>
<g mask="url(#mask1_216_2)">
<mask id="mask2_216_2" style="mask-type:luminance" maskUnits="userSpaceOnUse" x="0" y="0" width="69" height="42">
<path d="M69 0H0V42H69V0Z" fill="white"/>
</mask>
<g mask="url(#mask2_216_2)">
<mask id="mask3_216_2" style="mask-type:luminance" maskUnits="userSpaceOnUse" x="0" y="8" width="69" height="23">
<path d="M69 8.40002H0V30.1H69V8.40002Z" fill="white"/>
</mask>
<g mask="url(#mask3_216_2)">
<path d="M12.6775 29.4368L13.8126 27.4333H17.7571L18.2182 29.4368H20.1479L18.048 19.9625H16.0332L10.6201 29.4368H12.6775ZM14.7774 25.6767L16.6646 22.2975L17.4165 25.6767H14.7774Z" fill="#3D565F"/>
<path d="M21.908 22.2977L20.4395 29.4793H22.1209L22.8728 25.8462C23.0431 25.0984 23.2488 24.5129 23.5894 24.1742C23.9228 23.8004 24.3414 23.631 24.8876 23.631C25.2637 23.631 25.5616 23.7157 25.7248 23.9203C25.9376 24.1319 26.0156 24.4211 26.0156 24.7951C26.0156 24.922 26.0156 25.0843 25.9731 25.2113C25.9731 25.3383 25.9305 25.5005 25.8879 25.6698L25.136 29.4652H26.8953L27.5267 26.2131C27.6119 25.8391 27.6545 25.4652 27.697 25.1689C27.7396 24.8797 27.7822 24.6681 27.7822 24.4988C27.7822 23.7087 27.5693 23.1231 27.1082 22.7492C26.6471 22.3753 26.0156 22.1637 25.136 22.1637C24.8025 22.1637 24.462 22.2483 24.1286 22.3753C23.8377 22.5023 23.4971 22.7069 23.2488 23.0032L23.4191 22.333C23.3765 22.2977 21.908 22.2977 21.908 22.2977Z" fill="#3D565F"/>
<path d="M35.1745 29.4368L37.0191 19.9625H35.2951L34.6708 23.2147C34.38 22.8407 33.9969 22.5868 33.5783 22.4245C33.1597 22.2622 32.7411 22.1353 32.2374 22.1353C31.606 22.1353 31.0172 22.2622 30.478 22.5515C29.9318 22.7984 29.4706 23.2217 29.1372 23.7226C28.8463 24.0965 28.6761 24.4704 28.5058 24.8936C28.3781 25.3098 28.293 25.7261 28.293 26.1423C28.293 27.1864 28.5838 28.0612 29.2152 28.689C29.8467 29.3169 30.6412 29.6484 31.6486 29.6484C32.0246 29.6484 32.3652 29.6062 32.656 29.4792C32.9469 29.3522 33.2448 29.1899 33.4932 28.9783L33.4081 29.4792L35.1745 29.4368ZM33.706 24.1741C34.0394 24.548 34.2522 25.0065 34.2522 25.5497C34.2522 26.2623 34.0394 26.8407 33.5783 27.2993C33.1171 27.7578 32.5709 28.0118 31.9395 28.0118C31.3507 28.0118 30.8895 27.8425 30.5561 27.4686C30.2226 27.0947 30.0524 26.6361 30.0524 26.0506C30.0524 25.3804 30.3007 24.8019 30.7263 24.3011C31.1874 23.8425 31.7337 23.5885 32.3652 23.5885C32.9044 23.6309 33.33 23.8002 33.706 24.1741Z" fill="#3D565F"/>
<path d="M39.2038 24.0542C39.5373 23.8073 39.9558 23.6803 40.4241 23.6803C40.9278 23.6803 41.3464 23.8073 41.6797 24.0542C42.0132 24.3011 42.2686 24.6397 42.3538 25.0983H38.4093C38.5724 24.6327 38.8633 24.3011 39.2038 24.0542ZM41.8855 27.1794C41.6372 27.4687 41.3818 27.6803 41.0909 27.8496C40.8001 27.9766 40.4595 28.0613 40.0835 28.0613C39.5798 28.0613 39.1612 27.9343 38.8633 27.6451C38.5724 27.3558 38.317 26.9748 38.2319 26.4316H43.9855C44.028 26.2623 44.028 26.0577 44.0706 25.9308C44.0706 25.7614 44.1131 25.6415 44.1131 25.5145C44.1131 24.5128 43.7797 23.6803 43.1057 23.0101C42.4318 22.34 41.5946 22.0507 40.5872 22.0507C40.0835 22.0507 39.6224 22.1354 39.1612 22.2976C38.7001 22.4669 38.3241 22.7138 37.9836 23.0101C37.5225 23.4264 37.189 23.8849 36.9336 24.4281C36.6853 24.9713 36.5576 25.5569 36.5576 26.1424C36.5576 27.1441 36.8911 27.9766 37.565 28.6468C38.239 29.317 39.0761 29.6062 40.0835 29.6062C40.9633 29.6062 41.7223 29.3946 42.3466 28.9783C42.9781 28.5621 43.4818 27.9766 43.7726 27.1865L41.8855 27.1794Z" fill="#3D565F"/>
<path d="M45.8795 29.4369L46.596 25.8038C46.7663 25.0137 47.0146 24.4705 47.3906 24.1742C47.7666 23.8849 48.3129 23.7157 49.1145 23.7157L49.448 22.0437H49.4054C48.8591 22.0437 48.398 22.1283 47.9794 22.3329C47.5608 22.5375 47.2274 22.7914 46.9295 23.2077L47.1423 22.2482H45.5886L44.1201 29.4299H45.8795V29.4369Z" fill="#3D565F"/>
<path d="M48.7314 27.2218C48.7314 27.2641 48.7314 27.3064 48.7314 27.3488C48.7314 28.0612 48.9443 28.5974 49.4054 29.0207C49.8666 29.4369 50.498 29.6485 51.2925 29.6485C52.0091 29.6485 52.6333 29.4016 53.0945 28.9784C53.5556 28.5198 53.811 27.9342 53.811 27.2641C53.811 26.8478 53.6833 26.5163 53.4776 26.22C53.2719 25.9237 52.8462 25.5921 52.2573 25.2182C52.2148 25.1759 52.1296 25.1336 52.0445 25.0913C51.4557 24.7597 51.2074 24.4211 51.2074 24.2165C51.2074 24.0471 51.2925 23.9272 51.4202 23.8002C51.5479 23.6733 51.7111 23.6309 51.8814 23.6309C52.0942 23.6309 52.2148 23.7156 52.3425 23.8426C52.4276 23.9696 52.5128 24.1742 52.5128 24.4704H54.2367V24.2588C54.2367 23.6309 54.0239 23.0877 53.6053 22.7138C53.1867 22.2976 52.6404 22.1283 51.9665 22.1283C51.2499 22.1283 50.6682 22.34 50.2071 22.7985C49.746 23.2147 49.4905 23.7579 49.4905 24.3858C49.4905 24.6327 49.5331 24.8444 49.6182 25.056C49.7034 25.2676 49.8311 25.4722 49.9942 25.6839C50.0794 25.7685 50.3277 25.9731 50.7888 26.2271C51.0371 26.3541 51.2074 26.474 51.3351 26.5586C51.5834 26.7279 51.7962 26.8478 51.8814 27.0172C51.9665 27.1441 52.0516 27.3064 52.0516 27.4757C52.0516 27.6873 51.9665 27.8496 51.8388 27.9766C51.7111 28.1036 51.5479 28.1882 51.3351 28.1882C51.0868 28.1882 50.874 28.1036 50.7037 27.9413C50.576 27.772 50.4909 27.5251 50.4909 27.2288V27.1865H48.7314C48.7314 27.1371 48.7314 27.1794 48.7314 27.2218Z" fill="#3D565F"/>
<path d="M57.0815 24.0542C57.4149 23.8073 57.8335 23.6803 58.3017 23.6803C58.8054 23.6803 59.224 23.8073 59.5575 24.0542C59.8908 24.3011 60.1463 24.6397 60.2314 25.0983H56.2869C56.4501 24.6327 56.7055 24.3011 57.0815 24.0542ZM59.7703 27.1794C59.522 27.4687 59.2665 27.6803 58.9757 27.8496C58.6848 27.9766 58.3443 28.0613 57.9683 28.0613C57.4646 28.0613 57.046 27.9343 56.748 27.6451C56.4501 27.3558 56.2018 26.9748 56.1167 26.4316H61.8702C61.9128 26.2623 61.9128 26.0577 61.9554 25.9308C61.9554 25.7614 61.9979 25.6415 61.9979 25.5145C61.9979 24.5128 61.6645 23.6803 60.9905 23.0101C60.3165 22.34 59.4794 22.0507 58.472 22.0507C57.9683 22.0507 57.5072 22.1354 57.046 22.2976C56.5849 22.4669 56.2089 22.7138 55.8684 23.0101C55.4073 23.4264 55.0738 23.8849 54.8184 24.4281C54.5701 24.9713 54.4424 25.5569 54.4424 26.1424C54.4424 27.1441 54.7758 27.9766 55.4498 28.6468C56.1238 29.317 56.9609 29.6062 57.9683 29.6062C58.848 29.6062 59.6071 29.3946 60.2314 28.9783C60.8628 28.5621 61.3665 27.9766 61.6574 27.1865L59.7703 27.1794Z" fill="#3D565F"/>
<path d="M63.1257 22.2977L61.6572 29.4793H63.3386L64.0906 25.8462C64.2609 25.0984 64.4666 24.5129 64.8071 24.1742C65.1405 23.8004 65.5591 23.631 66.1054 23.631C66.4814 23.631 66.7794 23.7157 66.9426 23.9203C67.1553 24.1319 67.2334 24.4211 67.2334 24.7951C67.2334 24.922 67.2334 25.0843 67.1908 25.2113C67.1908 25.3383 67.1483 25.5005 67.1057 25.6698L66.3537 29.4652H68.1131L68.7445 26.2131C68.8296 25.8391 68.8722 25.4652 68.9148 25.1689C68.9574 24.8797 68.9999 24.6681 68.9999 24.4988C68.9999 23.7087 68.787 23.1231 68.3259 22.7492C67.8648 22.3753 67.2334 22.1637 66.3537 22.1637C66.0203 22.1637 65.6797 22.2483 65.3463 22.3753C65.0554 22.5023 64.7149 22.7069 64.4666 23.0032L64.6368 22.333C64.6368 22.2977 63.1257 22.2977 63.1257 22.2977Z" fill="#3D565F"/>
<path d="M24.1351 16.915C24.3479 15.7439 24.9722 13.825 26.6962 11.9062C23.9293 11.6945 22.2906 14.079 21.7017 15.1231C21.574 13.952 21.6166 11.9485 22.7943 9.57113C20.0629 10.1143 19.1407 12.8656 18.8498 14.0366C18.4312 12.9502 17.9275 10.989 18.3886 8.40002C15.9127 9.64868 15.785 12.5764 15.8275 13.7827C15.1111 12.8656 14.0682 11.109 13.8127 8.52701C11.7979 10.4458 12.472 13.2465 12.8479 14.4106C11.8831 13.698 10.4571 12.3224 9.44969 9.90265C8.02378 12.2801 9.44969 14.8268 10.1237 15.8286C9.03119 15.4123 7.22916 14.4952 5.63294 12.407C4.91641 15.0808 6.97378 17.1266 7.89606 17.9167C6.71838 17.832 4.74614 17.4158 2.64621 15.8708C2.73134 18.6222 5.24984 20.0472 6.34238 20.5481C5.20728 20.795 3.19248 20.9643 0.71653 20.0472C1.55367 22.7209 4.37014 23.3417 5.54071 23.511C4.49075 24.0542 2.60364 24.7597 0 24.5551C1.51111 26.8478 4.40561 26.7279 5.62584 26.5163C4.78871 27.3487 3.14991 28.5198 0.588834 29.063C3.27761 31.3558 7.00925 29.1477 7.00925 29.1477C7.00925 29.19 7.0518 29.19 7.0518 29.2323C6.59068 28.0613 6.33528 26.7703 6.33528 25.4793C6.33528 19.7579 10.9538 15.1725 16.6576 15.1725C20.3963 15.1725 23.6669 17.2606 25.4688 20.3082L25.554 20.4352C25.554 20.4352 26.306 17.4722 29.8319 15.2994C27.2425 14.2412 24.9722 16.0825 24.1351 16.915Z" fill="#3D565F"/>
</g>
</g>
</g>
</g>
</g>
<defs>
<clipPath id="clip0_216_2">
<rect width="69" height="42" fill="white"/>
</clipPath>
</defs>
</svg>
