<svg width="75" height="42" viewBox="0 0 75 42" fill="none" xmlns="http://www.w3.org/2000/svg">
<g clip-path="url(#clip0_216_28)">
<mask id="mask0_216_28" style="mask-type:luminance" maskUnits="userSpaceOnUse" x="0" y="0" width="75" height="42">
<path d="M75 0H0V42H75V0Z" fill="white"/>
</mask>
<g mask="url(#mask0_216_28)">
<mask id="mask1_216_28" style="mask-type:luminance" maskUnits="userSpaceOnUse" x="0" y="0" width="75" height="42">
<path d="M75 0H0V42H75V0Z" fill="white"/>
</mask>
<g mask="url(#mask1_216_28)">
<mask id="mask2_216_28" style="mask-type:luminance" maskUnits="userSpaceOnUse" x="0" y="0" width="75" height="42">
<path d="M75 0H0V42H75V0Z" fill="white"/>
</mask>
<g mask="url(#mask2_216_28)">
<path d="M31.3173 19.5407L30.628 19.5609V16.8483H31.3983C31.9862 16.8483 32.1889 17.2734 32.1889 18.2248C32.1889 19.156 31.9862 19.5407 31.3173 19.5407ZM34.7429 25.7351V22.82C34.7429 21.4435 34.2564 20.6338 33.2024 20.4516C34.4185 20.1277 34.7632 19.0953 34.7632 17.7794C34.7632 15.9171 34.0942 14.7632 31.9253 14.7632H28.0537V26.7674H30.628V21.5448H31.2564C31.8848 21.5448 32.1685 21.9699 32.1685 22.5367V25.7351C32.1685 26.2614 32.2699 26.6662 32.351 26.7674H34.9659C34.8848 26.6866 34.7429 26.2817 34.7429 25.7351Z" fill="#3D565F"/>
<path d="M5.77703 24.7431C6.24325 24.3585 6.32432 23.8725 6.32432 23.4475V21.6459H3.81081V24.075C3.81081 24.4191 3.52703 24.7026 3.18243 24.7026C2.83784 24.7026 2.57432 24.4191 2.57432 24.075V17.1721C2.57432 16.828 2.83784 16.5446 3.18243 16.5446C3.52703 16.5446 3.81081 16.828 3.81081 17.1721V19.6216H6.32432V17.0709C6.32432 15.6741 5.41216 14.5 3.16216 14.5C0.871619 14.5 0 15.6539 0 17.0709V24.318C0 25.7148 1.11486 26.7674 2.53379 26.7674H3.30405L5.77703 24.7431Z" fill="#3D565F"/>
<path d="M71.331 19.5407H70.6413V16.828H71.4319C72.02 16.828 72.2226 17.2532 72.2226 18.2046C72.2023 19.156 71.9997 19.5407 71.331 19.5407ZM74.7565 25.7351V22.82C74.7565 21.4435 74.27 20.6338 73.2158 20.4516C74.4319 20.1277 74.7768 19.0953 74.7768 17.7794C74.7768 15.9171 74.1081 14.7632 71.9387 14.7632H68.0674V26.7674H70.6616V21.5448H71.2903C71.9184 21.5448 72.2023 21.9699 72.2023 22.5367V25.7351C72.2023 26.2614 72.3039 26.6662 72.3845 26.7674H74.9997C74.8981 26.6866 74.7565 26.2614 74.7565 25.7351Z" fill="#3D565F"/>
<path d="M62.6754 22.4555L63.3443 16.8482L64.0132 22.4555H62.6754ZM65.0875 14.7428H61.6213L59.5537 26.7673H62.1686L62.4321 24.6418H64.297L64.5605 26.7673H67.1754L65.0875 14.7428Z" fill="#3D565F"/>
<path d="M47.7773 26.7876V14.7833H50.4125V24.5001H53.1693V26.7876H47.7773Z" fill="#3D565F"/>
<path d="M46.3791 14.7833H43.7236V26.7876H46.3791V14.7833Z" fill="#3D565F"/>
<path d="M47.7773 26.7876V14.7833H50.4125V24.5001H53.1693V26.7876H47.7773Z" fill="#3D565F"/>
<path d="M53.8174 26.7876V14.7833H56.4525V24.5001H59.2296V26.7876H53.8174Z" fill="#3D565F"/>
<path d="M39.3854 19.8847H38.5948V16.8482H39.3854C40.0543 16.8482 40.1759 17.3138 40.1759 18.4069C40.1557 19.5406 40.0543 19.8847 39.3854 19.8847ZM40.0543 14.7833H36.0205V26.7876H38.6151V22.0305H40.0543C42.4259 22.0305 42.8313 20.5122 42.8313 18.4069C42.8313 16.2814 42.4259 14.7833 40.0543 14.7833Z" fill="#3D565F"/>
<path d="M23.5743 17.071V19.4394H26.3108V21.7877H23.5743V24.4598H26.8378V26.7674L20.9189 26.7877V14.7632H26.7162V17.071H23.5743Z" fill="#3D565F"/>
<path d="M15.6683 25.0264V17.1113H13.9453V14.7833H20.2088V17.1113H18.4656V26.7471H17.7358L15.6683 25.0264Z" fill="#3D565F"/>
<path d="M16.8044 26.7674L10.703 21.6459L4.3584 26.7674H16.8044Z" fill="#3D565F"/>
<path d="M10.0133 20.2693L10.6822 16.8278L11.3511 20.2693H10.0133ZM12.4254 14.7833H8.91869L6.8916 23.913L10.6822 20.8563L14.6349 24.1762L12.4254 14.7833Z" fill="#3D565F"/>
</g>
</g>
</g>
</g>
<defs>
<clipPath id="clip0_216_28">
<rect width="75" height="42" fill="white"/>
</clipPath>
</defs>
</svg>
