<svg width="79" height="42" viewBox="0 0 79 42" fill="none" xmlns="http://www.w3.org/2000/svg">
<g clip-path="url(#clip0_216_54)">
<mask id="mask0_216_54" style="mask-type:luminance" maskUnits="userSpaceOnUse" x="0" y="0" width="79" height="42">
<path d="M79 0H0V42H79V0Z" fill="white"/>
</mask>
<g mask="url(#mask0_216_54)">
<mask id="mask1_216_54" style="mask-type:luminance" maskUnits="userSpaceOnUse" x="0" y="0" width="79" height="42">
<path d="M79 0H0V42H79V0Z" fill="white"/>
</mask>
<g mask="url(#mask1_216_54)">
<mask id="mask2_216_54" style="mask-type:luminance" maskUnits="userSpaceOnUse" x="0" y="0" width="79" height="42">
<path d="M79 0H0V42H79V0Z" fill="white"/>
</mask>
<g mask="url(#mask2_216_54)">
<path d="M76.0774 26.3586L76.2474 25.5889C76.0429 25.877 75.8165 26.0929 75.5661 26.2376C75.3135 26.3817 75.0363 26.4529 74.7337 26.4529C74.2379 26.4529 73.8944 26.2679 73.7039 25.8972C73.5128 25.5266 73.486 25.0373 73.6193 24.4294C73.7617 23.7878 74.0305 23.2534 74.429 22.8253C74.8282 22.3976 75.3008 22.1836 75.8461 22.1836C75.9928 22.1836 76.1254 22.199 76.2411 22.2304C76.356 22.2618 76.4647 22.3093 76.5634 22.3745C76.6622 22.4392 76.7694 22.5453 76.8872 22.6912L77.3739 20.4868H78.4757L77.1792 26.3586H76.0774ZM76.7419 23.3465C76.6297 23.1722 76.5133 23.0559 76.3934 22.9937C76.2728 22.9314 76.1444 22.8999 76.0055 22.8999C75.7149 22.8999 75.4638 23.0441 75.2564 23.3299C75.0483 23.6151 74.9023 23.9514 74.817 24.3381C74.7323 24.7188 74.7337 25.023 74.817 25.2496C74.903 25.4756 75.0723 25.5889 75.329 25.5889C75.4906 25.5889 75.6648 25.5313 75.8489 25.4162C76.0337 25.3006 76.2129 25.1494 76.3857 24.9614L76.7419 23.3465ZM68.9671 26.3586L69.8673 22.2784H70.9678L70.8 23.0441C71.068 22.731 71.3381 22.5079 71.6076 22.3787C71.8784 22.2488 72.138 22.1836 72.387 22.1836C72.7115 22.1836 72.9654 22.2879 73.153 22.4943C73.3414 22.7013 73.3851 23.028 73.2863 23.4728L72.6494 26.3586H71.5476L72.1246 23.7432C72.1747 23.5208 72.1867 23.3696 72.1634 23.2902C72.1394 23.2113 72.0964 23.1502 72.0343 23.1099C71.9723 23.0689 71.8975 23.0476 71.8107 23.0476C71.6584 23.0476 71.4877 23.0986 71.3008 23.1988C71.1138 23.2996 70.8916 23.496 70.6349 23.7878L70.0681 26.3586H68.9671ZM67.1068 25.9262C66.9144 26.0786 66.7518 26.1877 66.6207 26.2541C66.489 26.3206 66.3556 26.3703 66.2215 26.4036C66.0881 26.4368 65.9498 26.4528 65.8086 26.4528C65.4428 26.4528 65.1747 26.3401 65.005 26.1141C64.8351 25.8864 64.7857 25.6077 64.8589 25.2792C64.9471 24.8777 65.186 24.5426 65.5739 24.2733C65.9612 24.0047 66.5248 23.8701 67.2624 23.8701H67.5561L67.6389 23.5006C67.6926 23.2521 67.6603 23.0849 67.54 22.9983C67.4197 22.9117 67.2534 22.869 67.0396 22.869C66.6171 22.869 66.1602 22.99 65.6674 23.2308L65.8354 22.4681C66.3752 22.2783 66.8942 22.1834 67.3887 22.1834C67.6919 22.1834 67.9523 22.2249 68.1745 22.3062C68.3938 22.3886 68.5559 22.5161 68.6619 22.6887C68.7668 22.8601 68.7811 23.1175 68.7053 23.4597L68.3062 25.2667C68.2579 25.4873 68.2633 25.6231 68.3217 25.6736C68.3806 25.7228 68.4444 25.7465 68.5129 25.7465C68.554 25.7465 68.6047 25.7426 68.6678 25.7352L68.554 26.3502C68.305 26.4184 68.0899 26.4528 67.9088 26.4528C67.7032 26.4528 67.5358 26.4202 67.4036 26.3514C67.2695 26.2844 67.1867 26.1426 67.1551 25.9262H67.1068ZM67.2326 25.3373L67.4173 24.5029H67.1564C66.797 24.5029 66.5146 24.5675 66.3103 24.6956C66.1059 24.8249 65.9826 24.9844 65.9391 25.1766C65.9039 25.3337 65.9302 25.463 66.0136 25.5644C66.0982 25.6646 66.2132 25.7156 66.3562 25.7156C66.4855 25.7156 66.6237 25.6836 66.7709 25.6196C66.9174 25.5567 67.0717 25.4618 67.2326 25.3373ZM60.3065 26.3586L61.5213 20.8557H63.5875C64.0093 20.8557 64.3198 20.9091 64.5182 21.0141C64.716 21.119 64.856 21.2792 64.9358 21.4932C65.0169 21.7073 65.0276 21.9505 64.968 22.2209C64.8971 22.5435 64.7356 22.8484 64.486 23.1342C64.2363 23.4219 63.9241 23.6401 63.5506 23.7913L64.7946 26.3586H63.3927L62.5139 24.1133H61.883L61.3861 26.3586H60.3065ZM62.0498 23.3531H62.3155C62.788 23.3531 63.1395 23.2516 63.3677 23.0465C63.5953 22.8412 63.7377 22.6082 63.7949 22.349C63.8444 22.1243 63.8097 21.9457 63.6924 21.8129C63.5727 21.6806 63.2873 21.6143 62.8351 21.6143H62.4335L62.0498 23.3531ZM56.4623 26.3586L57.7575 20.4868H58.8597L57.5633 26.3586H56.4623ZM54.4677 26.3586L55.7629 20.4868H56.8658L55.5688 26.3586H54.4677ZM51.849 26.453C51.4064 26.453 51.0447 26.367 50.7665 26.195C50.4864 26.0224 50.3011 25.7692 50.2083 25.4342C50.1153 25.0991 50.1147 24.7278 50.2049 24.3181C50.2949 23.9124 50.4581 23.5411 50.6964 23.2084C50.9329 22.8757 51.2314 22.6213 51.5883 22.4464C51.9446 22.272 52.3462 22.1836 52.7912 22.1836C53.238 22.1836 53.6021 22.272 53.8809 22.4464C54.1585 22.6213 54.3438 22.8757 54.4356 23.2084C54.5267 23.5411 54.5279 23.9124 54.438 24.3181C54.3486 24.7278 54.1836 25.0991 53.9429 25.4342C53.7022 25.7692 53.4037 26.0224 53.0492 26.195C52.6935 26.367 52.2941 26.453 51.849 26.453ZM52 25.7686C52.3128 25.7686 52.5779 25.6311 52.796 25.3565C53.0135 25.0819 53.1689 24.7361 53.2613 24.3181C53.353 23.9035 53.3501 23.5584 53.2536 23.282C53.1571 23.0068 52.9521 22.8692 52.6399 22.8692C52.3295 22.8692 52.0667 23.0068 51.8469 23.282C51.6276 23.5584 51.4745 23.9035 51.3816 24.3181C51.291 24.7361 51.2916 25.0819 51.3893 25.3565C51.4864 25.6311 51.6902 25.7686 52 25.7686ZM46.3324 26.2326L46.5111 25.4207C47.008 25.652 47.4501 25.7682 47.8386 25.7682C48.0459 25.7682 48.2205 25.7249 48.3623 25.6372C48.5059 25.5506 48.5911 25.4402 48.6208 25.3063C48.6471 25.19 48.6213 25.0916 48.5488 25.0127C48.4719 24.9356 48.3491 24.8597 48.1764 24.7855L47.8362 24.6367C47.4859 24.4831 47.2374 24.3135 47.0944 24.1273C46.9515 23.9434 46.9121 23.7033 46.9776 23.4085C47.0563 23.0532 47.2589 22.7609 47.5871 22.5302C47.9142 22.2989 48.3623 22.1833 48.9313 22.1833C49.2643 22.1833 49.6492 22.2337 50.0883 22.3309L49.9179 23.1013C49.5098 22.9465 49.1612 22.8688 48.8711 22.8688C48.6429 22.8688 48.4635 22.9086 48.3319 22.9863C48.2002 23.0651 48.121 23.1659 48.0942 23.2898C48.0727 23.3865 48.0913 23.4719 48.1496 23.546C48.2038 23.6208 48.32 23.6937 48.4945 23.7661L48.7877 23.8888C49.2715 24.0899 49.5753 24.285 49.6969 24.473C49.816 24.6646 49.8464 24.8929 49.7874 25.1586C49.7111 25.5031 49.4961 25.805 49.1415 26.0641C48.7877 26.3233 48.3271 26.4532 47.7605 26.4532C47.2779 26.4532 46.8013 26.3791 46.3324 26.2326ZM43.5651 26.3586L44.466 22.2784H45.567L45.3978 23.0476C45.5872 22.7849 45.8142 22.5744 46.077 22.419C46.3409 22.2625 46.6126 22.1836 46.8944 22.1836C46.9611 22.1836 47.0303 22.1878 47.097 22.1942L46.879 23.1852C46.7366 23.1288 46.5977 23.101 46.4613 23.101C46.2408 23.101 46.0305 23.1561 45.828 23.2658C45.6236 23.3768 45.4276 23.5434 45.2393 23.7646L44.6668 26.3586H43.5651ZM42.9687 26.2215C42.4129 26.3756 41.9004 26.4528 41.434 26.4528C40.9913 26.4528 40.6212 26.3703 40.3251 26.206C40.029 26.0412 39.8307 25.7832 39.7282 25.4328C39.6263 25.0816 39.6215 24.7003 39.7109 24.2887C39.7961 23.9068 39.9498 23.554 40.1733 23.2308C40.3967 22.9081 40.6749 22.6519 41.0062 22.4645C41.3387 22.2777 41.7164 22.1834 42.1423 22.1834C42.6637 22.1834 43.0438 22.3507 43.2815 22.684C43.5192 23.0173 43.5377 23.6376 43.3381 24.5449H40.8215C40.7857 24.8201 40.7995 25.0389 40.8644 25.1973C40.9287 25.3562 41.0354 25.4825 41.1855 25.5757C41.3344 25.6688 41.552 25.7156 41.8379 25.7156C42.2044 25.7156 42.6381 25.6273 43.1385 25.4523L42.9687 26.2215ZM40.937 23.9234H42.3842C42.4677 23.5463 42.4658 23.2758 42.3771 23.1133C42.2901 22.9496 42.1477 22.869 41.9529 22.869C41.7396 22.869 41.5441 22.958 41.3684 23.137C41.1915 23.3162 41.0485 23.5783 40.937 23.9234ZM34.8277 27.613L35.091 26.8118C35.4962 27.0223 35.9025 27.1279 36.3088 27.1279C36.6925 27.1279 36.9975 27.0472 37.2264 26.8876C37.4539 26.7269 37.6136 26.4405 37.7036 26.0283L37.8269 25.4727C37.6506 25.7348 37.4307 25.9471 37.168 26.1113C36.9046 26.2763 36.6181 26.3586 36.3071 26.3586C35.9901 26.3586 35.7297 26.2792 35.5242 26.1203C35.3198 25.9619 35.1875 25.7235 35.1292 25.405C35.072 25.086 35.085 24.7319 35.1709 24.3399C35.3073 23.7273 35.5742 23.2155 35.9746 22.8027C36.3749 22.39 36.8498 22.1836 37.3985 22.1836C37.5439 22.1836 37.6755 22.199 37.7899 22.2281C37.9044 22.2571 38.011 22.3022 38.1075 22.3644C38.2058 22.4273 38.3173 22.5323 38.4423 22.6806L38.6467 22.2785H39.6333L38.947 25.3878C38.7659 26.2092 38.5639 26.7631 38.3417 27.0472C38.1206 27.3312 37.8299 27.5459 37.4706 27.6906C37.1132 27.8354 36.7199 27.9083 36.2951 27.9083C35.8215 27.9083 35.3317 27.8099 34.8277 27.613ZM37.9681 24.8315L38.3023 23.3211C38.1844 23.1414 38.064 23.0215 37.9437 22.9605C37.8233 22.9 37.7 22.8691 37.5743 22.8691C37.302 22.8691 37.0548 22.9955 36.8349 23.2499C36.615 23.5031 36.4578 23.8465 36.3624 24.2794C36.2802 24.6501 36.282 24.9413 36.3667 25.1541C36.4513 25.3665 36.6169 25.4727 36.863 25.4727C37.04 25.4727 37.2205 25.4199 37.4046 25.3125C37.5875 25.2052 37.7769 25.045 37.9681 24.8315ZM30.499 26.3586L31.3998 22.2784H32.5021L32.3329 23.044C32.6004 22.7309 32.8709 22.5079 33.1408 22.3787C33.4107 22.2487 33.6704 22.1835 33.9201 22.1835C34.2435 22.1835 34.498 22.2879 34.6857 22.4943C34.8727 22.7013 34.918 23.028 34.8191 23.4728L34.1816 26.3586H33.08L33.6573 23.7432C33.7073 23.5208 33.7199 23.3696 33.6954 23.2901C33.6722 23.2113 33.6293 23.1502 33.568 23.1099C33.5048 23.0689 33.4303 23.0476 33.3433 23.0476C33.1908 23.0476 33.021 23.0986 32.834 23.1988C32.6475 23.2996 32.4252 23.4959 32.1685 23.7878L31.6012 26.3586H30.499ZM28.4902 26.3586L29.7038 20.8557H30.8489L29.6341 26.3586H28.4902Z" fill="#3D565F"/>
<path d="M27.9851 17.1886C27.1235 12.9649 20.2994 11.2854 12.7393 13.437C11.1754 13.8824 9.70376 14.4588 8.35907 15.1272H9.28436C10.3639 14.5632 11.5436 14.0852 12.7983 13.7282C19.0744 11.9413 24.8321 13.7869 25.6615 17.8504C26.1369 20.1793 24.8857 22.7312 22.5502 24.8229L22.3304 25.8637C26.2495 23.3646 28.5701 20.0595 27.9851 17.1886ZM19.3125 27.0425C18.2335 27.6065 17.0544 28.0839 15.7985 28.4409C9.52425 30.2277 3.76531 28.3828 2.93716 24.3204C2.46172 21.9861 3.71646 19.4302 6.0597 17.3372L6.27895 16.2994C2.35388 18.8003 0.0285048 22.1095 0.614167 24.9816C1.47509 29.2053 8.30109 30.8843 15.8586 28.7327C17.4226 28.2873 18.8936 27.7109 20.2395 27.0425H19.3125ZM16.3769 19.998L16.8606 17.7107C18.1028 17.7231 19.0907 17.6721 18.8661 18.7307C18.5771 20.0994 18.0939 19.9725 16.3769 19.998ZM10.7055 26.3609H15.0315L15.8913 22.2913C17.5297 22.2386 18.0856 22.4236 17.911 23.2497L17.2533 26.3609H21.5608L22.2823 22.9437C22.3788 22.4894 22.6148 21.3733 20.7279 20.868C22.6457 20.3486 23.0616 19.2561 23.2219 18.4982C23.5954 16.7279 22.1393 15.8093 19.8962 15.8093H12.9356L10.7055 26.3609ZM7.04728 15.8091H11.6384L9.40843 26.3606H4.81724L7.04728 15.8091Z" fill="#3D565F"/>
</g>
</g>
</g>
</g>
<defs>
<clipPath id="clip0_216_54">
<rect width="79" height="42" fill="white"/>
</clipPath>
</defs>
</svg>
