<svg width="76" height="42" viewBox="0 0 76 42" fill="none" xmlns="http://www.w3.org/2000/svg">
<g clip-path="url(#clip0_216_69)">
<mask id="mask0_216_69" style="mask-type:luminance" maskUnits="userSpaceOnUse" x="0" y="0" width="76" height="42">
<path d="M76 0H0V42H76V0Z" fill="white"/>
</mask>
<g mask="url(#mask0_216_69)">
<mask id="mask1_216_69" style="mask-type:luminance" maskUnits="userSpaceOnUse" x="0" y="0" width="76" height="42">
<path d="M76 0H0V42H76V0Z" fill="white"/>
</mask>
<g mask="url(#mask1_216_69)">
<mask id="mask2_216_69" style="mask-type:luminance" maskUnits="userSpaceOnUse" x="0" y="0" width="76" height="42">
<path d="M76 0H0V42H76V0Z" fill="white"/>
</mask>
<g mask="url(#mask2_216_69)">
<path d="M54.9461 16.1897C54.8602 16.1897 54.7571 16.2069 54.6711 16.2069V18.3798C54.7571 18.3798 54.8602 18.3626 54.9461 18.3626C55.7539 18.3626 56.5101 18.673 57.0772 19.2421C57.6444 19.8112 57.9538 20.5872 57.9538 21.3804C57.9538 22.1909 57.6444 22.9497 57.0772 23.5188C56.5101 24.0707 55.7539 24.3983 54.9461 24.3983C54.1383 24.3983 53.3821 24.0707 52.8149 23.5188C52.3337 23.0359 52.0244 22.3979 51.9556 21.7253H49.79C49.9791 24.4328 52.2134 26.5884 54.9632 26.5884C57.8334 26.5884 60.1537 24.2604 60.1537 21.3804C60.1365 18.5178 57.8163 16.1897 54.9461 16.1897Z" fill="#3D565F"/>
<path d="M2.42334 16.5001H0V26.6056H2.42334V16.5001Z" fill="#3D565F"/>
<path d="M19.129 18.9316V26.6056H16.7228V18.9316H14.1104V16.5001H21.7585V18.9316H19.129Z" fill="#3D565F"/>
<path d="M24.955 24.4328H29.5611V26.6056H22.5488V16.5001H29.5611V18.6729H24.955V20.4664H28.8736V22.6393H24.955V24.4328Z" fill="#3D565F"/>
<path d="M36.8833 21.5529L40.2004 24.8984L38.4817 26.6056L35.1646 23.2601L33.446 21.5529L30.1289 18.2074L31.8476 16.5001L35.1646 19.8284L38.4817 16.5001L40.2004 18.2074L36.8833 21.5529Z" fill="#3D565F"/>
<path d="M43.0878 26.3125C42.5893 26.1055 42.1941 25.8123 41.816 25.4847C40.6472 24.3983 40.8019 22.9497 40.8019 22.8118L42.9159 22.8462V22.829C42.9159 22.829 42.9159 23.3981 43.1565 23.7774C43.4659 24.2431 44.033 24.4845 44.8752 24.4845C46.2673 24.4845 46.8861 24.1224 46.8861 23.536C46.8861 22.9152 46.0955 22.5186 44.8065 22.3807C44.0159 22.2944 43.3284 22.1219 42.7612 21.8805C42.2284 21.6564 41.7988 21.3632 41.4722 21.001C41.0082 20.4837 40.7676 19.8801 40.7676 19.1903C40.7676 18.2418 41.1457 17.6038 41.4722 17.2244C42.1769 16.4139 43.3284 16 44.9096 16C46.9892 16 48.0032 16.914 48.5016 17.6728C49.0344 18.5006 49.0516 19.449 49.0516 19.6042H46.9377V19.6387C46.9377 19.6387 46.9548 19.173 46.7142 18.8454C46.4048 18.4143 45.7861 18.1384 44.9267 18.1384C44.033 18.1384 42.9847 18.3798 42.9847 19.0524C42.9847 19.7076 43.6721 20.087 45.0471 20.2423C46.5767 20.4147 47.711 20.8976 48.3985 21.6908C48.8453 22.2254 49.086 22.8462 49.086 23.5188C49.086 23.8465 49.086 24.6742 48.4157 25.4157C48.072 25.8123 47.6079 26.1055 47.0407 26.2952C46.4564 26.5022 45.7345 26.5884 44.8924 26.5884C44.2049 26.6056 43.6034 26.5194 43.0878 26.3125Z" fill="#3D565F"/>
<path d="M63.248 18.6729V20.4664H66.0838V22.6393H63.248V26.6056H60.8418V16.5001H62.0449H63.248H67.0635V18.6729H63.248Z" fill="#3D565F"/>
<path d="M73.3874 18.9316V26.6056H70.9639V18.9316H68.3516V16.5001H75.9996V18.9316H73.3874Z" fill="#3D565F"/>
<path d="M10.4494 16.5001V21.6563L4.02148 16.6898V20.1733L12.8727 26.6056V16.5001H10.4494Z" fill="#3D565F"/>
</g>
</g>
</g>
</g>
<defs>
<clipPath id="clip0_216_69">
<rect width="76" height="42" fill="white"/>
</clipPath>
</defs>
</svg>
