<svg width="77" height="43" viewBox="0 0 77 43" fill="none" xmlns="http://www.w3.org/2000/svg">
<g clip-path="url(#clip0_217_294)">
<mask id="mask0_217_294" style="mask-type:luminance" maskUnits="userSpaceOnUse" x="0" y="0" width="78" height="43">
<path d="M77.0098 0H0V42.7833H77.0098V0Z" fill="white"/>
</mask>
<g mask="url(#mask0_217_294)">
<mask id="mask1_217_294" style="mask-type:luminance" maskUnits="userSpaceOnUse" x="0" y="0" width="78" height="43">
<path d="M77.0098 0H0V42.7833H77.0098V0Z" fill="white"/>
</mask>
<g mask="url(#mask1_217_294)">
<path d="M34.7091 21.2996C34.7091 24.1878 32.9351 25.5532 30.7146 25.5532H29.3576V23.8202H30.6089C31.9482 23.8202 32.841 23.1027 32.841 21.2996C32.841 19.5142 31.9966 18.6213 30.5692 18.6213C29.1946 18.6213 28.2121 19.4616 28.2121 21.2646V28.5117H26.3617V17.1158H28.2121V18.0962H28.4765C29.0933 17.2735 30.0052 16.9058 30.9569 16.9058C33.0012 16.9058 34.7091 18.3762 34.7091 21.2996ZM22.5479 20.5468L21.3142 20.4242C20.345 20.3367 19.8339 20.0742 19.8339 19.514C19.8339 18.8488 20.486 18.4638 21.42 18.4638C22.3893 18.4638 23.0061 18.9188 23.0589 19.5665H24.8389C24.7684 17.921 23.482 16.9058 21.4377 16.9058C19.3758 16.9058 17.9835 17.9911 17.9835 19.584C17.9835 20.9144 18.8294 21.7721 20.7504 21.9647L22.0016 22.0872C22.7594 22.1572 23.2705 22.3147 23.2705 23.0325C23.2705 23.6802 22.7946 24.1528 21.5434 24.1528C20.3912 24.1528 19.8235 23.6335 19.6242 22.9373H17.6986C17.8905 24.5286 19.2363 25.7633 21.5434 25.7633C23.711 25.7633 25.1208 24.6254 25.1208 22.945C25.1208 21.4571 24.134 20.7044 22.5479 20.5468ZM41.8757 22.9373C41.5854 23.5995 40.8919 24.1004 39.9076 24.1004C38.5506 24.1004 37.5461 23.2251 37.5461 21.3345C37.5461 19.5316 38.4801 18.5337 39.9252 18.5337C41.2117 18.5337 41.9519 19.3039 42.0224 20.4593H38.6916V21.7898H43.8376V20.9144C43.8376 18.4812 42.2162 16.9058 39.9076 16.9058C37.7576 16.9058 35.6956 18.3587 35.6956 21.3345C35.6956 24.3103 37.7576 25.7633 39.9076 25.7633C41.8741 25.7633 43.2764 24.5601 43.7121 22.9373H41.8757ZM12.7055 16.9058C10.6788 16.9058 9.16323 17.9562 8.98703 19.5665H10.9784C11.1194 18.9715 11.6657 18.5338 12.7055 18.5338C14.0449 18.5338 14.4855 19.2342 14.4855 20.0918V22.98C13.7276 23.8378 12.8465 24.2403 11.9653 24.2403C11.049 24.2403 10.4145 23.8027 10.4145 23.0152C10.4145 22.2623 10.9079 21.7898 11.8596 21.7898H13.3399V20.4593H11.8067C9.69196 20.4593 8.51121 21.5097 8.51121 23.1201C8.51121 24.6254 9.65666 25.7633 11.5423 25.7633C12.5997 25.7633 13.5338 25.3433 14.2211 24.8355H14.4855V25.5532H16.3358V19.9166C16.3358 17.8336 14.9084 16.9058 12.7055 16.9058ZM0.150391 25.5532H2.00082V14H0.150391V25.5532ZM7.92216 17.1158H5.66641L2.97009 20.6344V21.7372L5.73689 25.5532H8.0279L4.78527 21.177L7.92216 17.1158ZM74.8151 17.1158L73.2998 20.4593C72.9297 21.2646 72.5775 22.0522 72.4713 22.5775H72.2067C72.1012 22.0522 71.7311 21.282 71.361 20.4769L69.8454 17.1158H67.8012L71.361 24.6955L69.5987 28.5117H71.5728L76.8594 17.1158H74.8151ZM67.3919 17.1158H65.1361L62.4398 20.6344V21.7372L65.2066 25.5532H67.4976L64.2549 21.177L67.3919 17.1158ZM55.8062 20.5468L54.5727 20.4242C53.6033 20.3367 53.0924 20.0742 53.0924 19.514C53.0924 18.8488 53.7444 18.4638 54.6784 18.4638C55.6477 18.4638 56.2645 18.9188 56.3174 19.5665H58.0972C58.0268 17.921 56.7403 16.9058 54.696 16.9058C52.6341 16.9058 51.2419 17.9911 51.2419 19.584C51.2419 20.9144 52.0878 21.7721 54.0087 21.9647L55.26 22.0872C56.0177 22.1572 56.5289 22.3147 56.5289 23.0325C56.5289 23.6802 56.053 24.1528 54.8018 24.1528C53.6495 24.1528 53.0818 23.6335 52.8826 22.9373H50.957C51.1488 24.5286 52.4946 25.7633 54.8018 25.7633C56.9694 25.7633 58.3792 24.6254 58.3792 22.945C58.3792 21.4571 57.3924 20.7044 55.8062 20.5468ZM59.6201 25.5532H61.4705V14H59.6201V25.5532ZM47.4179 18.0962H47.1535V17.1158H45.3032V25.5532H47.1535V21.142C47.1535 19.6366 47.8538 18.7613 49.2331 18.7613H50.4045V16.9058H49.7265C48.4467 16.9058 47.9029 17.3852 47.4179 18.0962Z" fill="#3D565F"/>
</g>
</g>
</g>
<defs>
<clipPath id="clip0_217_294">
<rect width="77" height="43" fill="white"/>
</clipPath>
</defs>
</svg>
