<svg width="57" height="42" viewBox="0 0 57 42" fill="none" xmlns="http://www.w3.org/2000/svg">
<path fill-rule="evenodd" clip-rule="evenodd" d="M5.06664 14C4.0091 14 2.75526 15.0033 1.72102 16.6901C0.643067 18.4371 0 20.5997 0 22.4778C0 25.2273 1.56351 28 5.06694 28C8.56617 28 10.1339 25.2273 10.1339 22.4778C10.1339 20.5997 9.49107 18.4371 8.41833 16.6901C7.37445 15.0033 6.12071 14 5.06664 14ZM32.4268 18.1251H35.9736V27.2502H39.7739V18.1251H43.3193V14.7496H32.4268V18.1251ZM51.4264 18.1251H57V14.7496H51.4264C46.3059 14.7496 43.5712 17.262 43.5712 20.9995C43.5712 24.7369 46.3059 27.2502 51.4264 27.2502H57V23.8749H51.4264C49.0565 23.8749 47.4987 23.039 47.4987 20.9999C47.4987 18.9608 49.0565 18.1251 51.4264 18.1251ZM24.6975 14.7496L22.6722 22.2107L20.6469 14.7496H13.9339V27.2502H17.7327V17.0826L20.4934 27.2502H24.851L27.6132 17.0764V27.2502H31.4134V14.7496H24.6975Z" fill="#3D565F"/>
</svg>
