<svg width="106" height="42" viewBox="0 0 106 42" fill="none" xmlns="http://www.w3.org/2000/svg">
<g clip-path="url(#clip0_216_93)">
<mask id="mask0_216_93" style="mask-type:luminance" maskUnits="userSpaceOnUse" x="0" y="0" width="106" height="42">
<path d="M106 0H0V42H106V0Z" fill="white"/>
</mask>
<g mask="url(#mask0_216_93)">
<mask id="mask1_216_93" style="mask-type:luminance" maskUnits="userSpaceOnUse" x="0" y="0" width="106" height="42">
<path d="M106 0H0V42H106V0Z" fill="white"/>
</mask>
<g mask="url(#mask1_216_93)">
<path d="M30.9312 16.8875C30.9312 16.9026 30.9236 16.9547 30.854 17.0696L30.8511 17.0722L30.8499 17.076C30.7804 17.2064 30.7433 17.3417 30.7433 17.4694C30.7433 17.6037 30.7841 17.7277 30.8643 17.8222C30.8809 17.8416 30.8996 17.8696 30.8996 17.8947C30.8996 17.8994 30.899 17.9025 30.8959 17.9075C30.8867 17.9377 30.8443 17.9818 30.7476 18.0156C30.5804 18.0731 30.4644 18.0231 30.3787 17.9869L30.3635 17.9783C30.3504 17.9741 30.3389 17.9698 30.3268 17.9664C29.8519 17.7874 30.0277 17.8301 29.959 18.2732C29.9498 18.331 29.9412 18.3941 29.933 18.4615C29.8929 18.7693 29.7751 19.2607 29.7149 19.4019L29.678 19.546C29.6762 19.5537 29.6751 19.5638 29.6721 19.573C29.6364 19.5476 29.5811 19.4979 29.4895 19.4029L29.3989 19.3094C28.9821 18.8785 28.5928 18.4303 28.5928 18.0147C28.5928 17.8562 28.6497 17.7017 28.7841 17.5538C28.8784 17.4829 28.9292 17.406 28.9292 17.3249C28.9292 17.3188 28.9292 17.3133 28.9281 17.3084C28.9146 17.1619 28.7667 17.0891 28.6583 17.0377L28.6067 17.0117C28.5143 16.9598 27.8782 16.7343 27.3398 16.9918C26.9653 17.171 26.7285 17.5361 26.6392 18.0757L26.6381 18.0851C26.5863 18.4556 26.4793 19.2187 27.3595 19.978C27.3126 20.0659 27.281 20.1552 27.2648 20.251C27.2586 20.3003 27.2333 20.3758 27.2091 20.4574C27.1833 20.5465 27.1544 20.6402 27.1347 20.7293C26.8772 20.3411 26.5238 19.7491 26.4144 19.5495C26.0997 18.9719 25.9662 18.0343 26.3187 17.3574C26.4943 17.0223 26.7678 16.7741 27.1347 16.6166C27.3388 16.5401 27.7006 16.3814 28.247 16.562C28.4371 16.6397 28.6554 16.728 28.8356 16.7496C29.0427 16.7741 29.2699 16.7153 29.4692 16.6639C29.5989 16.6304 29.7331 16.5957 29.8058 16.6049C29.9136 16.6178 30.1135 16.6978 30.2725 16.7615C30.3987 16.8133 30.5001 16.853 30.5671 16.8662C30.6075 16.8746 30.6581 16.8731 30.7144 16.8713C30.7711 16.8687 30.8959 16.8647 30.9312 16.8875ZM30.488 19.0559C30.2871 19.4918 30.1924 19.8555 30.1834 20.1425C30.1816 20.2912 30.3151 20.4931 30.4321 20.5377C30.4575 20.5511 30.454 20.5732 30.4288 20.5895C30.4095 20.5989 30.3389 20.6395 30.3389 20.6395C30.2549 20.6881 30.0834 20.7504 29.9687 20.7592C29.8738 20.7683 29.7925 20.7395 29.7188 20.6731C29.5119 20.4866 29.4012 20.0444 29.3721 19.6483C29.5504 19.8236 29.6622 19.8788 29.7681 19.8473C29.8923 19.8116 29.9136 19.6832 29.932 19.5897L29.9523 19.5003C30.0283 19.3232 30.1469 18.8049 30.1873 18.4936C30.1965 18.4073 30.218 18.2557 30.2432 18.2068C30.2483 18.2086 30.2534 18.2091 30.2614 18.2135L30.2766 18.2204C30.3018 18.2305 30.3325 18.2445 30.3678 18.2557C30.4251 18.369 30.5255 18.6284 30.5255 18.8526C30.5255 18.9264 30.5138 18.9975 30.488 19.0559ZM27.4574 20.5314C27.4826 20.4379 27.4959 20.3758 27.5201 20.2912C27.5664 20.1341 27.6412 19.9728 27.8575 19.7301C27.8602 19.7272 27.8631 19.7264 27.8677 19.7225C27.8722 19.7418 27.8839 19.7924 27.8839 19.7924L27.9134 19.8837C27.9549 20.027 28.0199 20.2232 28.0566 20.3208C28.1914 20.6754 28.1433 20.7183 28.5426 20.5479L28.6463 20.5053C28.6583 20.4976 28.6653 20.4953 28.6733 20.4917C28.6798 20.5185 28.6838 20.5601 28.6866 20.5757L28.6882 20.5944C28.6962 20.6843 28.8462 21.2632 28.8819 21.4015C29.0109 21.8946 28.8751 21.8562 29.2881 21.6916C29.5776 21.576 29.7402 21.6076 29.7534 21.6286C29.8537 21.7952 29.3567 22.5886 29.131 22.7875C29.0308 22.8756 28.8313 23.2017 28.7565 23.373L28.7438 23.4036C28.6684 23.5783 28.5426 23.8688 28.3721 24.0758C27.6229 24.9628 26.7711 24.6113 26.4075 24.4599L26.3775 24.4485C26.4478 24.2783 26.487 24.0984 26.5025 23.9201C26.6818 24.0769 26.9475 24.1855 27.2921 24.1855C27.9675 24.1855 28.4721 23.5179 28.4721 22.9222C28.4721 22.3234 27.9761 22.004 27.5133 21.962C27.2609 21.9392 27.0534 22.0127 26.9319 22.075C26.9291 22.0541 26.9272 22.0098 26.9272 21.9522C26.9272 21.7683 26.9608 21.4489 27.1882 21.357C27.222 21.344 27.2822 21.3207 27.3132 21.3128C27.7006 21.2125 27.6875 21.2088 27.4273 21.0226C27.4126 21.0122 27.4015 21.0088 27.3884 20.9974C27.3841 20.9937 27.3804 20.9905 27.3779 20.9876C27.3689 20.9771 27.3646 20.9566 27.3646 20.9321C27.3646 20.8278 27.4273 20.6199 27.4574 20.5314ZM26.8528 25.465L26.9211 25.5156C27.0679 25.6248 27.3689 25.8494 27.3461 26.0589C27.3275 26.2187 27.3255 26.9089 27.3255 26.9164C27.3255 26.9943 27.3589 27.1597 27.4072 27.4181C27.4408 27.58 27.4723 27.747 27.4826 27.8285C27.499 28.0113 27.4373 28.6331 27.3422 28.8078C27.3003 28.8823 27.2179 28.9046 27.1718 28.9117C27.0811 28.9243 27.0086 28.8971 26.9862 28.875L26.951 28.8393C26.8053 28.4344 26.745 28.6512 26.6092 28.877L26.5561 28.9146C26.4091 29.0059 26.2753 28.8695 26.2386 28.8236C26.2022 28.7839 26.189 28.7526 26.1903 28.7196C26.1919 28.7061 26.1903 28.6948 26.189 28.684L26.1919 28.6844C26.2571 28.3203 26.2409 28.3551 25.951 28.5149C25.936 28.5225 25.9182 28.5316 25.9026 28.5428L25.9065 28.5408C25.875 28.5594 25.7506 28.6032 25.724 28.5868C25.656 28.5348 25.6318 28.5004 25.6302 28.37C25.6302 28.2061 25.9272 27.8233 26.245 27.6387C26.4292 27.5307 26.6397 27.3083 26.6397 26.862C26.6397 26.8213 26.6392 26.7787 26.6369 26.7328C26.6117 26.4523 26.4056 26.1804 26.2386 26.1248C26.0997 26.0787 25.7357 26.0221 25.5113 26.0047C25.4233 25.9963 24.9422 25.9334 24.2856 25.4362C23.7304 25.0154 23.4137 24.2036 23.3459 23.9536C23.3361 23.9176 23.3323 23.8708 23.3323 23.814C23.3323 23.4874 23.4795 22.8843 23.5663 22.7266C23.653 22.5683 23.6997 22.3565 23.6997 22.1523C23.6997 22.1298 23.6978 22.1076 23.6978 22.0847C23.8575 22.2044 24.0189 22.3455 24.1232 22.4476C24.5898 22.9001 24.5063 22.6927 24.2653 22.3589C24.1526 22.2044 23.9744 21.964 23.7589 21.8146C23.5643 21.6797 23.1988 21.4923 22.8034 21.4114C22.4197 21.3314 22.1152 21.2125 21.9679 21.0885C21.9995 21.0702 22.0268 21.0526 22.0515 21.038C22.0646 21.0291 22.2738 20.8941 22.4629 20.7575C22.5283 20.8517 22.6352 20.9426 22.7489 20.9706C22.9112 21.0102 23.2172 20.9524 23.3477 20.7683C23.4178 20.6703 23.4651 20.5531 23.5065 20.459C23.5065 20.459 23.5608 20.3362 23.5643 20.3298C23.6223 20.2619 23.9982 19.9969 24.0859 19.9567C24.2049 19.903 24.1744 19.8788 24.058 19.8965C23.9191 19.9152 23.4305 20.0487 23.3424 20.2009L23.2678 20.3612C23.2322 20.4474 23.1902 20.5479 23.1365 20.6215C23.0777 20.7068 22.8852 20.7421 22.8112 20.7242C22.7579 20.7102 22.6927 20.6475 22.6647 20.5996C22.7055 20.5639 22.7358 20.5328 22.7517 20.51C22.7856 20.4507 22.7665 20.3766 22.7071 20.3395C22.6479 20.303 22.569 20.3217 22.5305 20.3795L22.5332 20.375C22.4912 20.4263 22.1834 20.6502 21.9114 20.8241C21.7235 20.9447 21.6842 20.9682 21.3945 21.1066L21.2515 21.177L21.1806 21.2065C21.0585 21.2539 20.8731 21.3248 20.8436 21.6401C20.8192 21.9058 20.715 22.1006 20.6355 22.1091C20.5515 22.1164 20.4357 22.0521 20.3819 21.9877C20.3819 21.9877 20.3443 21.9447 20.3296 21.9144C20.2495 21.6941 20.2075 21.6951 20.0735 21.8611C20.0309 21.9121 19.8695 21.8603 19.816 21.8441C19.7644 21.8199 19.6904 21.7775 19.7136 21.6916C19.8011 21.2488 19.8017 21.2249 19.4714 21.3168C19.4214 21.3248 19.388 21.2927 19.3581 21.2422C19.3303 21.195 19.3708 21.0684 19.4333 20.8756L19.4392 20.8574C19.4853 20.7038 19.6421 20.5653 19.7924 20.4332C19.8623 20.3667 19.959 20.2838 20.0253 20.2188C20.1741 20.0903 20.3855 20.0349 20.6437 19.9541C20.8862 19.8796 21.2407 19.7053 21.3853 19.5618C21.4896 19.4583 21.9298 19.1401 22.2238 19.0052C22.3564 18.9437 22.3477 18.8979 22.131 18.9587C21.8466 19.0659 21.3542 19.2304 21.2019 19.3814C21.1911 19.3954 21.1741 19.4076 21.1552 19.4229C20.8989 18.5591 21.1167 18.2289 21.2626 18.0096L21.274 17.9937C21.282 17.9923 21.2913 17.9919 21.2999 17.9913L21.3687 17.9867C21.3687 17.9867 21.4932 17.9783 21.6059 17.9727C21.6025 18.0763 21.6508 18.1431 21.6854 18.1784C21.8295 18.3136 22.1015 18.2849 22.2105 18.2407C22.2178 18.2371 22.9372 17.9359 23.0748 17.8434C23.1232 17.8119 23.1783 17.7821 23.222 17.7606C23.242 17.9186 23.2785 18.1904 23.3221 18.3871C23.3758 18.6178 23.4844 18.7077 23.5663 18.7415C23.6536 18.7795 23.7554 18.7704 23.8423 18.7182L23.8707 18.7052C23.9709 18.646 24.1801 18.5709 24.3879 18.1411C24.4048 18.1021 24.4229 18.0702 24.4362 18.0406C24.4417 18.0516 24.4424 18.0609 24.4487 18.0731C24.4563 18.0905 24.4843 18.1474 24.4896 18.1579L24.5329 18.2483C24.8238 18.8356 25.3651 19.9265 25.4302 21.0639L25.4783 21.5408C25.5812 22.1762 25.7852 22.371 25.9303 22.5087C25.9662 22.5444 25.9942 22.5716 26.011 22.5978C26.061 22.6755 26.178 22.9691 26.23 23.3328C26.23 23.3379 26.229 23.3433 26.229 23.3478C26.229 23.4036 26.2357 23.4612 26.2501 23.5162C26.2685 23.7671 26.2534 24.0386 26.1651 24.2895C26.1049 24.2028 26.0536 24.1266 26.0167 24.0709C25.7176 23.6196 25.1094 23.2317 25.7978 24.2074C26.0145 24.5119 26.4056 25.1048 26.8528 25.465ZM27.5689 28.93C27.5998 28.8695 27.6303 28.7819 27.6518 28.684H27.7819H30.7011C30.529 28.9734 29.8974 30.0585 29.8974 30.0585C29.8974 30.0585 30.5005 31.2246 30.6511 31.5115H23.1787L23.7849 29.4613L23.6778 29.4178C23.3323 29.2912 22.9784 29.1725 22.6202 29.0591C22.8489 28.8788 23.0808 28.6956 23.0986 28.684H25.4636C25.4933 28.7246 25.5292 28.7609 25.5802 28.7982C25.6756 28.8711 25.8365 28.8384 25.9477 28.7982C25.9623 28.8622 25.9885 28.9271 26.0425 28.9913C26.1833 29.153 26.4351 29.2888 26.6914 29.13C26.6914 29.13 26.7555 29.085 26.8022 29.0534L26.804 29.0537C26.8922 29.1437 27.053 29.1848 27.2091 29.162C27.3689 29.14 27.4983 29.055 27.5689 28.93ZM22.476 32.9834C19.9975 32.1246 17.0898 31.6329 14.4466 31.6329H14.432C11.7841 31.6329 8.88072 32.127 6.40179 32.9889L5.40941 29.6145C8.17476 28.6215 11.4456 28.0553 14.4314 28.0553H14.4466C17.4309 28.0553 20.7117 28.6252 23.4776 29.6187L22.476 32.9834ZM-1.89458 31.5115C-1.74564 31.2246 -1.14169 30.0585 -1.14169 30.0585C-1.14169 30.0585 -1.7735 28.9734 -1.94211 28.684H0.551971C0.550332 28.6936 0.548489 28.7049 0.548489 28.7158C0.548489 28.7721 0.560574 28.8261 0.589255 28.8774C0.638834 28.9651 0.731028 29.0209 0.860093 29.043C0.981788 29.0679 1.20816 29.0753 1.29585 29.0717L1.3489 29.07C1.65539 29.0595 1.99486 29.0479 2.09914 28.684H2.30872H5.76363C5.78022 28.6956 6.02688 28.8754 6.2719 29.0537C5.90826 29.1692 5.54994 29.2888 5.19839 29.4178L5.09186 29.4562L5.70197 31.5115H-1.89458ZM0.473504 28.0764L0.234423 28.0628C0.203283 28.0581 0.192017 28.0502 0.189558 28.0482C0.16395 28.0137 0.201028 27.8637 0.220491 27.7827C0.2377 27.7067 0.248151 27.6113 0.252658 27.536C0.258599 27.4684 0.267818 27.3769 0.286256 27.292C0.32764 27.0938 0.383158 26.8359 0.383158 26.4259C0.383158 26.3198 0.381313 26.2019 0.371479 26.0716C0.36308 25.962 0.360622 25.8731 0.360622 25.8013C0.360622 25.5661 0.390944 25.5003 0.408357 25.4823C0.416552 25.4718 0.446461 25.4689 0.493786 25.4673L0.580243 25.4601L0.657272 25.4515C0.919093 25.4267 1.53329 25.3682 1.88935 24.8071C2.14072 24.4062 2.20239 24.0128 2.25648 23.0304C2.30871 22.1099 3.02228 21.3456 3.3093 21.1829L3.48569 21.0861C3.7174 20.9589 3.99827 20.779 4.23368 20.6384C4.30231 20.5883 4.433 20.5531 4.5045 20.3723C4.5465 20.2409 4.61001 20.1091 4.68028 19.9537C4.77309 19.7471 4.87736 19.5107 4.96566 19.1893C5.12505 18.6009 5.0347 18.0167 4.86651 17.545C4.89682 17.5529 4.9294 17.5597 4.96258 17.5621C5.12341 17.5798 5.23711 17.5225 5.30902 17.3987C5.37991 17.4631 5.45755 17.499 5.60916 17.5558C5.90826 17.6687 6.28236 17.7592 6.46039 17.6019C6.4696 17.6129 6.47759 17.622 6.48866 17.6353C6.59642 17.7736 7.04693 18.0731 7.77563 18.553C8.27857 18.8842 8.79939 19.2266 9.02722 19.4168C9.154 19.5214 9.20197 19.5673 9.20197 19.7035C9.20197 19.7384 9.19886 19.7796 9.19193 19.8295C9.17999 19.9358 9.14806 20.0848 9.11471 20.2427C9.05937 20.5043 9.02721 20.8117 9.01287 21.0702C8.98926 21.4747 9.04029 21.7738 9.04029 21.9364L9.05196 22.0703C9.05938 22.1294 9.06283 22.1773 9.06283 22.2187C9.06283 22.3104 9.04028 22.3629 8.97598 22.4003C8.83705 22.4795 8.49906 22.5933 8.25385 22.6769C8.08396 22.7339 7.98403 22.7694 7.93506 22.791C7.89245 22.8111 7.81274 22.8281 7.76151 22.7956C7.70681 22.7599 7.69182 22.6647 7.69062 22.5925L7.68081 22.4094C7.66463 22.1596 7.66299 22.1448 7.85203 22.0758C7.9051 22.057 7.92827 22.0649 7.97767 22.0805C8.04282 22.1014 8.13335 22.1306 8.27263 22.0805C8.51544 21.992 8.58095 21.8724 8.68999 21.6762C8.78277 21.5042 8.73198 21.2971 8.75346 20.917L8.76822 20.6556C8.78504 20.4647 8.89118 20.196 8.38393 20.0349C7.52427 19.7615 7.02398 19.6154 6.85005 19.5868C6.61568 19.5495 6.34586 19.4417 6.30018 19.3954C6.2506 19.3451 6.17357 19.3451 6.12502 19.3954C6.07544 19.4443 6.07544 19.5251 6.12502 19.5748C6.23974 19.6942 6.59765 19.8037 6.81194 19.8382C6.92093 19.8575 7.26698 19.9561 8.31016 20.2782C8.33574 20.2849 8.36034 20.2946 8.38225 20.3086C8.34253 20.3931 8.29992 20.4777 8.25385 20.5639C8.07294 20.9081 7.62958 21.4652 7.4257 21.6397C7.08792 21.927 6.67817 22.1862 6.22029 22.2213C5.36435 22.2885 4.71367 22.7307 4.28222 23.537C4.12037 23.8417 3.99869 24.1409 3.90117 24.3836C3.8014 24.6326 3.71555 24.8463 3.63216 24.9457C3.46725 25.1409 3.02002 25.3739 2.8002 25.2763C2.5015 25.1479 2.33658 25.1389 2.14892 25.2465C2.04484 25.3051 2.08172 25.3835 1.8789 25.3666C1.80761 25.3603 1.55521 25.3473 1.54845 25.4163C1.54189 25.4878 1.72259 25.5504 1.79388 25.557C2.18805 25.5899 2.14175 25.5425 2.27491 25.4677C2.34764 25.4275 2.40439 25.3955 2.6236 25.4802C2.59697 25.6497 2.43901 25.7711 2.30442 25.8239C2.11675 25.8985 1.81272 25.8657 1.61175 25.8423C1.36386 25.8167 1.00267 25.886 0.968467 26.0883L0.944907 26.1914C0.922372 26.2945 0.888982 26.4343 0.869315 26.5916C0.841656 26.8081 0.898196 27.2296 1.03198 27.3601C1.08565 27.4141 1.2393 27.5407 1.3864 27.6642L1.62363 27.8637L1.66563 27.8982C1.77298 27.9892 1.88546 28.0819 1.87398 28.4565C1.86476 28.7839 1.73836 28.8031 1.3403 28.8165L1.28601 28.8169C1.02869 28.8261 0.875251 28.756 0.841042 28.7171C0.764622 28.6678 0.888982 28.5066 0.907418 28.4545C0.916846 28.4251 0.922987 28.3991 0.925856 28.3747C0.996946 28.0795 1.19156 28.089 0.650513 28.0835L0.652151 28.086C0.596837 28.0795 0.537014 28.0772 0.473504 28.0764ZM0.284412 23.1337C0.019926 22.6008 0.251837 21.7884 0.901475 20.9601C0.901475 20.9617 1.07868 20.7275 1.07868 20.7275L1.15408 20.6337C1.28765 20.472 1.5044 20.1222 1.5044 19.8202C1.5044 19.7712 1.4999 19.7218 1.48494 19.6759C1.44581 19.5354 1.3444 19.435 1.19341 19.3828C1.11802 19.3571 1.0836 19.3356 1.06721 19.3244C1.09651 19.2889 1.17354 19.2341 1.2141 19.2083L1.27393 19.1663C1.3741 19.0918 1.54722 19.0545 1.68079 19.0794L1.74819 19.0981C1.82256 19.1202 1.9246 19.1509 2.02765 19.09C2.13827 19.0265 2.21161 18.881 2.2743 18.6054C2.35277 18.2545 2.28987 17.7251 1.99854 17.3044C1.78015 16.99 1.25139 16.5636 0.798635 16.6399C0.628591 16.6692 0.408358 16.7674 0.306948 17.141C0.281135 17.2329 0.259213 17.3133 0.259213 17.4115C0.259213 17.7413 0.429253 18.094 0.596836 18.2228C0.603596 18.2289 0.610151 18.2343 0.615273 18.2391C0.600318 18.2427 0.57041 18.2484 0.565288 18.2503C0.556069 18.2511 0.521853 18.2462 0.499522 18.2445C0.344027 18.2267 -0.156262 18.119 -0.21383 18.5086V18.5358C-0.21383 18.6111 -0.225507 18.7385 -0.434064 19.0939C-0.538342 19.2688 -0.603489 19.3356 -0.635244 19.3625C-0.653477 19.3256 -0.670278 19.2651 -0.677859 19.2347L-0.696502 19.1734C-0.736451 19.0584 -0.751609 18.8923 -0.751609 18.7537C-0.751609 18.7413 -0.750386 18.7294 -0.750386 18.7182C-0.748747 18.6896 -0.745461 18.6072 -0.729278 18.5681C-0.710636 18.5212 -0.685233 18.465 -0.685233 18.4108C-0.685233 18.3684 -0.702238 18.3269 -0.745468 18.2923C-0.855891 18.2109 -0.954429 18.3154 -1.19925 18.4716C-1.40289 18.6036 -1.46682 18.6036 -1.58666 18.5875C-1.66205 18.5788 -1.77678 18.5388 -1.8407 18.5161C-1.89089 18.5009 -1.92592 18.4991 -1.95297 18.4899C-1.77002 18.3292 -1.35332 17.8793 -1.31357 17.7145C-1.30476 17.68 -1.31931 17.6089 -1.33262 17.5889C-1.39757 17.487 -1.50308 17.3646 -1.81079 17.224C-1.59465 17.1572 -1.27485 17.0497 -1.13042 17.031C-0.686463 16.9736 -0.397187 16.7887 -0.0878353 16.6124C0.187304 16.4569 0.471661 16.2956 0.889596 16.2006C1.40627 16.0829 1.86293 16.3634 2.42324 17.1444C2.64737 17.454 2.69797 17.845 2.69797 18.2032C2.69797 18.6993 2.56788 19.1422 2.4933 19.2891L2.46094 19.3504C2.40972 19.449 2.34764 19.5673 2.34764 19.6893C2.34764 19.799 2.39763 19.9121 2.55169 20.0148C2.66724 20.0958 2.72624 20.1506 2.72624 20.2276C2.72624 20.2831 2.69797 20.3474 2.6404 20.4418L2.44967 20.7377C2.3286 20.9239 2.21386 21.1031 2.1567 21.2249C2.14564 21.2533 2.06471 21.3824 2.05529 21.3503C2.04279 21.3026 2.0301 21.2545 2.0301 21.2545L1.98748 21.0702C1.91947 20.6754 1.85555 20.5944 1.75128 20.5781C1.69576 20.5704 1.62199 20.5913 1.57836 20.6761L1.46486 20.872L1.35136 21.0528L1.23479 21.2025L1.10982 21.3733C0.774459 21.8258 0.26454 22.5087 0.796175 23.1603C1.12539 23.5625 1.68632 23.4397 1.98011 23.349C1.96536 23.5345 1.95224 23.6912 1.93462 23.8273C1.11883 23.8194 0.507514 23.5806 0.284412 23.1337ZM-0.288196 19.6803L-0.41624 19.8764C-0.610455 20.195 -0.767184 20.5055 -0.881289 20.7323L-0.930254 20.8341C-1.02245 21.0307 -1.04499 21.039 -1.09846 21.027C-1.09846 20.9966 -1.0835 20.9363 -1.0706 20.8947C-1.05298 20.8215 -1.03352 20.7395 -1.03352 20.6589C-1.03352 20.6459 -1.03352 20.6337 -1.03454 20.6232C-1.05011 20.4172 -1.27485 20.0586 -1.525 19.6767L-1.56023 19.6213C-1.63153 19.5153 -1.64996 19.353 -1.64996 19.1943C-1.64996 19.0709 -1.63849 18.949 -1.6303 18.8552V18.851C-1.49385 18.8619 -1.3273 18.8923 -1.05072 18.7052C-1.05072 18.7129 -1.05195 18.7231 -1.05195 18.7314C-1.05195 18.9096 -1.00627 19.1245 -0.959757 19.2607L-0.946444 19.3074C-0.913661 19.4267 -0.859163 19.628 -0.680725 19.652C-0.525639 19.6722 -0.381207 19.5466 -0.193752 19.2322C0.0471737 18.8264 0.0654063 18.658 0.0639722 18.5212V18.5086L0.0719624 18.4972C0.075445 18.4937 0.088557 18.4921 0.111298 18.4912C0.186075 18.8483 -0.0868102 19.3845 -0.288196 19.6803ZM4.72248 17.1983C4.62885 17.0091 4.53237 16.8502 4.44448 16.7335L4.44222 16.7293L4.43894 16.7262C4.42624 16.7114 4.41313 16.6959 4.39859 16.681V16.6796C3.89707 16.0596 4.01466 16.2995 3.95299 16.7674C3.9491 16.8017 3.94542 16.8385 3.94214 16.8762C3.93824 16.9328 3.93107 16.99 3.92022 17.0349C3.90342 17.1004 3.88437 17.1252 3.87576 17.1306C3.86777 17.136 3.83621 17.1396 3.73071 17.1083C3.24825 16.9653 3.12492 16.6176 3.05814 16.4309L3.05526 16.418C3.03866 16.3664 3.01778 16.3203 3.00159 16.2787C2.75739 15.658 2.82949 15.9079 2.62708 16.1322H2.62933C2.60864 16.1515 2.59021 16.173 2.57587 16.1919L2.55845 16.2136C2.52875 16.2474 2.51522 16.2568 2.50826 16.2593C2.50498 16.2568 2.49719 16.2509 2.48818 16.242C2.40972 16.1645 2.23271 15.8862 2.16367 15.7158C2.14891 15.676 2.14176 15.6216 2.14176 15.5616C2.14176 15.4226 2.17453 15.2495 2.19666 15.1323L2.20813 15.0707L2.21756 15.0307C2.27492 14.8236 2.30257 14.7123 2.22082 14.6301C2.1397 14.5513 2.03399 14.5796 1.84571 14.6317L1.80945 14.6414C1.76336 14.654 1.73098 14.6619 1.70373 14.668C1.73836 14.4846 1.7646 14.2985 1.7646 14.1252C1.7646 13.8025 1.67608 13.5269 1.38292 13.4009C1.33457 13.3808 1.30036 13.3605 1.27126 13.3396C1.82195 13.2347 2.37468 12.9553 2.80573 12.5713L2.90939 12.4631C3.0442 12.3227 3.21261 12.1482 3.36012 12.1179C3.4478 12.1001 3.55719 12.1364 3.68974 12.2261C3.72375 12.25 3.79566 12.3132 3.84258 12.3545C3.92187 12.4256 4.00339 12.4994 4.09312 12.4168C4.10173 12.4077 4.17855 12.3314 4.09312 12.2287C3.9364 12.0358 3.84052 11.8109 3.87351 11.7616C3.87535 11.7616 3.92186 11.7202 4.20519 11.7733L4.19392 11.7719C4.42255 11.8283 5.0513 12.1143 4.70486 11.8283C4.77882 11.8101 4.85646 11.7833 4.93432 11.7634L5.04392 11.7419C5.10272 11.7336 5.16029 11.7311 5.2197 11.7415C5.37478 11.7663 5.48767 11.7823 5.56838 11.8015L5.59031 11.8064C5.59031 11.8064 5.66919 11.8062 5.69337 11.8062C5.68886 11.8192 5.68352 11.8358 5.6743 11.8557C5.66406 11.8695 5.6571 11.8854 5.65197 11.9046C5.63046 12.0583 5.97464 12.3564 5.97751 12.3592C6.04306 12.4154 6.29341 12.6577 6.55606 12.9161C6.94449 13.2933 7.3823 13.7223 7.5507 13.8603C7.78298 14.056 7.74843 14.237 7.71684 14.2904C7.67218 14.3598 7.59331 14.4245 7.52936 14.4067L7.45687 14.3758C7.3532 14.3289 7.21327 14.2634 7.11144 14.3561C7.06557 14.3967 7.04836 14.4511 7.04836 14.5114C7.04836 14.5868 7.07476 14.6733 7.10635 14.7585C7.12274 14.8012 7.13073 14.8302 7.13356 14.8521C7.09073 14.9265 6.93015 14.9302 6.82403 14.8718C6.76871 14.8403 6.60912 14.7035 6.49255 14.6043L6.27149 14.4216C6.04942 14.2532 5.6952 14.1479 5.50959 14.1185C5.47251 14.1126 5.41105 14.0882 5.35573 14.0667C5.3166 14.0501 5.27665 14.0354 5.23855 14.0249C4.99147 13.8885 4.9294 13.5592 4.91424 13.4916C4.89682 13.4212 4.85032 13.3899 4.84172 13.4845C4.83434 13.5774 4.78046 13.8595 5.02487 14.2485C5.064 14.3252 5.13857 14.4193 5.2492 14.5436L5.3584 14.682C5.54462 14.9274 5.8255 15.2971 6.41306 15.6301L6.77404 15.8158C7.44414 16.1485 8.41567 16.5113 8.80717 17.5621C8.95161 17.9536 8.97372 18.4258 8.85903 18.9749C8.59508 18.7894 8.24846 18.5614 7.90919 18.3377C7.7121 18.2081 7.49602 18.0646 7.29893 17.9339L7.42859 17.8679C7.65168 17.7301 7.76851 17.5924 7.79939 17.4365C7.84575 17.2084 7.67176 17.0065 7.51114 16.7538C7.14014 16.1632 6.26044 16.0303 5.69337 15.9599L5.31046 15.9002C4.7104 15.7905 3.99397 15.5054 3.56231 15.1244C2.95385 14.5859 3.03866 13.5553 3.09951 13.2475C3.11283 13.1775 3.09643 13.0263 3.04317 13.1882C2.95774 13.5269 2.67707 14.6812 3.39186 15.3143C3.8604 15.729 4.66164 16.0411 5.29795 16.1606L5.66098 16.2136C6.18033 16.2771 7.00042 16.4216 7.30853 16.9092C7.4411 17.1197 7.57197 17.2701 7.54618 17.3877C7.53127 17.4678 7.44583 17.5558 7.29376 17.652L7.05144 17.7636C6.86276 17.6317 6.72098 17.5256 6.68328 17.4766C6.65194 17.4371 6.60727 17.3807 6.55381 17.3409H6.55504C6.13833 17.0144 6.32805 17.2151 6.29342 17.4115C6.24876 17.4452 6.05147 17.4505 5.6952 17.3168C5.48767 17.2384 5.47784 17.2277 5.39035 17.1077C5.13365 16.7787 5.18282 16.9117 5.12341 17.1889C5.10272 17.2883 5.08776 17.3194 4.98819 17.3096C4.89293 17.2991 4.80422 17.2571 4.72248 17.1983ZM3.92616 11.5067H3.90301C3.79054 11.5132 3.71269 11.5456 3.66311 11.6179C3.65492 11.6281 3.65061 11.6378 3.64548 11.6482C3.53977 11.5834 3.37977 11.4728 3.15933 11.2873C3.08189 11.2221 3.0397 11.1688 3.01532 11.1286C3.11099 11.112 3.28983 11.1207 3.62848 11.2422L3.63544 11.2445L3.64548 11.2463C3.71801 11.2634 3.78664 11.2742 3.85179 11.2806L3.92616 11.5067ZM4.89682 11.3808L4.89068 11.3894L4.88597 11.4009C4.86876 11.4415 4.82901 11.4848 4.77165 11.5254L4.61165 11.03C4.65446 10.9888 4.69523 10.944 4.73785 10.8942L4.74194 10.8906L4.74543 10.8853C4.94763 10.5931 5.08776 10.4806 5.1736 10.4378C5.17545 10.4508 5.17709 10.4594 5.17709 10.4752C5.17709 10.5192 5.17197 10.5781 5.15292 10.6507C5.01442 11.1946 4.89846 11.3787 4.89682 11.3808ZM2.88645 11.6092C2.66376 11.4251 2.54534 11.2063 2.56788 11.0257C2.57975 10.9174 2.649 10.8275 2.76086 10.7718C2.98335 10.6608 3.29843 10.6811 3.72641 10.8305C3.76226 10.8445 3.82864 10.8538 3.91796 10.8573L3.9743 10.8593C3.9743 10.8593 3.86777 10.5312 3.84769 10.4709C3.90116 10.4535 4.08329 10.3964 4.13553 10.3788C4.1554 10.4386 4.26481 10.7718 4.26481 10.7718L4.30926 10.7323C4.36294 10.685 4.41129 10.6288 4.44345 10.5754C4.6895 10.2326 4.9335 10.0396 5.17073 10.0013C5.29222 9.9814 5.40244 10.0143 5.47784 10.0949C5.55794 10.1827 5.60178 10.3168 5.60178 10.4768C5.60178 10.5632 5.58785 10.6572 5.56327 10.7538C5.46103 11.1589 5.36434 11.3914 5.31291 11.5006C5.29181 11.497 5.26866 11.4914 5.24572 11.4874C5.19839 11.4787 5.15681 11.4776 5.11583 11.4787C5.10333 11.4787 5.09002 11.4811 5.07916 11.4817C5.10845 11.4314 5.224 11.2201 5.35409 10.7012C5.37478 10.6213 5.3838 10.5441 5.3838 10.4752C5.3838 10.3714 5.36147 10.287 5.31824 10.2404C5.30902 10.2292 5.28116 10.2006 5.20454 10.2118C5.02139 10.2414 4.80873 10.4267 4.57313 10.7662C4.49651 10.8583 4.43136 10.9178 4.36642 10.9644C4.39264 11.0404 4.52991 11.4387 4.52991 11.4387C4.52991 11.4387 4.55879 11.5234 4.58358 11.5948C4.57641 11.5948 4.5674 11.5958 4.56104 11.5948C4.42215 11.5694 4.30189 11.5473 4.19802 11.5306C4.18757 11.5006 4.18142 11.4785 4.18142 11.4785L4.04744 11.0415L4.01651 11.0424C3.92759 11.0467 3.82864 11.0359 3.70449 11.0072L3.70059 11.0065C3.30458 10.8672 3.01531 10.8398 2.83912 10.9275C2.78115 10.9565 2.74918 10.9961 2.74406 11.046L2.74119 11.0702C2.74119 11.1871 2.84076 11.3435 3.00015 11.4765C3.23677 11.6739 3.41029 11.7934 3.52666 11.8649C3.51703 11.8685 3.50802 11.8714 3.49901 11.8695C3.43385 11.8575 3.36912 11.8557 3.30807 11.8681C3.28737 11.8734 3.26567 11.8801 3.24354 11.8862C3.13025 11.8064 3.01141 11.7141 2.88645 11.6092ZM10.7231 27.4696C10.6243 27.4751 10.5041 27.4942 10.3789 27.5141C10.111 27.5561 9.74914 27.6143 9.62646 27.5125C9.60611 27.4969 9.58174 27.4696 9.57934 27.3927C9.52726 26.6528 9.98843 26.1219 10.2517 25.8539C10.9968 26.8119 11.9708 27.5137 13.0693 27.8339H13.1809C12.6911 27.8593 12.1967 27.8978 11.7015 27.9477C11.6704 27.9204 11.6403 27.8895 11.6364 27.8852L11.613 27.865C11.4907 27.7501 11.1644 27.4463 10.7231 27.4696ZM8.71494 27.9772C8.78278 27.9772 8.85084 27.9642 8.90963 27.9253C8.99033 27.8737 9.04029 27.7879 9.0612 27.6705C9.11816 27.3326 8.83337 26.7026 8.62957 26.5889C8.8463 25.7644 9.32832 25.3057 9.66681 24.9897L9.67664 24.9786C9.80504 25.2116 9.94582 25.4338 10.0978 25.6452C9.81431 25.9304 9.26112 26.5315 9.32239 27.4078C9.32797 27.5348 9.37405 27.6371 9.46274 27.7102C9.67481 27.8838 10.0702 27.8217 10.4182 27.7671C10.5377 27.747 10.6522 27.7298 10.739 27.7235C10.9222 27.7142 11.1732 27.8716 11.3385 27.9892C10.5879 28.0772 9.83394 28.1955 9.09215 28.3427C8.99789 28.2912 8.88298 28.2134 8.81394 28.1312C8.77599 28.0872 8.74426 28.0352 8.71494 27.9772ZM6.72385 23.0651C6.88098 23.03 7.09322 23.0323 7.2084 23.2372L7.33171 23.4505C7.43615 23.6319 7.55643 23.8373 7.56915 23.9152C7.59904 24.1029 7.06434 24.6642 6.7388 24.8385C6.66136 24.8887 6.17684 25.1558 6.12338 25.2303C6.09039 25.2763 6.01786 25.3879 6.01786 25.5186C6.01786 25.5483 6.02258 25.5795 6.0316 25.613C6.06621 25.7355 6.17296 25.8377 6.34299 25.9137C6.79576 26.1156 7.10472 26.22 7.34216 26.2532C7.56625 26.2849 7.80538 26.3993 8.01859 26.5747C8.1655 26.6963 8.28846 26.7529 8.38287 26.7839L8.51361 26.816C8.59614 26.8937 8.81083 27.3101 8.81083 27.5689C8.81083 27.5908 8.81027 27.6113 8.80717 27.6283C8.8037 27.6602 8.79218 27.6994 8.7695 27.713C8.72498 27.7404 8.61113 27.7156 8.51933 27.6922L8.4226 27.6705L8.34373 27.6543L8.23228 27.6371C8.00205 27.6089 7.83711 27.5766 7.82051 27.4491C7.81068 27.382 7.80313 27.3247 7.79041 27.2757C7.68081 26.8328 7.69352 27.0256 7.50109 27.0946C7.4864 27.0989 7.47205 27.1013 7.45975 27.1046C7.3587 27.1297 7.26699 27.1129 6.9572 26.9501C6.81523 26.8765 6.71279 26.7882 6.61424 26.7026C6.50669 26.6102 6.39422 26.5148 6.24487 26.4503L5.90028 26.3212C5.70032 26.2498 5.49299 26.1753 5.3293 26.0883L5.30103 26.074C5.14021 25.9907 4.92428 25.8768 4.89068 25.7273C4.87511 25.6469 4.91014 25.5483 4.99948 25.4346C5.30492 25.0399 5.36086 25.045 5.39076 25.0109C5.43952 24.9897 5.60916 24.8467 5.569 24.7251C5.53561 24.6249 5.43297 24.5119 5.07957 24.5723C4.7104 24.6326 4.46476 24.5247 4.20724 24.4104L4.17385 24.3958C4.26604 24.1689 4.37011 23.9164 4.51024 23.656C4.59669 23.4945 4.69298 23.3519 4.79726 23.2226L4.8708 23.1429C5.35286 23.2596 6.3139 23.1564 6.72385 23.0651ZM8.4734 21.5514C8.37263 21.7343 8.34479 21.7846 8.18989 21.84C8.12947 21.8619 8.10261 21.8552 8.05102 21.8383C7.98749 21.8166 7.90163 21.7884 7.77033 21.8358C7.40322 21.9678 7.41467 22.1602 7.43431 22.4263L7.44251 22.5994C7.44583 22.722 7.47368 22.8127 7.50809 22.878C7.52653 22.9064 7.56915 22.9646 7.63303 23.0127C7.7668 23.0974 7.93117 23.0741 8.03745 23.0235C8.07738 23.0052 8.20034 22.9621 8.33228 22.918C8.50866 22.8583 8.7119 22.7897 8.87535 22.724C9.01124 23.4465 9.24048 24.1299 9.55128 24.7438L9.48775 24.8024C9.12862 25.1405 8.61375 25.6248 8.38225 26.5096C8.32529 26.481 8.26012 26.442 8.18168 26.3785C7.93117 26.1713 7.65168 26.041 7.37842 26.0014C7.10472 25.962 6.7388 25.8113 6.44932 25.682C6.35222 25.6382 6.29157 25.5882 6.27826 25.5416C6.26392 25.4898 6.29732 25.4267 6.33829 25.3739C6.38254 25.3127 6.60215 25.2051 6.86275 25.0671C7.12847 24.9267 7.89246 24.2783 7.82751 23.874C7.80723 23.7533 7.71338 23.5867 7.5589 23.3206L7.43841 23.1124C7.28803 22.8441 7.00616 22.7353 6.66423 22.8114C6.34176 22.8843 5.56962 22.9722 5.09985 22.9196C5.4174 22.659 5.79702 22.5103 6.24015 22.475C6.76113 22.4354 7.22005 22.1493 7.59451 21.8295C7.81867 21.6397 8.28436 21.0587 8.48181 20.6831C8.49106 20.6642 8.49905 20.6467 8.50972 20.6283C8.50866 20.6589 8.50619 20.6881 8.50435 20.7224L8.49905 20.7957C8.48795 20.981 8.55233 21.4067 8.4734 21.5514ZM1.83178 27.7039L1.7947 27.6726L1.55172 27.4684C1.41467 27.3558 1.26081 27.2272 1.21533 27.1814C1.17743 27.1389 1.11884 26.911 1.11884 26.7169C1.11884 26.6851 1.12129 26.6528 1.12539 26.6228C1.14342 26.4779 1.17354 26.3456 1.19566 26.2482C1.19566 26.2482 1.21062 26.1857 1.21656 26.1546C1.25138 26.127 1.39602 26.0771 1.58348 26.097C1.883 26.1295 2.17105 26.1522 2.39948 26.0609C2.64737 25.962 2.82519 25.7684 2.87354 25.5504C3.23329 25.5779 3.66413 25.3035 3.82905 25.1077C3.91796 25.0034 3.99274 24.8385 4.07694 24.6326L4.10236 24.643C4.38445 24.768 4.67618 24.8946 5.12197 24.822C5.16029 24.8154 5.19142 24.8132 5.2197 24.8116C5.14021 24.8609 5.03818 24.9664 4.79378 25.2791C4.6854 25.4212 4.62885 25.557 4.62885 25.6858C4.62885 25.7194 4.63377 25.7506 4.64156 25.7814C4.69872 26.0465 4.97591 26.1914 5.17934 26.2979L5.2072 26.3141C5.38851 26.4097 5.60425 26.4866 5.81363 26.5609L6.14182 26.6851C6.25717 26.7328 6.34299 26.8081 6.4444 26.8949C6.54971 26.9864 6.66915 27.0875 6.83735 27.1756C7.14565 27.3373 7.31801 27.4006 7.52139 27.3522C7.52139 27.3522 7.53289 27.3483 7.54434 27.3461C7.55374 27.3911 7.56237 27.457 7.56569 27.4838C7.60831 27.8154 7.96454 27.8597 8.20035 27.8908L8.30033 27.9033L8.41566 27.9291C8.46584 28.0669 8.52915 28.1955 8.61558 28.2948C8.61558 28.2968 8.69981 28.3614 8.76313 28.4101C8.01696 28.5671 7.28273 28.7534 6.57245 28.9655L5.85029 28.4289H2.13151V28.4101C2.13151 27.954 1.95798 27.8114 1.83178 27.7039ZM23.0974 24.0189C23.1019 24.0352 23.1064 24.0526 23.1117 24.0729C23.065 24.1076 23.0212 24.1453 22.9855 24.181C22.7782 24.2746 22.4686 24.0585 22.3166 23.9517L22.2976 23.9374C21.9679 23.6845 21.6659 23.6319 22.1501 24.0814L22.1679 24.095C22.2976 24.1868 22.542 24.3836 22.7942 24.4362C22.6133 24.7984 22.804 25.1223 22.8796 25.2522L22.906 25.2982C22.9355 25.3587 22.9832 25.4046 23.023 25.445C23.1117 25.5324 23.156 25.5763 23.0974 25.7181C23.0144 25.92 22.5049 25.9156 22.3125 25.9151L22.2535 25.9137C22.0007 25.9137 21.4517 26.0815 21.1698 26.2019C20.9288 26.3029 20.715 26.6051 20.5416 26.8594C20.5001 26.9243 20.3525 27.1269 20.3128 27.1563C20.2892 27.1717 20.2626 27.1791 20.2323 27.174C20.1866 27.1646 20.152 27.1269 20.1442 27.0954L20.08 26.8866C20.0333 26.6767 20.0735 26.5664 19.8201 26.7448L19.8213 26.7464C19.7498 26.774 19.7107 26.759 19.688 26.7448C19.6271 26.7054 19.558 26.6399 19.5886 26.5826C19.5937 26.5747 19.6439 26.4747 19.6439 26.4747C19.8017 26.1898 19.6904 26.2 19.4433 26.2261C19.4178 26.2275 19.3978 26.2315 19.3845 26.2343C19.3526 26.2399 19.2542 26.1796 19.211 26.0625C19.1614 25.9263 19.2266 25.8052 19.3978 25.7116C19.5032 25.6548 19.6189 25.6146 19.7427 25.5862C19.8295 25.5574 19.9551 25.5483 20.0272 25.5387C20.298 25.5111 20.5734 25.519 20.7883 25.5267L21.002 25.5334C21.1927 25.5334 21.5371 25.5028 21.6912 25.3023C21.7418 25.2371 21.7897 25.1276 21.7473 24.9719C21.6895 24.7641 21.5317 24.6001 21.3662 24.4256C21.2581 24.3114 21.1444 24.1922 21.0461 24.051C20.8102 23.7149 20.8004 23.2135 21.0176 22.7068C21.0872 22.5444 21.163 22.4437 21.2374 22.4155C21.2995 22.3895 21.3687 22.4175 21.4666 22.4604L21.5356 22.4892C22.1834 22.7094 23.0267 22.5515 23.3981 22.4612C23.3822 22.5131 23.3637 22.5633 23.3403 22.6041C23.2084 22.8433 23.0105 23.694 23.0974 24.0189ZM18.1119 27.7235C18.1992 27.7298 18.3131 27.747 18.4325 27.7671C18.7812 27.8217 19.1758 27.8838 19.3895 27.7102C19.4784 27.6371 19.5247 27.5348 19.5286 27.4078C19.54 27.2342 19.5286 27.0727 19.4985 26.9203C19.599 27.0069 19.7204 27.0347 19.8506 27.0031C19.861 27.0374 19.875 27.0859 19.8863 27.1226L19.8955 27.1597C19.928 27.2897 20.0465 27.3962 20.1819 27.4236C20.2183 27.4313 20.2559 27.4329 20.2892 27.4285C20.2559 27.6768 20.1793 27.9666 20.0391 28.1312C20.0027 28.173 19.8535 28.2769 19.7537 28.3354C19.0168 28.1903 18.2717 28.0744 17.5256 27.9876C17.676 27.8745 17.9142 27.713 18.1119 27.7235ZM18.7443 25.6357C18.8976 25.4251 19.0352 25.2025 19.1667 24.9694L19.1844 24.9897C19.3007 25.0978 19.4333 25.2231 19.5673 25.3719C19.4634 25.4025 19.3645 25.4391 19.2743 25.4894C19.0834 25.5923 18.9887 25.7273 18.9541 25.8605C18.8789 25.7711 18.8044 25.6966 18.7443 25.6357ZM19.2718 27.3927C19.2692 27.4696 19.2446 27.4969 19.226 27.5125C19.1014 27.6143 18.7392 27.5561 18.4735 27.5141C18.3464 27.4942 18.2286 27.4751 18.127 27.4696C17.6868 27.4463 17.36 27.7501 17.2379 27.865C17.2091 27.8895 17.1773 27.9204 17.1527 27.947C16.6598 27.8954 16.1693 27.8583 15.6824 27.8333H15.7697C16.8708 27.5118 17.8464 26.8069 18.5911 25.844C18.8531 26.112 19.3247 26.6449 19.2718 27.3927ZM25.3794 28.4289H23.0115L22.3238 28.9706C21.6045 28.756 20.862 28.5688 20.1059 28.4084C20.152 28.3747 20.2058 28.3299 20.2352 28.2948C20.4603 28.0318 20.5468 27.5766 20.566 27.2665C20.5691 27.2624 20.572 27.262 20.5767 27.2561L20.7305 27.0374C20.8821 26.8174 21.0872 26.5124 21.2699 26.4343C21.5541 26.3146 22.0634 26.1692 22.2535 26.1692H22.309C22.5965 26.172 23.1883 26.1763 23.3373 25.8125C23.4565 25.5156 23.3008 25.3591 23.2058 25.2655C23.1759 25.2359 23.1488 25.2067 23.1361 25.184L23.1031 25.1243C23.0039 24.9569 22.8483 24.6922 23.1418 24.3836C23.1509 24.3814 23.1568 24.3777 23.166 24.3726C23.182 24.3607 23.1967 24.3448 23.2033 24.3292C23.3625 24.7156 23.6669 25.2879 24.1285 25.6382C24.8222 26.1654 25.3468 26.2465 25.4915 26.2581C25.7287 26.2778 26.061 26.335 26.1587 26.3665C26.2167 26.3848 26.3638 26.5668 26.3786 26.7529C26.4056 27.0771 26.3171 27.3 26.1129 27.4181C25.7621 27.6235 25.373 28.074 25.3741 28.3717C25.3741 28.3934 25.3759 28.4101 25.3794 28.4289ZM21.7315 21.2153C21.7322 21.2162 21.734 21.2174 21.734 21.219C21.9581 21.4652 22.467 21.6013 22.7517 21.6604C22.9982 21.7121 23.2322 21.8079 23.4086 21.9021C23.4346 21.9861 23.4444 22.0859 23.4405 22.1874C23.1783 22.2588 22.2732 22.4715 21.6231 22.2499L21.5703 22.227C21.459 22.1789 21.3093 22.1127 21.1417 22.1777C20.9991 22.2333 20.8811 22.3745 20.7825 22.6077C20.5285 23.1946 20.5486 23.7886 20.8348 24.1963C20.9446 24.3536 21.0696 24.485 21.1794 24.6001C21.3294 24.7576 21.459 24.8926 21.4998 25.0391C21.5166 25.0985 21.5023 25.1276 21.4859 25.1479C21.426 25.2268 21.2368 25.2784 21.002 25.2784L20.7975 25.2723C20.5353 25.2629 20.1866 25.2506 19.8494 25.3051C19.6806 25.1028 19.5067 24.9407 19.3616 24.8024L19.2905 24.7342C19.6806 23.9584 19.944 23.0757 20.0477 22.1365C20.085 22.1322 20.1221 22.1247 20.1557 22.1111C20.1706 22.1298 20.1855 22.1501 20.1855 22.1501C20.2851 22.2696 20.4804 22.3808 20.6597 22.3624C20.8926 22.3398 21.0696 21.9814 21.1001 21.6634C21.1145 21.5054 21.1636 21.4857 21.274 21.444L21.3646 21.4047L21.508 21.3349C21.7147 21.2363 21.4765 21.3456 21.7315 21.2153ZM9.25949 21.0851C9.272 20.8462 9.30253 20.5493 9.35645 20.2958C9.39065 20.1323 9.42423 19.9797 9.43921 19.8604C9.4732 19.5717 9.42422 19.4399 9.26175 19.2866C9.51191 18.3684 9.92984 17.4992 10.4908 16.7731C11.5149 15.4477 12.9098 14.7193 14.4187 14.7193C15.9241 14.7193 17.3197 15.4477 18.3455 16.7731C19.0721 17.7157 19.5618 18.8979 19.7531 20.1205L19.6201 20.2433C19.452 20.3912 19.2633 20.5601 19.1948 20.779L19.1868 20.7984C19.1316 20.9741 19.0911 21.0987 19.0911 21.2042C19.0911 21.2632 19.1039 21.3154 19.1354 21.3668C19.2151 21.5092 19.3286 21.548 19.4178 21.565C19.4399 21.5674 19.4565 21.635 19.4565 21.6853C19.4565 21.6916 19.4565 21.6992 19.4558 21.7067C19.452 21.7174 19.452 21.7315 19.452 21.7446C19.452 21.8444 19.4985 21.992 19.7443 22.0904C19.7591 22.0959 19.7758 22.0987 19.7924 22.1042C19.4399 25.2942 17.1654 27.7732 14.4187 27.7732C11.8169 27.7732 9.6406 25.5504 9.11689 22.6091C9.3486 22.4612 9.31751 22.1981 9.29801 22.0387L9.28883 21.9364C9.28883 21.7775 9.23674 21.4837 9.25949 21.0851ZM11.7092 13.5693C11.6762 13.5225 11.6479 13.4853 11.6261 13.4616C11.6335 13.4277 11.6393 13.393 11.6393 13.3555C11.6393 13.1 11.4278 12.8917 11.1685 12.8917C11.138 12.8917 11.1062 12.8956 11.0739 12.9014C11.1144 12.8286 11.1363 12.7454 11.1363 12.6581C11.1363 12.3596 10.8907 12.1159 10.5889 12.1159C10.5721 12.1159 10.5553 12.1179 10.5393 12.1188C10.6118 12.0146 10.6545 11.8892 10.6545 11.7518C10.6545 11.46 10.4578 11.2126 10.1886 11.1316C10.4004 11.0239 10.5451 10.8061 10.5451 10.5543C10.5451 10.4857 10.5357 10.4204 10.5152 10.3593C10.6166 10.4134 10.7296 10.4433 10.852 10.4433C11.2049 10.4433 11.4977 10.1868 11.5518 9.85176C11.6505 9.99155 11.814 10.0823 11.999 10.0823C12.1781 10.0823 12.335 9.99687 12.4352 9.86597C12.4737 10.0841 12.6663 10.252 12.8968 10.252C13.099 10.252 13.2698 10.1261 13.3366 9.95081L13.3382 9.95263L13.521 10.9244C13.1336 10.6894 12.4772 10.3585 11.8152 10.4433C11.4536 10.491 11.1767 10.6608 11.0324 10.9244C10.8366 11.2844 10.9222 11.7593 11.2678 12.2261C11.7114 12.8276 12.0627 13.1786 12.2842 13.3392L12.2953 13.3485C12.0961 13.4129 11.9002 13.4865 11.7092 13.5693ZM11.1685 13.5681C11.0529 13.5681 10.9562 13.4729 10.9562 13.3555C10.9562 13.2412 11.0529 13.146 11.1685 13.146C11.2867 13.146 11.3818 13.2412 11.3818 13.3555C11.3818 13.4729 11.2867 13.5681 11.1685 13.5681ZM10.5889 12.9463C10.4287 12.9463 10.298 12.8166 10.298 12.6581C10.298 12.4994 10.4287 12.3708 10.5889 12.3708C10.7485 12.3708 10.8786 12.4994 10.8786 12.6581C10.8786 12.8166 10.7485 12.9463 10.5889 12.9463ZM9.9993 12.1482C9.77925 12.1482 9.6004 11.97 9.6004 11.7518C9.6004 11.5347 9.77925 11.3575 9.9993 11.3575C10.2183 11.3575 10.3979 11.5347 10.3979 11.7518C10.3979 11.97 10.2183 12.1482 9.9993 12.1482ZM9.49263 10.5543C9.49263 10.3366 9.66965 10.1596 9.89034 10.1596C10.1103 10.1596 10.2904 10.3366 10.2904 10.5543C10.2904 10.7733 10.1103 10.9504 9.89034 10.9504C9.66965 10.9504 9.49263 10.7733 9.49263 10.5543ZM10.852 9.29127C11.1011 9.29127 11.3052 9.49357 11.3052 9.74095C11.3052 9.98833 11.1011 10.1897 10.852 10.1897C10.6016 10.1897 10.3988 9.98833 10.3988 9.74095C10.3988 9.49357 10.6016 9.29127 10.852 9.29127ZM11.999 9.25305C12.1599 9.25305 12.2881 9.38234 12.2881 9.54124C12.2881 9.69993 12.1599 9.82964 11.999 9.82964C11.838 9.82964 11.7092 9.69993 11.7092 9.54124C11.7092 9.38234 11.838 9.25305 11.999 9.25305ZM12.8968 9.57596C13.0149 9.57596 13.1117 9.67074 13.1117 9.78638C13.1117 9.9023 13.0149 9.99806 12.8968 9.99806C12.78 9.99806 12.6851 9.9023 12.6851 9.78638C12.6851 9.67074 12.78 9.57596 12.8968 9.57596ZM14.0166 9.33306C14.0166 9.26992 14.0942 9.2604 14.1419 9.2604H14.708C14.7547 9.2604 14.8342 9.26992 14.8342 9.33306C14.8342 9.51485 14.9759 9.76167 15.29 9.81319L14.6885 13.0135L14.6928 13.0167C14.6049 13.0125 14.5167 13.0096 14.4269 13.0096C14.3425 13.0096 14.2581 13.0125 14.1733 13.0167V13.0135L13.5728 9.81116C13.8771 9.75593 14.0166 9.5124 14.0166 9.33306ZM14.9442 13.0298L14.9479 13.0279L15.283 11.2329C15.5728 11.0442 16.3088 10.5695 17.0097 10.6594C17.2811 10.6955 17.491 10.8206 17.5958 11.0154C17.7542 11.3084 17.676 11.707 17.376 12.1104C16.8335 12.8487 16.4242 13.1752 16.2865 13.2549L16.2794 13.2633C15.8448 13.1411 15.3972 13.064 14.9442 13.0298ZM12.5778 13.2544C12.4399 13.1752 12.0289 12.8473 11.4854 12.1104C11.1865 11.707 11.1072 11.3084 11.266 11.0154C11.3719 10.8206 11.5796 10.6955 11.8537 10.6594C12.554 10.5695 13.2897 11.0446 13.5792 11.2329L13.9162 13.0279V13.0298C13.464 13.0622 13.0195 13.1401 12.5851 13.261L12.5778 13.2544ZM16.8988 14.3066C16.1188 13.9492 15.283 13.7664 14.4187 13.7664C13.5658 13.7664 12.7441 13.9433 11.9713 14.2907C11.9472 14.1067 11.8935 13.9377 11.8204 13.7974C12.6462 13.4435 13.522 13.2641 14.4269 13.2641C15.3431 13.2641 16.2312 13.4481 17.0675 13.81C16.9861 13.9519 16.9302 14.1221 16.8988 14.3066ZM16.9419 15.1699C16.1706 14.7078 15.3142 14.4649 14.4187 14.4649C13.5306 14.4649 12.6796 14.7044 11.9142 15.1571C11.9672 14.9599 11.9927 14.7559 11.9902 14.5621C12.7533 14.2019 13.5706 14.0205 14.4187 14.0205C15.2761 14.0205 16.1026 14.2083 16.8741 14.5751C16.8704 14.7713 16.8897 14.9737 16.9419 15.1699ZM15.5246 9.95263L15.5285 9.94612C15.5949 10.1239 15.7678 10.252 15.9702 10.252C16.2019 10.252 16.3943 10.0841 16.4322 9.86597C16.5313 9.99687 16.6909 10.0823 16.8692 10.0823C17.0533 10.0823 17.2178 9.99155 17.316 9.85176C17.3717 10.1868 17.6642 10.4433 18.0171 10.4433C18.1377 10.4433 18.2532 10.4134 18.3512 10.3593C18.3327 10.4204 18.3213 10.4857 18.3213 10.5543C18.3213 10.8061 18.4663 11.0239 18.6773 11.1316C18.4088 11.2126 18.2141 11.46 18.2141 11.7518C18.2141 11.8892 18.2566 12.0146 18.3286 12.1188C18.3131 12.1179 18.2953 12.1159 18.2799 12.1159C17.9783 12.1159 17.7325 12.3596 17.7325 12.6581C17.7325 12.7454 17.7542 12.8286 17.7911 12.9014C17.761 12.8956 17.73 12.8917 17.6981 12.8917C17.4389 12.8917 17.2293 13.1 17.2293 13.3555C17.2293 13.3989 17.2363 13.4399 17.2457 13.4774C17.2214 13.502 17.1804 13.5438 17.1533 13.5711C16.9601 13.4887 16.7671 13.4155 16.5695 13.3506L16.5787 13.3392C16.7999 13.1786 17.1527 12.8276 17.5958 12.2261C17.9394 11.7593 18.0244 11.2844 17.8296 10.9244C17.6868 10.6608 17.4098 10.491 17.047 10.4433C16.385 10.3585 15.7287 10.6894 15.3413 10.9244L15.5246 9.95263ZM15.9702 9.57596C16.0874 9.57596 16.1828 9.67074 16.1828 9.78638C16.1828 9.9023 16.0874 9.99806 15.9702 9.99806C15.8524 9.99806 15.7569 9.9023 15.7569 9.78638C15.7569 9.67074 15.8524 9.57596 15.9702 9.57596ZM16.8692 9.25305C17.0287 9.25305 17.1583 9.38234 17.1583 9.54124C17.1583 9.69993 17.0287 9.82964 16.8692 9.82964C16.7087 9.82964 16.5774 9.69993 16.5774 9.54124C16.5774 9.38234 16.7087 9.25305 16.8692 9.25305ZM18.0171 9.29127C18.2669 9.29127 18.4698 9.49357 18.4698 9.74095C18.4698 9.98833 18.2669 10.1897 18.0171 10.1897C17.7659 10.1897 17.5639 9.98833 17.5639 9.74095C17.5639 9.49357 17.7659 9.29127 18.0171 9.29127ZM18.9764 10.1596C19.1971 10.1596 19.3782 10.3366 19.3782 10.5543C19.3782 10.7733 19.1971 10.9504 18.9764 10.9504C18.7586 10.9504 18.579 10.7733 18.579 10.5543C18.579 10.3366 18.7586 10.1596 18.9764 10.1596ZM19.2676 11.7518C19.2676 11.97 19.0877 12.1482 18.8699 12.1482C18.6478 12.1482 18.4698 11.97 18.4698 11.7518C18.4698 11.5347 18.6478 11.3575 18.8699 11.3575C19.0877 11.3575 19.2676 11.5347 19.2676 11.7518ZM18.2799 12.9463C18.1188 12.9463 17.9882 12.8166 17.9882 12.6581C17.9882 12.4994 18.1188 12.3708 18.2799 12.3708C18.4387 12.3708 18.5704 12.4994 18.5704 12.6581C18.5704 12.8166 18.4387 12.9463 18.2799 12.9463ZM17.6981 13.5681C17.5803 13.5681 17.4856 13.4729 17.4856 13.3555C17.4856 13.2412 17.5803 13.146 17.6981 13.146C17.815 13.146 17.9121 13.2412 17.9121 13.3555C17.9121 13.4729 17.815 13.5681 17.6981 13.5681ZM19.6681 18.6738L20.7791 18.7436C20.7844 18.9613 20.8252 19.2284 20.9285 19.56C20.8102 19.6199 20.6791 19.6777 20.5676 19.7116C20.43 19.7547 20.1866 19.8107 19.9832 19.9322C19.9059 19.5044 19.7945 19.0835 19.6523 18.6744L19.6681 18.6738ZM19.1891 17.0886C19.2651 17.4631 19.5718 17.8301 19.9647 17.8395C20.1855 17.846 20.378 17.7194 20.5468 17.5459C20.5633 17.6843 20.6154 17.7953 20.7012 17.8716C20.7825 17.942 20.8764 17.9757 20.9698 17.9907C20.8989 18.112 20.827 18.2687 20.7957 18.4891L19.5532 18.4124C19.3714 17.9442 19.1455 17.499 18.8789 17.0852C18.9764 17.0956 19.0813 17.0972 19.1891 17.0886ZM20.9698 15.9029L21.5092 15.8698C22.1804 15.8213 23.05 15.5456 23.3975 14.5126L23.4061 14.4866C23.4764 14.2884 23.4362 13.9368 23.4328 13.8975L23.4125 13.7331L23.257 13.7939C23.0951 13.8577 22.569 13.9914 22.4051 14.0028C22.2773 14.0121 21.8872 14.0403 21.5371 14.2997L21.5195 14.3131L21.507 14.3315C21.4998 14.343 21.4804 14.3586 21.4666 14.3593C21.4504 14.3593 21.413 14.3369 21.3669 14.2729C21.2482 14.1083 21.1444 13.9914 21.0885 13.9283C21.0885 13.9283 21.0757 13.9123 21.0655 13.8995C21.0667 13.8688 21.1067 13.8063 21.274 13.7639L21.459 13.725C21.6741 13.6819 21.8952 13.6395 21.9081 13.2982V13.2844C21.9081 13.1807 21.8596 13.0892 21.7723 13.019C21.5461 12.8416 21.0846 12.8454 20.8897 12.8989L20.8834 12.8996L20.8777 12.9014C20.8584 12.9094 20.8475 12.9094 20.844 12.9094C20.8436 12.9084 20.8211 12.8903 20.7953 12.8012C20.776 12.7393 20.7674 12.6945 20.7674 12.664C20.7674 12.6093 20.7883 12.5936 20.7975 12.5861C20.8777 12.5185 20.9047 12.4392 20.9047 12.3584C20.9047 12.2448 20.8497 12.1315 20.8176 12.0638L20.7895 12.0065C20.776 11.97 20.7483 11.9058 20.7483 11.8586C20.7483 11.8442 20.7512 11.8324 20.7565 11.8229C20.7693 11.7989 20.8102 11.7776 20.8731 11.7663C21.0407 11.7311 21.2038 11.7405 21.348 11.7484C21.4631 11.7557 21.5709 11.7614 21.6695 11.7451C21.7784 11.7263 21.8917 11.6697 22.0007 11.6139C22.112 11.5578 22.226 11.5006 22.3125 11.497C22.4418 11.4886 22.7257 11.497 22.9544 11.5016L23.2824 11.5067C23.5075 11.5067 24.2408 11.2733 24.4917 11.0245C24.5229 10.9916 24.5641 10.9645 24.5831 10.9616C24.5848 10.9646 24.5898 10.9687 24.5898 10.9687C24.6284 11.031 24.655 11.1688 24.6821 11.3011C24.7134 11.4787 24.7535 11.6802 24.84 11.8249C24.9318 11.9816 25.0717 12.1143 25.2037 12.2434C25.2889 12.3247 25.3702 12.4033 25.4313 12.4807C25.4915 12.5571 25.5656 12.7302 25.6365 12.898C25.7472 13.1564 25.8588 13.4232 26.0014 13.5592C26.1719 13.7176 26.5898 14.1089 27.0202 14.0219C27.0136 14.0296 27.011 14.0369 27.0067 14.0444L26.8835 14.157C26.7262 14.2884 26.5654 14.4218 26.5654 14.5789V14.5968C26.5804 14.7653 26.6338 14.8701 26.673 14.9349L26.6818 14.9499C26.6951 14.971 26.7101 14.994 26.7101 15.0258C26.7101 15.064 26.6881 15.1169 26.6137 15.1942C26.4506 15.3649 26.3959 15.4712 26.3959 15.5774C26.3959 15.6316 26.4109 15.6849 26.4318 15.7462L26.4357 15.7653C26.4519 15.8077 26.4777 15.8804 26.4777 15.9159C26.4777 15.9216 26.4761 15.9248 26.4761 15.9285C26.4742 15.9285 26.4685 15.9323 26.4685 15.9323L26.4277 15.9544C26.3407 16.0015 26.3187 16.0137 26.2587 16.0283L26.2357 16.0328C25.9459 16.0961 25.7971 16.2552 25.7971 16.507C25.7971 16.5216 25.7971 16.5356 25.7978 16.5521L25.8053 16.6424C25.8088 16.699 25.8139 16.7564 25.8139 16.7936C25.8139 16.8092 25.8121 16.8182 25.8105 16.8263C25.8037 16.8301 25.792 16.8364 25.757 16.8459L25.6836 16.8652C25.5113 16.9042 25.252 16.9653 25.2284 17.4391L25.2204 17.6272C25.21 17.9913 25.1916 18.1644 25.0781 18.1784C24.8642 18.2032 24.707 18.0213 24.6833 17.9698C24.6628 17.9223 24.6216 17.7616 24.6159 17.7411C24.454 17.251 24.5062 17.3677 24.2747 17.7993C24.2408 17.8582 24.2072 17.9367 24.1553 18.0321C23.9699 18.3716 23.855 18.4181 23.7751 18.4745L23.7208 18.5038C23.7052 18.5115 23.6778 18.5115 23.6651 18.5086C23.6368 18.4954 23.6002 18.4433 23.5718 18.3306C23.5284 18.1402 23.4885 17.8899 23.4696 17.653C23.4553 17.3107 23.8216 16.9523 23.0808 17.5389C23.0808 17.5389 22.9855 17.5996 22.9326 17.6317C22.8368 17.6915 22.2722 17.9396 22.112 18.0053C22.0564 18.0282 21.8669 18.0425 21.8653 17.9946C21.8653 17.9876 21.8653 17.9673 21.8751 17.9323C21.8764 17.9253 21.8767 17.9203 21.878 17.914C21.9679 17.6037 22.112 17.6696 21.5992 17.7194L21.3542 17.7314L21.2794 17.7373C21.1473 17.7484 20.9663 17.7642 20.8743 17.6827C20.827 17.64 20.8004 17.5669 20.7975 17.4647C20.7883 16.9985 21.1386 16.7601 21.3756 16.7116C21.6895 16.6493 22.9001 16.5207 23.4362 16.4738C23.8759 16.4376 24.6751 16.2694 25.0941 15.565C25.2463 15.3087 25.4341 14.2634 25.2969 13.6562C25.2538 13.4626 25.052 13.1602 25.1754 13.7134C25.2989 14.2433 25.0027 15.2182 24.8715 15.4353C24.5118 16.0411 23.8033 16.187 23.4137 16.2211C22.8852 16.2668 21.6592 16.3966 21.3246 16.4614C21.0366 16.519 20.7492 16.73 20.6189 17.0539C20.5001 17.2187 20.2323 17.5924 19.9717 17.5852C19.6646 17.5771 19.4265 17.2146 19.4265 16.9087C19.4011 15.9869 19.859 15.9621 20.9698 15.9029ZM31.0014 17.4712C31.0014 17.3793 31.0326 17.2788 31.0752 17.1966C31.1282 17.1103 31.1889 16.9961 31.1889 16.8875C31.1889 16.8423 31.178 16.7976 31.1546 16.7564C31.0648 16.6033 30.8561 16.6114 30.7064 16.6166L30.6159 16.617C30.574 16.6069 30.4696 16.5663 30.3678 16.5259C30.1842 16.4526 29.9804 16.3697 29.8351 16.3524C29.7175 16.3368 29.5718 16.3749 29.4039 16.418C29.2278 16.4636 29.0261 16.5158 28.8663 16.4967C28.7206 16.4792 28.5191 16.3984 28.3427 16.3266C27.8538 16.1401 27.4037 16.242 27.0915 16.3589C26.6397 16.5401 26.3015 16.838 26.0905 17.2405C25.6785 18.0321 25.852 19.0545 26.1862 19.6702C26.3266 19.9229 26.8163 20.7421 27.0749 21.0926C27.0811 21.1025 27.0915 21.1104 27.1013 21.1192C27.096 21.1206 27.0915 21.121 27.0915 21.121C26.7233 21.2691 26.6693 21.7024 26.6693 21.948C26.6693 22.032 26.6748 22.0955 26.6771 22.1164C26.692 22.2516 26.7393 22.3372 26.8156 22.3674C26.8651 22.3888 26.9211 22.3808 26.9653 22.3493C26.9678 22.3473 27.1866 22.187 27.4892 22.2152C27.7418 22.2387 28.2158 22.4168 28.2158 22.9222C28.2158 23.3989 27.8207 23.9292 27.2921 23.9292C26.8363 23.9292 26.5689 23.7133 26.5021 23.4684C26.4611 22.9862 26.3022 22.5759 26.229 22.4604C26.1942 22.4082 26.153 22.3687 26.1079 22.3267C25.9623 22.1862 25.7398 21.9749 25.6867 21.0483C25.6287 20.027 25.21 19.0551 24.9021 18.4191C24.967 18.4343 25.0362 18.4392 25.1084 18.4311C25.4544 18.3899 25.4671 18.0053 25.4771 17.6353L25.486 17.4529C25.4995 17.1688 25.5898 17.1473 25.7421 17.1128L25.834 17.0891C26.0313 17.0284 26.0698 16.9395 26.0698 16.7859C26.0698 16.7394 26.0661 16.6854 26.061 16.6254L26.0559 16.5352V16.5081C26.0559 16.3615 26.1389 16.3146 26.2911 16.282L26.3206 16.2745C26.412 16.2528 26.4593 16.2266 26.5517 16.1787L26.593 16.1555C26.7008 16.0969 26.7303 16.009 26.7303 15.9194C26.7303 15.8333 26.7014 15.746 26.6818 15.6835L26.6748 15.6655C26.6621 15.6321 26.6564 15.608 26.6564 15.5833C26.6564 15.5332 26.6882 15.4858 26.8004 15.3706C26.9291 15.235 26.9683 15.1169 26.9683 15.024C26.9683 14.9215 26.9211 14.8486 26.899 14.8135L26.8922 14.8048C26.8657 14.7585 26.8322 14.6913 26.8236 14.5816C26.8346 14.5302 26.9785 14.4093 27.0489 14.3498L27.1974 14.2165C27.2648 14.1406 27.2978 14.0415 27.2978 13.9539C27.2978 13.888 27.28 13.8257 27.246 13.786C27.1958 13.725 27.1145 13.7095 27.0454 13.7494L27.0567 13.7437C26.773 13.8803 26.4408 13.6178 26.1798 13.3753C26.0768 13.2763 25.9686 13.023 25.8732 12.7994C25.7881 12.5989 25.7154 12.4254 25.633 12.3227C25.5615 12.2324 25.471 12.1445 25.3825 12.0605C25.2606 11.9434 25.1374 11.8232 25.0613 11.6958C24.9963 11.5877 24.9629 11.4105 24.9318 11.2542C24.9016 11.0898 24.8701 10.9364 24.8056 10.8341C24.7457 10.7363 24.665 10.711 24.6099 10.7053C24.455 10.6929 24.3307 10.8238 24.3059 10.85C24.1191 11.0347 23.461 11.2522 23.2824 11.2522L22.9597 11.2463C22.7147 11.2404 22.4381 11.2347 22.2976 11.2422C22.1587 11.2494 22.0196 11.3196 21.8842 11.3867C21.7928 11.4336 21.6965 11.4817 21.6269 11.4929C21.5566 11.5049 21.4666 11.5006 21.3628 11.4931C21.2107 11.4856 21.0217 11.4756 20.8211 11.5158C20.6791 11.5456 20.582 11.6079 20.5302 11.7017C20.4501 11.8511 20.5168 12.0185 20.5505 12.0983C20.5505 12.1003 20.5842 12.1741 20.5842 12.1741C20.6401 12.2894 20.6668 12.3624 20.631 12.3915C20.4501 12.5449 20.5232 12.7913 20.5468 12.872C20.5734 12.9612 20.6205 13.0825 20.7289 13.1366C20.7975 13.1722 20.8777 13.1732 20.9675 13.1405L20.9584 13.1442C21.1218 13.1 21.4797 13.1149 21.6129 13.2188C21.6486 13.2467 21.6508 13.2678 21.6508 13.2889C21.6452 13.4246 21.6297 13.4318 21.4089 13.4738L21.2089 13.5176C20.9584 13.5823 20.862 13.7049 20.827 13.7966C20.7953 13.8792 20.7975 13.9695 20.8395 14.0273L20.8959 14.0961C20.9526 14.1591 21.0461 14.2668 21.1589 14.4216C21.274 14.5822 21.3929 14.6144 21.4709 14.6134C21.5709 14.6116 21.6508 14.557 21.6994 14.4996C21.9562 14.3112 22.2355 14.2703 22.4256 14.2573C22.5836 14.2453 22.9511 14.157 23.1883 14.086V14.1627C23.1883 14.255 23.1839 14.3464 23.1637 14.4024L23.1541 14.4326C22.9095 15.1547 22.3502 15.5522 21.4914 15.6165L20.9536 15.6482C19.8842 15.7059 19.169 15.7444 19.169 16.834C18.9965 16.8476 18.8365 16.8301 18.6941 16.7936L18.6843 16.8017C18.6406 16.7406 18.5956 16.6785 18.5505 16.6191C18.1737 16.1352 17.7507 15.7265 17.2961 15.3996C17.0011 14.766 17.1318 13.9932 17.4467 13.7481C17.5204 13.7939 17.6056 13.8216 17.6981 13.8216C17.9576 13.8216 18.1655 13.6133 18.1655 13.3555C18.1655 13.2933 18.1549 13.2341 18.1306 13.1799C18.1789 13.1923 18.2286 13.2008 18.2799 13.2008C18.5806 13.2008 18.8261 12.9567 18.8261 12.6581C18.8261 12.5612 18.8001 12.4696 18.7548 12.3907C18.7908 12.397 18.8295 12.401 18.8687 12.401C19.2307 12.401 19.5247 12.1098 19.5247 11.7518C19.5247 11.5016 19.3782 11.2828 19.1674 11.1761C19.4376 11.0952 19.6324 10.8465 19.6324 10.5543C19.6324 10.1973 19.339 9.90573 18.9764 9.90573C18.8721 9.90573 18.772 9.93051 18.6843 9.97573C18.7107 9.90146 18.7251 9.82397 18.7251 9.74095C18.7251 9.35294 18.4073 9.0378 18.0171 9.0378C17.7495 9.0378 17.5186 9.18487 17.3963 9.4004C17.3336 9.16989 17.1201 9 16.8692 9C16.5873 9 16.3551 9.21252 16.325 9.48342C16.24 9.38521 16.1124 9.32228 15.9702 9.32228C15.7747 9.32228 15.6092 9.43939 15.5377 9.60683H15.4131C15.146 9.60683 15.0905 9.3913 15.0905 9.33306C15.0905 9.16254 14.9346 9.04347 14.708 9.04347H14.1419C13.9162 9.04347 13.7588 9.16254 13.7588 9.33306C13.7588 9.3913 13.7046 9.60683 13.4355 9.60683H13.33C13.2592 9.43939 13.0928 9.32228 12.8968 9.32228C12.7566 9.32228 12.6296 9.38521 12.5423 9.48342C12.5143 9.21252 12.2795 9 11.999 9C11.7464 9 11.534 9.16989 11.4702 9.4004C11.3502 9.18487 11.1189 9.0378 10.852 9.0378C10.4596 9.0378 10.1429 9.35294 10.1429 9.74095C10.1429 9.82397 10.157 9.90146 10.1843 9.97573C10.0955 9.93051 9.99641 9.90573 9.89034 9.90573C9.52973 9.90573 9.23575 10.1973 9.23575 10.5543C9.23575 10.8465 9.43178 11.0952 9.70017 11.1761C9.48775 11.2828 9.34415 11.5016 9.34415 11.7518C9.34415 12.1098 9.63749 12.401 9.9993 12.401C10.039 12.401 10.0759 12.397 10.1128 12.3907C10.0667 12.4696 10.0419 12.5612 10.0419 12.6581C10.0419 12.9567 10.2867 13.2008 10.5889 13.2008C10.6395 13.2008 10.6879 13.1923 10.7352 13.1799C10.713 13.2341 10.7005 13.2933 10.7005 13.3555C10.7005 13.6133 10.9103 13.8216 11.1681 13.8216C11.2724 13.8216 11.3663 13.7887 11.444 13.7331C11.7743 13.9805 11.8341 14.7825 11.5627 15.3862C11.096 15.7152 10.6682 16.1282 10.288 16.6191C9.81677 17.2285 9.44167 17.9339 9.17999 18.6858C9.23575 18.2224 9.19193 17.8127 9.04191 17.4631C8.56724 16.3435 7.5601 15.9216 6.88774 15.5883L6.54111 15.4091C5.99944 15.1019 5.7372 14.7575 5.56388 14.5299L5.4426 14.3776C5.43706 14.3703 5.43297 14.3649 5.42785 14.3593C5.44116 14.3618 5.45428 14.3675 5.4682 14.3703C5.66324 14.4006 5.95846 14.5035 6.11436 14.622L6.32374 14.7965C6.503 14.9499 6.6251 15.0524 6.69025 15.0901C6.8775 15.193 7.18995 15.1719 7.31983 15.0628C7.37658 15.015 7.39396 14.9487 7.39396 14.8836C7.39396 14.7965 7.36223 14.71 7.34909 14.671C7.33637 14.6398 7.32881 14.6161 7.32308 14.595C7.33171 14.599 7.34047 14.6031 7.34725 14.6059L7.45975 14.652C7.65741 14.7078 7.84079 14.5761 7.93506 14.4229C8.04692 14.2412 8.02558 13.9265 7.7162 13.6657C7.55763 13.5334 7.1012 13.0904 6.73717 12.7337C6.44769 12.4513 6.21782 12.2271 6.14591 12.1662C6.0781 12.1098 5.97116 11.987 5.92445 11.9237C5.96173 11.8241 5.99021 11.707 5.92507 11.6209C5.85418 11.5306 5.73905 11.5456 5.67657 11.5528C5.67657 11.5528 5.64502 11.5564 5.64215 11.5564C5.63436 11.5548 5.62759 11.5528 5.62759 11.5528C5.61673 11.5505 5.60424 11.5485 5.59317 11.5467L5.58334 11.5493C5.57863 11.5491 5.57248 11.5485 5.56388 11.5473C5.63722 11.3825 5.7204 11.141 5.80398 10.814C5.89556 10.4508 5.84374 10.1283 5.65977 9.92967C5.52988 9.78764 5.33688 9.72513 5.13099 9.75817C4.80074 9.81116 4.53687 10.0638 4.36335 10.2748L4.29656 10.0701L4.16462 10.1125L3.5365 10.3128L3.60841 10.5348C3.34105 10.4594 2.96081 10.3973 2.65125 10.5508C2.46401 10.6436 2.34354 10.8061 2.32183 10.9979C2.28925 11.2648 2.43635 11.5554 2.72624 11.7979C2.83338 11.8862 2.92804 11.96 3.01264 12.0201C2.99462 12.0323 2.97802 12.0435 2.96593 12.0532C2.87764 12.1275 2.7955 12.2121 2.72174 12.2888L2.62462 12.3907C2.18805 12.7763 1.62036 13.0486 1.07458 13.1178C1.00268 13.1237 0.943268 13.1768 0.930774 13.2505C0.908033 13.3824 1.05041 13.5379 1.28089 13.6363C1.51362 13.7343 1.56218 14.0369 1.44642 14.6489L1.44151 14.6733C1.43086 14.7277 1.41119 14.8182 1.48309 14.8848C1.56095 14.9576 1.67731 14.9426 1.87788 14.8874L1.91558 14.8777C1.94119 14.8701 1.97007 14.8617 1.99486 14.8561C1.98748 14.888 1.97703 14.9322 1.96843 14.9655L1.95552 15.0244L1.94467 15.0859C1.91721 15.2251 1.88484 15.3986 1.88484 15.5571C1.88484 15.6499 1.89632 15.7359 1.92582 15.8104C2.00449 16.0045 2.19665 16.3128 2.30584 16.4216C2.37468 16.4886 2.44557 16.5207 2.51911 16.5174C2.62892 16.5115 2.70657 16.435 2.7539 16.3769C2.7539 16.3769 2.75738 16.3729 2.75964 16.3709C2.77418 16.3999 2.78893 16.4395 2.81372 16.5013L2.8166 16.5151C2.89076 16.728 3.0483 17.1724 3.65613 17.3527C3.76575 17.3849 3.89194 17.4139 4.00339 17.3527C4.08329 17.3066 4.13696 17.224 4.17036 17.0961C4.18531 17.0328 4.19085 16.9653 4.19802 16.8989C4.20027 16.8833 4.2015 16.8652 4.20252 16.8478C4.21543 16.8577 4.22567 16.8713 4.24043 16.8882C4.45943 17.1836 4.78988 17.8379 4.78988 18.5598C4.78988 18.7454 4.76796 18.9354 4.71736 19.1241C4.63377 19.4252 4.534 19.652 4.44509 19.8518C4.37932 19.9955 4.33282 20.1349 4.28079 20.2687C4.09661 20.4594 3.6541 20.7021 3.36012 20.8635L3.18207 20.9621C2.89956 21.121 2.06123 21.938 2.0008 23.0162C1.99854 23.0363 1.99855 23.0554 1.99671 23.0741C1.50092 23.2418 1.17354 23.2163 0.996946 23C0.619372 22.5385 0.904344 22.078 1.31776 21.5246L1.44581 21.3491L1.57426 21.177C1.57426 21.177 1.68633 21.038 1.69576 21.0242C1.70211 21.0526 1.70722 21.0812 1.71398 21.1151L1.7646 21.3345L1.80761 21.5078C1.841 21.658 1.94118 21.6884 1.98154 21.6941C2.04033 21.7024 2.13724 21.801 2.39128 21.3286C2.44618 21.2275 2.54985 21.0542 2.66621 20.8756L2.86043 20.5743C3.06284 20.2455 3.01532 20.0223 2.69613 19.8058C2.57014 19.7209 2.57975 19.6767 2.68793 19.4667L2.72337 19.4029C2.82232 19.2045 3.23431 17.9158 2.6363 17.0022C2.2196 16.3636 1.63121 15.7716 0.832434 15.952C0.378035 16.0557 0.0766729 16.2264 -0.215675 16.392C-0.501467 16.5553 -0.7723 16.7114 -1.1673 16.7682C-1.41724 16.8033 -2.02795 17.0048 -2.05336 17.0117C-2.1351 17.0391 -2.24532 17.076 -2.25269 17.1922V17.2023C-2.25269 17.3273 -2.11338 17.391 -1.93924 17.4694C-1.73478 17.5601 -1.64873 17.6331 -1.6051 17.6843C-1.70098 17.8361 -2.08511 18.2527 -2.16644 18.3095C-2.24019 18.3531 -2.28506 18.4246 -2.28506 18.5009C-2.28506 18.5129 -2.28506 18.5257 -2.28219 18.538C-2.25638 18.6648 -2.12383 18.7497 -1.88516 18.7894C-1.88393 18.7894 -1.8829 18.7896 -1.88167 18.7896L-1.88516 18.8304C-1.91118 19.095 -1.94969 19.4936 -1.77678 19.7601L-1.74052 19.8161C-1.59834 20.0322 -1.30128 20.4844 -1.29062 20.6423C-1.28551 20.6957 -1.30435 20.7644 -1.32115 20.832C-1.35045 20.9477 -1.38097 21.0664 -1.31931 21.1664C-1.29677 21.205 -1.25047 21.2539 -1.15828 21.2744C-0.88355 21.3373 -0.780907 21.1187 -0.696502 20.9418L-0.650202 20.8462C-0.538754 20.6232 -0.384281 20.3174 -0.196622 20.0085L-0.0745184 19.822C0.143462 19.5012 0.437244 18.9443 0.372711 18.4919C0.418396 18.4936 0.453222 18.4952 0.464285 18.4966C0.516731 18.5038 0.573685 18.5108 0.626336 18.4972L0.679195 18.486C0.772615 18.4686 0.903935 18.4443 0.933028 18.3221C0.963556 18.2023 0.859683 18.1029 0.754178 18.0222C0.622241 17.9203 0.47412 17.4951 0.549717 17.2222C0.603598 17.0223 0.7005 16.9148 0.841042 16.8916C1.12888 16.8431 1.57795 17.1463 1.78733 17.4505C1.97007 17.7129 2.04731 18.0305 2.04731 18.2963C2.04731 18.3894 2.04033 18.4759 2.02251 18.5498C1.95736 18.8416 1.89959 18.8702 1.89816 18.8702C1.88832 18.8735 1.84817 18.8607 1.82256 18.8536L1.72771 18.8295C1.52284 18.7919 1.27741 18.8455 1.12069 18.9623L1.06926 18.9979C0.946547 19.0794 0.78019 19.19 0.802521 19.3577C0.822809 19.5094 0.986904 19.5819 1.10798 19.6235C1.20263 19.6552 1.22722 19.7078 1.2393 19.7455C1.294 19.9395 1.10204 20.2946 0.955973 20.4736L0.881604 20.5639L0.700499 20.802C-0.0249419 21.7233 -0.26054 22.6144 0.0533185 23.2465C0.242618 23.6273 0.71628 24.0796 1.89468 24.0814C1.84571 24.3376 1.77749 24.5039 1.67157 24.6703C1.38292 25.1276 0.894713 25.1736 0.633098 25.1984L0.548079 25.2067L0.481494 25.2116C0.403848 25.2158 0.297522 25.2231 0.216189 25.3127C0.114165 25.4267 0.0856871 25.6436 0.114574 26.0887C0.154728 26.6796 0.0863034 27.0039 0.0340621 27.2395C0.0154189 27.3322 -0.00629707 27.4329 -0.0140822 27.5137C-0.0167455 27.5656 -0.0351834 27.6497 -0.051573 27.7204C-0.0732894 27.8114 -0.097054 27.9086 -0.097054 28.0011C-0.097054 28.0744 -0.0806663 28.1444 -0.0398972 28.2051C0.0107055 28.2781 0.0918353 28.322 0.199187 28.3368L0.468384 28.3522C0.523698 28.3538 0.596222 28.3551 0.641088 28.3614C0.638835 28.3642 0.637809 28.3717 0.637809 28.3717C0.62859 28.3903 0.622239 28.4101 0.615273 28.4289H-2.3877C-2.3877 28.4289 -1.49795 29.9552 -1.43321 30.0664C-1.49385 30.1821 -2.31743 31.7666 -2.31743 31.7666H5.77695L6.23586 33.312C8.74016 32.4053 11.7229 31.8855 14.432 31.8855H14.4466C17.1549 31.8855 20.1442 32.4032 22.6483 33.3099L23.1031 31.7666H31.0723C31.0723 31.7666 30.249 30.1821 30.1905 30.0664C30.2534 29.9552 31.1446 28.4289 31.1446 28.4289H27.6981C27.7358 28.1775 27.7485 27.9149 27.7358 27.8039C27.7276 27.7109 27.6942 27.5435 27.6602 27.3692C27.6262 27.1945 27.5842 26.9773 27.5842 26.9164C27.5842 26.7444 27.5867 26.206 27.6017 26.0883C27.6446 25.7319 27.2609 25.4478 27.0749 25.3127L27.0127 25.2655C26.8467 25.1314 26.6841 24.9587 26.5379 24.7834C26.9995 24.9414 27.8452 25.0969 28.5699 24.2383C28.7645 24.0029 28.8987 23.6903 28.9787 23.5032L28.9927 23.4722C29.0635 23.304 29.2473 23.0272 29.3027 22.9786C29.4752 22.8263 30.2047 21.8803 29.9724 21.4977C29.815 21.2381 29.3973 21.3889 29.2601 21.4386C29.1824 21.4666 29.1437 21.4134 29.0912 21.2147C29.0478 21.0497 28.9491 20.6273 28.9431 20.5653L28.9427 20.5511C28.9339 20.475 28.9171 20.3154 28.7899 20.251C28.7098 20.2114 28.6169 20.2244 28.5131 20.2883C28.4615 20.3186 28.418 20.3301 28.3842 20.3186C28.3427 20.306 28.3104 20.2603 28.2935 20.2213C28.2564 20.1367 28.1962 19.9322 28.1587 19.8107L28.1286 19.7163L28.1134 19.652C28.0935 19.5657 28.0677 19.448 27.9526 19.4186C27.8395 19.3891 27.7457 19.4748 27.6667 19.5612C27.6057 19.6298 27.5498 19.696 27.499 19.7615C26.7555 19.1042 26.842 18.4912 26.8922 18.1197C26.9678 17.6658 27.1544 17.3655 27.4475 17.2228C27.8798 17.0117 28.4174 17.1985 28.4829 17.2349L28.5467 17.266C28.5742 17.2809 28.6284 17.3066 28.6583 17.3273C28.6497 17.3362 28.6401 17.3474 28.6186 17.3595L28.6067 17.3691L28.5977 17.3793C28.4088 17.5826 28.3363 17.7955 28.3363 18.0063C28.3363 18.5212 28.7776 19.0287 29.1084 19.3771V19.3828C29.1084 19.8518 29.2232 20.5704 29.547 20.8616C29.6739 20.9757 29.8364 21.0278 30.0007 21.0114C30.2817 20.9844 30.6749 20.7476 30.7433 20.7176C30.8109 20.6865 31.0106 20.4905 30.6896 20.4061C30.3678 20.3238 30.4524 20.0369 30.4673 19.893C30.488 19.7053 30.5784 19.4681 30.7203 19.1622C30.7648 19.0667 30.783 18.9607 30.783 18.8526C30.783 18.6506 30.7232 18.4443 30.6644 18.2931C30.7175 18.2874 30.7732 18.2756 30.8326 18.2557C31.0002 18.1971 31.111 18.0971 31.1446 17.9747C31.1514 17.9483 31.1553 17.9221 31.1553 17.8947C31.1553 17.815 31.1235 17.733 31.0609 17.6601C31.0188 17.6089 31.0014 17.5428 31.0014 17.4712Z" fill="#3D565F"/>
<path d="M22.4799 11.8572C22.5801 11.8245 22.8991 11.8297 23.0452 11.9579C23.1011 12.0037 23.179 12.0441 23.2064 12.0644C23.2349 12.0837 23.2549 12.1385 23.1472 12.1643C23.0398 12.1919 22.9786 12.2104 22.8971 12.2445C22.8176 12.2779 22.6686 12.271 22.5888 12.2166C22.5074 12.1643 22.3652 12.0378 22.3652 11.9705C22.3652 11.9043 22.4466 11.8572 22.4799 11.8572Z" fill="#3D565F"/>
<path d="M5.23444 12.8116C5.29673 12.8349 5.37417 12.9139 5.55691 12.9857C5.73945 13.0596 5.76301 12.9827 5.81648 12.8057C5.87056 12.6302 5.76301 12.6302 5.69438 12.6302C5.62698 12.6302 5.44362 12.6403 5.31578 12.6552C5.04904 12.6841 5.17811 12.7875 5.23444 12.8116Z" fill="#3D565F"/>
<path d="M14.8684 10.5085C14.8684 10.253 14.6576 10.0444 14.4005 10.0444C14.1395 10.0444 13.9297 10.253 13.9297 10.5085C13.9297 10.7648 14.1395 10.9738 14.4005 10.9738C14.6576 10.9738 14.8684 10.7648 14.8684 10.5085ZM14.4005 10.297C14.5169 10.297 14.6109 10.3924 14.6109 10.5085C14.6109 10.6242 14.5169 10.7195 14.4005 10.7195C14.2817 10.7195 14.1862 10.6242 14.1862 10.5085C14.1862 10.3924 14.2817 10.297 14.4005 10.297Z" fill="#3D565F"/>
<path d="M12.6921 17.8638H12.691L12.69 17.8647C12.4975 17.8785 12.4813 18.0907 12.4813 18.2876C12.4813 18.5285 12.4571 20.5588 12.4341 21.0307C12.4202 21.2606 12.4481 21.3826 12.5171 21.4272C12.5925 21.4751 12.7095 21.4219 12.8312 21.3572C13.0887 21.2247 13.1393 20.9976 13.2266 19.631C13.2993 18.5155 13.0311 18.106 12.9133 17.982C12.842 17.9058 12.7632 17.8638 12.6921 17.8638Z" fill="#3D565F"/>
<path d="M17.3241 24.1713C17.3011 24.1856 17.2712 24.1541 17.2378 24.1208C17.2378 24.1208 17.2292 24.1129 17.2321 24.1137C16.4133 23.5752 15.9943 21.866 15.985 21.7316C15.9768 21.6712 15.9642 21.6572 15.9609 21.6558C15.9597 21.6572 15.9562 21.6659 15.9562 21.6659C15.8881 21.8855 15.7003 22.7486 15.5743 23.3192C15.5153 23.5867 15.4745 23.7777 15.4632 23.8132L15.4504 23.8682C15.4411 23.9057 15.4387 23.9238 15.4205 23.9242C15.4002 23.9242 15.3944 23.9098 15.3633 23.8132C15.3335 23.7208 15.1688 23.0868 15.0369 22.5765C14.9443 22.2191 14.8642 21.9108 14.8515 21.8719C14.8365 21.825 14.8271 21.8079 14.822 21.8002C14.8197 21.8079 14.8128 21.8224 14.8128 21.8224L14.7124 22.1385C14.5171 22.7669 14.2758 23.5469 13.6742 23.9485C13.5307 24.0567 13.506 24.0526 13.4906 24.0397C13.4701 24.0197 13.4932 23.983 13.5424 23.909C14.3733 22.2528 14.7425 19.3955 14.4973 18.1326C14.4838 18.0628 14.4844 18.04 14.5029 18.0328C14.5237 18.0246 14.5432 18.051 14.5838 18.1182L14.5991 18.1474C14.9922 18.7188 15.5563 20.6111 15.562 20.6285C15.5691 20.6624 15.5747 20.6715 15.5786 20.676C15.5858 20.6654 15.5944 20.6415 15.5991 20.6285C15.7995 19.9158 16.3981 18.3924 16.6291 18.0685C16.7089 17.9565 16.7342 17.9396 16.7563 17.9497C16.7804 17.9601 16.7744 17.9968 16.7601 18.0565L16.7543 18.0924C16.6628 18.7386 16.5722 21.7483 17.3161 24.0476C17.345 24.1363 17.3405 24.1614 17.3241 24.1713ZM12.6713 21.6917L12.6445 21.7004C12.531 21.7438 12.5203 21.8418 12.5123 21.9283L12.5091 21.953C12.3326 23.497 11.7225 23.9938 11.5392 24.1079C11.489 24.1411 11.4535 24.1482 11.4325 24.1287C11.4185 24.1192 11.4128 24.1022 11.4128 24.0843C11.4128 24.0551 11.4273 24.0218 11.4325 24.007C11.6515 23.372 11.7287 21.436 11.7287 20.0446C11.7287 19.4433 11.7132 18.9423 11.691 18.6931C11.6859 18.6371 11.6832 18.5881 11.6832 18.549C11.6832 18.3558 11.7442 18.3231 11.867 18.2759L11.8784 18.2722C11.9975 18.2342 12.1216 18.1924 12.1782 18.0809C12.2865 17.7594 12.6 17.6396 12.7729 17.6396C13.0228 17.6396 13.9593 17.9745 13.9593 19.614C13.9593 20.6654 13.5031 21.4017 12.6713 21.6917ZM14.4325 16.2065C12.107 16.2091 10.2178 18.48 10.2178 21.2708C10.2178 24.0598 12.1061 26.3308 14.4316 26.3326C16.7572 26.3308 18.6463 24.0598 18.6463 21.2708C18.6463 18.48 16.7572 16.2091 14.4325 16.2065Z" fill="#3D565F"/>
<path d="M7.39774 32.1143L7.17691 32.1804L6.86426 31.1317L7.08426 31.0685L7.39774 32.1143Z" fill="#3D565F"/>
<path d="M7.55664 30.9332L7.78892 30.874L8.3939 31.5026L8.20564 30.7697L8.41425 30.7167L8.68483 31.776L8.46358 31.8326L7.84588 31.1918L8.03541 31.9396L7.82765 31.9921L7.55664 30.9332Z" fill="#3D565F"/>
<path d="M9.69837 30.4528L9.73547 30.6387L9.41153 30.7022L9.59145 31.5882L9.36524 31.6331L9.18455 30.7484L8.86068 30.8122L8.82422 30.6253L9.69837 30.4528Z" fill="#3D565F"/>
<path d="M10.9403 30.4552L10.3741 30.5401L10.4072 30.766L10.9282 30.6882L10.9552 30.8764L10.4355 30.9547L10.4794 31.2325L11.0726 31.1457L11.1026 31.3389L10.2851 31.4606L10.1221 30.38L10.9104 30.2623L10.9403 30.4552Z" fill="#3D565F"/>
<path d="M11.6431 30.3691L11.6713 30.6616L11.9191 30.637C11.9675 30.6323 12.0031 30.6232 12.0263 30.6084C12.0678 30.5846 12.0844 30.5404 12.0787 30.4791C12.0719 30.4138 12.0476 30.3715 12.0031 30.3545C11.9779 30.3429 11.9421 30.3395 11.8966 30.3446L11.6431 30.3691ZM12.0994 30.1619C12.1422 30.1747 12.1795 30.1977 12.2107 30.2283C12.2367 30.2535 12.2567 30.2826 12.2752 30.3144C12.2918 30.3454 12.301 30.3841 12.3063 30.4259C12.311 30.4779 12.3018 30.5311 12.2822 30.5822C12.2602 30.6352 12.2211 30.6747 12.1613 30.7015C12.2157 30.7153 12.2514 30.7409 12.2786 30.7772C12.3018 30.8121 12.3182 30.8675 12.3253 30.9451L12.3352 31.0171C12.3387 31.066 12.3444 31.1003 12.3492 31.1169C12.3588 31.1439 12.3756 31.1632 12.3973 31.174L12.3995 31.2024L12.148 31.2269C12.1379 31.2024 12.1324 31.1831 12.1277 31.1699C12.1195 31.139 12.1127 31.109 12.108 31.078L12.097 30.9759C12.0897 30.9075 12.0719 30.8622 12.0476 30.8432C12.0209 30.8205 11.9769 30.8148 11.9122 30.8196L11.6897 30.8432L11.7325 31.2681L11.5075 31.288L11.4004 30.2025L11.9226 30.1506C11.9992 30.1438 12.0568 30.1485 12.0994 30.1619Z" fill="#3D565F"/>
<path d="M12.7666 30.0806L13.0075 30.0707L13.4723 30.8065L13.4367 30.051L13.6518 30.0411L13.703 31.1317L13.4723 31.1422L12.9956 30.3927L13.0312 31.1621L12.8178 31.1716L12.7666 30.0806Z" fill="#3D565F"/>
<path d="M14.4444 30.7131L14.7246 30.7143L14.5898 30.2845L14.4444 30.7131ZM14.4599 30.0339L14.7236 30.0362L15.1054 31.1301L14.8563 31.1281L14.785 30.9052L14.3796 30.9018L14.304 31.1257L14.0596 31.1244L14.4599 30.0339Z" fill="#3D565F"/>
<path d="M16.2125 30.0903L16.2021 30.2796L15.8718 30.2626L15.8251 31.1644L15.5946 31.1529L15.6413 30.2519L15.3115 30.2346L15.3213 30.0453L16.2125 30.0903Z" fill="#3D565F"/>
<path d="M16.7265 31.2302L16.4961 31.2094L16.5899 30.121L16.8208 30.1413L16.7265 31.2302Z" fill="#3D565F"/>
<path d="M17.8953 31.093C17.9571 31.0341 17.9963 30.945 18.0096 30.823C18.0275 30.7021 18.0117 30.6059 17.968 30.5332C17.9224 30.4622 17.857 30.4188 17.7675 30.4076C17.6771 30.396 17.6015 30.4196 17.5399 30.4791C17.4782 30.5365 17.4384 30.6262 17.4231 30.7484C17.4081 30.8693 17.4212 30.9663 17.4673 31.0379C17.5116 31.1104 17.5792 31.1528 17.6685 31.1644C17.7588 31.1749 17.8342 31.1516 17.8953 31.093ZM18.0184 31.277C17.9242 31.3504 17.7992 31.3774 17.6435 31.3576C17.4876 31.3389 17.3729 31.2819 17.302 31.1865C17.2039 31.069 17.1689 30.9133 17.1928 30.7193C17.219 30.5211 17.2956 30.38 17.4177 30.294C17.5105 30.2205 17.6349 30.1935 17.7906 30.2134C17.948 30.2329 18.0614 30.2901 18.133 30.3857C18.2286 30.4983 18.2665 30.6548 18.2407 30.852C18.2137 31.047 18.1412 31.1881 18.0184 31.277Z" fill="#3D565F"/>
<path d="M18.7645 30.3857L18.9991 30.4291L19.2838 31.2522L19.4243 30.5068L19.6342 30.5458L19.4336 31.6196L19.2078 31.5781L18.9148 30.7409L18.7725 31.4988L18.5625 31.4609L18.7645 30.3857Z" fill="#3D565F"/>
<path d="M20.2607 31.3803L20.5348 31.4446L20.4998 30.9941L20.2607 31.3803ZM20.4324 30.7226L20.6875 30.7831L20.8094 31.9366L20.5656 31.8769L20.5481 31.6425L20.1521 31.5502L20.0272 31.7482L19.792 31.6926L20.4324 30.7226Z" fill="#3D565F"/>
<path d="M21.4667 30.9836L21.6896 31.0482L21.4339 31.9102L21.9617 32.0618L21.9061 32.2504L21.1553 32.032L21.4667 30.9836Z" fill="#3D565F"/>
<path d="M7.07919 29.8209C7.04393 29.8051 7.00254 29.8047 6.9544 29.8181L6.75833 29.8753L6.84909 30.1848L7.04393 30.127C7.09537 30.1134 7.13035 30.0892 7.14781 30.0565C7.16851 30.0229 7.17155 29.9792 7.15537 29.9248C7.13961 29.8699 7.11382 29.8356 7.07919 29.8209ZM7.3627 30.1499C7.31578 30.218 7.23755 30.2698 7.12201 30.3033L6.90359 30.3664L7.01524 30.7407L6.79276 30.8055L6.4834 29.757L6.93452 29.6251C7.03983 29.5963 7.13099 29.5993 7.20886 29.634C7.2873 29.6706 7.34263 29.7462 7.37705 29.8589C7.41288 29.9837 7.40878 30.0803 7.3627 30.1499Z" fill="#3D565F"/>
<path d="M8.12384 30.4353L7.87305 29.3719L8.09784 29.3189L8.19288 29.7248L8.60607 29.631L8.50919 29.2257L8.73575 29.1726L8.98527 30.236L8.76055 30.2881L8.6489 29.8146L8.23592 29.9103L8.34835 30.3841L8.12384 30.4353Z" fill="#3D565F"/>
<path d="M9.78894 30.082L9.56196 30.1251L9.36035 29.0499L9.58698 29.0074L9.78894 30.082Z" fill="#3D565F"/>
<path d="M10.2197 28.9016L10.449 28.8685L10.5795 29.7556L11.1218 29.6779L11.151 29.8727L10.376 29.9831L10.2197 28.9016Z" fill="#3D565F"/>
<path d="M11.9 29.7907L11.6699 29.8145L11.5576 28.7282L11.789 28.7048L11.9 29.7907Z" fill="#3D565F"/>
<path d="M13.0075 28.8404C12.9782 28.8183 12.9372 28.8079 12.885 28.8114L12.6818 28.8225L12.7014 29.1435L12.904 29.1324C12.9563 29.1302 12.9954 29.1148 13.0224 29.0864C13.0489 29.059 13.061 29.0153 13.0575 28.9604C13.0542 28.9035 13.0378 28.8621 13.0075 28.8404ZM13.2084 29.2259C13.1487 29.283 13.0581 29.3148 12.9391 29.3204L12.7125 29.3342L12.735 29.7246L12.5056 29.738L12.4404 28.6476L12.9122 28.62C13.0196 28.6146 13.1077 28.6383 13.1751 28.69C13.2453 28.7424 13.2822 28.8278 13.2892 28.9457C13.2956 29.0752 13.2697 29.1663 13.2084 29.2259Z" fill="#3D565F"/>
<path d="M15.444 28.5967L15.7742 28.6058L15.7426 29.6988L15.5277 29.6927L15.5517 28.9544C15.5517 28.9332 15.5517 28.9035 15.5523 28.8641C15.5534 28.8262 15.557 28.7964 15.557 28.7761L15.3204 29.6873L15.0981 29.6801L14.9181 28.7562V28.8461C14.9172 28.8832 14.9172 28.9145 14.9156 28.936L14.893 29.6726L14.6787 29.667L14.7119 28.5762L15.0469 28.5865L15.2192 29.449L15.444 28.5967Z" fill="#3D565F"/>
<path d="M17.0524 29.5344C17.1099 29.4719 17.1452 29.3807 17.1568 29.2598C17.1683 29.1396 17.1509 29.043 17.1048 28.971C17.057 28.9014 16.9891 28.8618 16.8985 28.8531C16.8091 28.8458 16.7332 28.8718 16.673 28.9331C16.6143 28.9943 16.5775 29.0846 16.5656 29.2058C16.5562 29.3272 16.5723 29.4242 16.6225 29.4944C16.6692 29.5646 16.7379 29.6037 16.8287 29.6117C16.9186 29.6204 16.9936 29.5938 17.0524 29.5344ZM17.1804 29.714C17.0898 29.7897 16.9653 29.8217 16.8091 29.8075C16.6525 29.7935 16.5371 29.7395 16.4621 29.6472C16.3615 29.5348 16.3198 29.3803 16.3351 29.1847C16.3564 28.9868 16.4254 28.8407 16.5445 28.7525C16.6361 28.6764 16.7596 28.6439 16.9141 28.6591C17.0714 28.6717 17.1878 28.7255 17.2625 28.8182C17.3648 28.9272 17.4056 29.0822 17.3877 29.2796C17.3699 29.4757 17.2994 29.6204 17.1804 29.714Z" fill="#3D565F"/>
<path d="M18.2472 29.037L18.2026 29.3277L18.4478 29.3636C18.4949 29.3727 18.5326 29.3715 18.5586 29.3625C18.6045 29.3506 18.6332 29.3122 18.642 29.2519C18.6531 29.1874 18.6387 29.1399 18.5994 29.1105C18.5787 29.0937 18.5435 29.0823 18.4961 29.075L18.2472 29.037ZM18.7424 28.9486C18.7793 28.9709 18.8088 29.0018 18.8317 29.0399C18.8512 29.0699 18.8647 29.1026 18.8721 29.1395C18.8813 29.1728 18.8831 29.2115 18.8743 29.2538C18.868 29.3063 18.8461 29.3552 18.8133 29.4019C18.7809 29.4465 18.7309 29.4756 18.6668 29.4871C18.7139 29.5146 18.7459 29.5482 18.7609 29.5874C18.7758 29.6266 18.7793 29.687 18.7676 29.7607L18.7555 29.834C18.7475 29.8823 18.7442 29.9171 18.7465 29.9349C18.7475 29.964 18.7586 29.9864 18.7793 30.003L18.7723 30.0304L18.5236 29.9914C18.5199 29.9681 18.5193 29.9474 18.5168 29.9316C18.516 29.9006 18.5168 29.8699 18.5236 29.839L18.5367 29.7361C18.5453 29.6684 18.5419 29.6215 18.5217 29.5937C18.5009 29.5681 18.4599 29.5496 18.3982 29.5405L18.1759 29.5085L18.1099 29.9291L17.8877 29.8977L18.0536 28.8165L18.5736 28.895C18.6474 28.9063 18.7049 28.925 18.7424 28.9486Z" fill="#3D565F"/>
<path d="M19.759 29.2969L19.6967 29.5846L19.9405 29.6342C19.986 29.6453 20.0259 29.6469 20.0518 29.6413C20.0978 29.6287 20.1286 29.5932 20.1407 29.5329C20.1541 29.469 20.1419 29.4215 20.1062 29.39C20.0855 29.373 20.053 29.3587 20.0072 29.3496L19.759 29.2969ZM20.2564 29.2356C20.2912 29.2612 20.3225 29.2944 20.3433 29.3326C20.3603 29.3639 20.3727 29.3975 20.3783 29.4339C20.3836 29.469 20.3824 29.5088 20.3746 29.5491C20.3617 29.6007 20.3398 29.6474 20.3023 29.6916C20.267 29.7348 20.2164 29.761 20.1523 29.7697C20.198 29.7997 20.2279 29.8357 20.2408 29.8769C20.2527 29.9166 20.251 29.9747 20.2355 30.0492L20.2193 30.1212C20.2097 30.1695 20.2064 30.2036 20.2064 30.2207C20.2064 30.2513 20.2136 30.2738 20.2328 30.2902L20.2279 30.3179L19.9798 30.2655C19.9769 30.2405 19.9769 30.2207 19.9769 30.2058C19.9769 30.1746 19.9812 30.1425 19.986 30.1108L20.0072 30.0126C20.0206 29.9444 20.0183 29.8963 20.0019 29.8692C19.9835 29.8417 19.9411 29.8219 19.8782 29.8077L19.6592 29.761L19.5711 30.1798L19.3496 30.1322L19.5772 29.0657L20.0925 29.1727C20.1656 29.1898 20.2211 29.2106 20.2564 29.2356Z" fill="#3D565F"/>
<path d="M20.9958 30.5101L20.7734 30.4525L21.0482 29.395L21.2735 29.452L20.9958 30.5101Z" fill="#3D565F"/>
<path d="M21.8312 30.3879C21.8211 30.4377 21.8256 30.4779 21.8363 30.5077C21.86 30.5606 21.9154 30.6008 22.0012 30.6264C22.0537 30.6427 22.0981 30.649 22.1344 30.6486C22.2018 30.6451 22.245 30.6138 22.2628 30.5566C22.2727 30.5211 22.2667 30.489 22.2421 30.4622C22.2168 30.434 22.1747 30.4026 22.1139 30.3691L22.009 30.3102C21.9065 30.2526 21.8379 30.2037 21.8048 30.1621C21.7472 30.0919 21.7345 30.0048 21.766 29.9028C21.7955 29.8088 21.8549 29.7412 21.9426 29.7008C22.0295 29.6584 22.1401 29.6584 22.2737 29.6988C22.3855 29.7329 22.4743 29.7911 22.5353 29.8731C22.5969 29.9553 22.6113 30.0517 22.5803 30.1651L22.3673 30.1022C22.3833 30.0363 22.3706 29.9839 22.3243 29.9411C22.2958 29.9135 22.254 29.8922 22.2042 29.8769C22.1464 29.8591 22.0975 29.8571 22.0569 29.8692C22.0145 29.8818 21.9879 29.908 21.9752 29.9486C21.9637 29.9852 21.9719 30.0188 21.9999 30.0473C22.0197 30.0651 22.0594 30.0943 22.1272 30.1323L22.2946 30.2311C22.3706 30.2739 22.4224 30.3179 22.4517 30.3612C22.5003 30.4296 22.5113 30.5105 22.4802 30.6035C22.4517 30.6999 22.3913 30.7685 22.2958 30.8084C22.2042 30.8488 22.0893 30.8488 21.9535 30.8084C21.8162 30.7662 21.7158 30.7023 21.6564 30.6169C21.5957 30.531 21.5841 30.4332 21.6157 30.3236L21.8312 30.3879Z" fill="#3D565F"/>
<path d="M46.6156 16.7301H47.456C48.0075 16.7301 48.363 16.6369 48.5214 16.4511C48.6792 16.2652 48.7586 15.8434 48.7586 15.1866C48.7586 14.5915 48.6747 14.2028 48.5066 14.0199C48.3376 13.8368 48.0281 13.7454 47.5784 13.7454H46.6156V16.7301ZM46.6156 19.8925H47.482V20.0669H45V19.8925H45.8677V13.7454H45V13.5713H47.6347C48.2119 13.5713 48.6821 13.7361 49.0429 14.0665C49.4052 14.3966 49.5853 14.8222 49.5853 15.3423C49.5853 15.8571 49.4149 16.246 49.0759 16.509C48.7368 16.7722 48.2342 16.904 47.5697 16.904H46.6156V19.8925Z" fill="#3D565F"/>
<path d="M54.0185 16.3282V13.7451H53.1522V13.571H55.634V13.7451H54.7587V19.8922H55.634V20.0665H53.1522V19.8922H54.0185V16.5023H51.6286V19.8922H52.4949V20.0665H50.0127V19.8922H50.8794V13.7451H50.0127V13.571H52.4949V13.7451H51.6286V16.3282H54.0185Z" fill="#3D565F"/>
<path d="M57.7806 19.8925H58.6469V20.0669H56.165V19.8925H57.0315V13.7453H56.165V13.5713H58.6469V13.7453H57.7806V19.8925Z" fill="#3D565F"/>
<path d="M61.6599 13.5713V13.7454H60.793V19.8925H61.577C62.166 19.8925 62.6244 19.6732 62.9508 19.2329C63.2782 18.7924 63.4974 18.1001 63.6099 17.1537H63.7108V20.0669H59.1787V19.8925H60.0444V13.7454H59.1787V13.5713H61.6599Z" fill="#3D565F"/>
<path d="M65.9573 19.8925H66.8235V20.0669H64.3428V19.8925H65.2079V13.7453H64.3428V13.5713H66.8235V13.7453H65.9573V19.8925Z" fill="#3D565F"/>
<path d="M68.9712 16.7301H69.8113C70.3627 16.7301 70.7174 16.6369 70.8757 16.4511C71.0347 16.2652 71.1132 15.8434 71.1132 15.1866C71.1132 14.5915 71.0298 14.2028 70.8609 14.0199C70.692 13.8368 70.3823 13.7454 69.9332 13.7454H68.9712V16.7301ZM68.9712 19.8925H69.8369V20.0669H67.3555V19.8925H68.2225V13.7454H67.3555V13.5713H69.9895C70.567 13.5713 71.0369 13.7361 71.398 14.0665C71.7598 14.3966 71.94 14.8222 71.94 15.3423C71.94 15.8571 71.7704 16.246 71.4312 16.509C71.0913 16.7722 70.589 16.904 69.9248 16.904H68.9712V19.8925Z" fill="#3D565F"/>
<path d="M77.3255 20.0665L75.71 13.6779V18.9337C75.71 19.2754 75.7616 19.521 75.8655 19.6698C75.968 19.8184 76.134 19.8922 76.3637 19.8922H76.6464V20.0665H74.6133V19.8922H74.7659C75.026 19.8922 75.221 19.8184 75.3489 19.6698C75.4775 19.521 75.5404 19.2965 75.5404 18.996V14.3473C75.5404 14.1305 75.4867 13.9756 75.3793 13.8835C75.2719 13.7911 75.0924 13.7451 74.8387 13.7451H74.6133V13.571H76.3898L77.6739 18.6435L79.0278 13.571H80.704V13.7451H79.8419V19.8922H80.704V20.0665H78.2703V19.8922H79.1367L79.172 13.6779L77.4689 20.0665H77.3255Z" fill="#3D565F"/>
<path d="M83.6305 20.0044C83.8602 20.0044 84.0693 19.9351 84.258 19.7959C84.446 19.6578 84.6085 19.4555 84.7449 19.1874C84.8361 19.0124 84.899 18.7787 84.9371 18.4852C84.9753 18.192 84.9937 17.6382 84.9937 16.8234C84.9937 15.9222 84.9654 15.3093 84.9074 14.9852C84.8488 14.6609 84.7506 14.3993 84.6106 14.2001C84.4863 14.0216 84.3365 13.8827 84.164 13.7831C83.9909 13.6833 83.8135 13.6332 83.6305 13.6332C83.4418 13.6332 83.2609 13.6833 83.0871 13.7831C82.9118 13.8827 82.7641 14.0216 82.6419 14.2001C82.5005 14.4052 82.4002 14.6689 82.3437 14.9899C82.2878 15.3108 82.2596 15.9222 82.2596 16.8234V17.0328C82.2596 17.7352 82.2786 18.2259 82.3154 18.5056C82.3536 18.785 82.4186 19.0124 82.5076 19.1874C82.644 19.4555 82.8072 19.6578 82.9973 19.7959C83.1874 19.9351 83.3987 20.0044 83.6305 20.0044ZM83.6305 13.4681C83.8778 13.4681 84.1167 13.5293 84.3492 13.6511C84.5824 13.7733 84.7908 13.9473 84.9767 14.1733C85.2608 14.5246 85.4756 14.9327 85.6219 15.398C85.7696 15.8631 85.8431 16.3711 85.8431 16.9217C85.8431 17.4031 85.7844 17.8431 85.6692 18.24C85.5519 18.6372 85.3781 18.9959 85.1463 19.3171C84.9484 19.5879 84.7166 19.7992 84.4495 19.9511C84.1824 20.1025 83.9103 20.1789 83.6305 20.1789C83.35 20.1789 83.0744 20.1025 82.8058 19.9511C82.538 19.7992 82.3048 19.5879 82.1062 19.3171C81.8744 18.9959 81.7006 18.6372 81.5847 18.24C81.4681 17.8431 81.4102 17.4031 81.4102 16.9217C81.4102 16.5528 81.4455 16.1981 81.5147 15.8576C81.5847 15.5169 81.6858 15.1994 81.82 14.9049C82.0341 14.4441 82.2991 14.0889 82.6115 13.8412C82.9252 13.5927 83.2652 13.4681 83.6305 13.4681Z" fill="#3D565F"/>
<path d="M89.042 13.7451H88.0979V16.694H88.9204C89.425 16.694 89.7621 16.5902 89.9302 16.3815C90.0984 16.1735 90.1825 15.7599 90.1825 15.1417C90.1825 14.6091 90.1006 14.2436 89.9366 14.0439C89.7727 13.8449 89.4737 13.7451 89.042 13.7451ZM86.4824 20.0665V19.8924H87.3481V13.7451H86.4824V13.571H89.3381C89.8695 13.571 90.28 13.7063 90.5698 13.9771C90.8602 14.2474 91.0065 14.6302 91.0065 15.1237C91.0065 15.6028 90.8588 15.9865 90.5655 16.2746C90.273 16.5633 89.8596 16.731 89.3296 16.779C89.7387 16.8058 90.0574 16.9 90.2871 17.0619C90.5168 17.2241 90.6715 17.4644 90.7535 17.7828C90.7825 17.8872 90.803 17.9999 90.8164 18.1215C90.8291 18.2441 90.8355 18.3959 90.8355 18.5765V18.8355C90.8355 18.9961 90.839 19.1132 90.8475 19.1855C90.8532 19.2583 90.8645 19.3229 90.8793 19.3797C90.9316 19.5967 91.0044 19.7504 91.0962 19.8423C91.1895 19.9328 91.3196 19.9776 91.4842 19.9776C91.54 19.9776 91.5994 19.9706 91.6658 19.9576C91.7301 19.9443 91.7951 19.9257 91.8594 19.9018V20.0665C91.7838 20.1027 91.7026 20.1299 91.6156 20.1493C91.528 20.1683 91.4354 20.1789 91.3372 20.1789C90.8574 20.1789 90.5224 20.0439 90.3302 19.7727C90.1394 19.5014 90.044 18.9928 90.044 18.2469C90.044 17.6845 89.9705 17.3126 89.8235 17.1315C89.6773 16.9499 89.4165 16.8591 89.042 16.8591H88.0979V19.8924H88.9635V20.0665H86.4824Z" fill="#3D565F"/>
<path d="M94.5993 13.7451H93.6538V16.694H94.4763C94.983 16.694 95.3187 16.5902 95.4876 16.3815C95.6558 16.1735 95.7399 15.7599 95.7399 15.1417C95.7399 14.6091 95.6579 14.2436 95.4932 14.0439C95.3293 13.8449 95.0318 13.7451 94.5993 13.7451ZM92.0391 20.0665V19.8924H92.9054V13.7451H92.0391V13.571H94.8954C95.4268 13.571 95.8374 13.7063 96.1278 13.9771C96.4169 14.2474 96.5631 14.6302 96.5631 15.1237C96.5631 15.6028 96.4154 15.9865 96.1229 16.2746C95.8303 16.5633 95.4176 16.731 94.8869 16.779C95.2961 16.8058 95.6148 16.9 95.8452 17.0619C96.0734 17.2241 96.2289 17.4644 96.3101 17.7828C96.3391 17.8872 96.3603 17.9999 96.3738 18.1215C96.3858 18.2441 96.3921 18.3959 96.3921 18.5765V18.8355C96.3921 18.9961 96.3964 19.1132 96.4034 19.1855C96.4105 19.2583 96.4218 19.3229 96.4366 19.3797C96.4882 19.5967 96.5617 19.7504 96.6536 19.8423C96.7476 19.9328 96.8762 19.9776 97.0416 19.9776C97.0967 19.9776 97.1567 19.9706 97.2225 19.9576C97.2875 19.9443 97.3518 19.9257 97.4154 19.9018V20.0665C97.3412 20.1027 97.2592 20.1299 97.1723 20.1493C97.0854 20.1683 96.9928 20.1789 96.8939 20.1789C96.4147 20.1789 96.0798 20.0439 95.8883 19.7727C95.6968 19.5014 95.6007 18.9928 95.6007 18.2469C95.6007 17.6845 95.5272 17.3126 95.3809 17.1315C95.2339 16.9499 94.9731 16.8591 94.5993 16.8591H93.6538V19.8924H94.5209V20.0665H92.0391Z" fill="#3D565F"/>
<path d="M99.2091 19.8925H100.076V20.0669H97.5938V19.8925H98.4607V13.7453H97.5938V13.5713H100.076V13.7453H99.2091V19.8925Z" fill="#3D565F"/>
<path d="M100.76 20.1124V17.3453H100.895C101.011 18.1902 101.245 18.8443 101.598 19.3086C101.95 19.7727 102.388 20.0046 102.912 20.0046C103.261 20.0046 103.555 19.8842 103.789 19.6432C104.022 19.4022 104.139 19.0989 104.139 18.7334C104.139 18.4327 104.053 18.1671 103.881 17.9366C103.711 17.706 103.395 17.4516 102.936 17.1712C102.795 17.0823 102.587 16.965 102.314 16.8191C101.832 16.5573 101.505 16.3434 101.33 16.1766C101.2 16.0426 101.098 15.885 101.023 15.7038C100.95 15.522 100.913 15.3316 100.913 15.1326C100.913 14.6446 101.052 14.2457 101.33 13.9344C101.609 13.624 101.966 13.4683 102.401 13.4683C102.686 13.4683 102.943 13.5371 103.173 13.6738C103.401 13.8108 103.627 14.029 103.846 14.3295L104.34 13.4683H104.391V15.9623H104.257C104.116 15.2131 103.89 14.6389 103.575 14.2399C103.259 13.8418 102.878 13.6426 102.427 13.6426C102.084 13.6426 101.8 13.7425 101.574 13.9438C101.346 14.1445 101.235 14.3946 101.235 14.6953C101.235 15.0819 101.688 15.5269 102.597 16.0293C102.774 16.1274 102.912 16.2032 103.006 16.2571C103.59 16.587 103.999 16.9057 104.235 17.2137C104.469 17.5219 104.586 17.8797 104.586 18.2868C104.586 18.8308 104.425 19.282 104.099 19.6411C103.774 19.9997 103.369 20.1789 102.885 20.1789C102.588 20.1789 102.31 20.098 102.049 19.9353C101.787 19.7735 101.548 19.5352 101.33 19.2195L100.859 20.1124H100.76Z" fill="#3D565F"/>
<path d="M46.666 28.4867H47.4935V28.6533H45.1211V28.4867H45.9494V22.6114H45.1211V22.4452H47.4935V22.6114H46.666V28.4867Z" fill="#3D565F"/>
<path d="M48.9913 23.1361V27.3109C48.9913 27.7059 49.0539 28.0008 49.1789 28.1957C49.3035 28.3896 49.4936 28.4869 49.7489 28.4869H49.8858V28.6535H47.9434V28.4869H48.0883C48.344 28.4869 48.531 28.3945 48.6505 28.2078C48.7693 28.0218 48.8291 27.7285 48.8291 27.3277V22.9868C48.7733 22.8477 48.6984 22.7497 48.6021 22.6948C48.5063 22.6391 48.3575 22.6116 48.1549 22.6116H47.9434V22.4454H49.4235L51.8126 27.1525V23.797C51.8126 23.4018 51.7495 23.1055 51.6231 22.9079C51.4935 22.7105 51.3031 22.6116 51.0477 22.6116H50.9103V22.4454H52.8615V22.6116H52.7076C52.4551 22.6116 52.269 22.7061 52.1487 22.8952C52.0279 23.0843 51.9675 23.3764 51.9675 23.7714V28.7608H51.8457L48.9913 23.1361Z" fill="#3D565F"/>
<path d="M54.1769 28.6533V28.4867H55.002V22.6116C54.9875 22.6116 54.9664 22.61 54.9384 22.6071C54.9112 22.6044 54.8888 22.6025 54.8718 22.6025C54.398 22.6025 54.0381 22.7942 53.7917 23.1766C53.5479 23.559 53.3963 24.1677 53.3402 25.0036H53.2451V22.4452H57.5224V25.0036H57.4231C57.3436 24.0913 57.1798 23.4645 56.9367 23.1235C56.6925 22.7821 56.2911 22.6116 55.7339 22.6116H55.7169V28.4867H56.5456V28.6533H54.1769Z" fill="#3D565F"/>
<path d="M58.0088 28.6533V28.4867H58.8371V22.6116H58.0088V22.4452H62.2286V24.5558H62.1371C62.035 23.8368 61.8699 23.3329 61.6428 23.0444C61.4144 22.7557 61.0704 22.6116 60.61 22.6116H59.5529V25.2382H59.8776C60.1881 25.2382 60.4324 25.1169 60.6123 24.8736C60.7915 24.6306 60.8877 24.2901 60.9008 23.852H60.9844V26.688H60.9008C60.8738 26.2246 60.7842 25.8937 60.6328 25.6944C60.4816 25.4954 60.2475 25.396 59.9273 25.396H59.5529V28.4867H60.5934C61.0619 28.4867 61.4288 28.3013 61.6944 27.9288C61.9594 27.5564 62.1341 26.9808 62.2209 26.2017H62.3165V28.6533H58.0088Z" fill="#3D565F"/>
<path d="M65.6784 22.6118H64.7759V25.4302H65.5623C66.045 25.4302 66.3672 25.331 66.528 25.1315C66.6887 24.9327 66.7692 24.5374 66.7692 23.9466C66.7692 23.4375 66.6904 23.0882 66.5334 22.8974C66.3772 22.7071 66.0927 22.6118 65.6784 22.6118ZM63.2314 28.6535V28.4871H64.0602V22.6118H63.2314V22.4454H65.9621C66.4689 22.4454 66.8619 22.5747 67.1395 22.8334C67.4172 23.0919 67.555 23.4577 67.555 23.9294C67.555 24.3872 67.4153 24.754 67.1358 25.0294C66.855 25.3052 66.4612 25.4655 65.9531 25.5114C66.3443 25.5371 66.6495 25.6271 66.8688 25.7818C67.0874 25.9368 67.2363 26.1666 67.3142 26.4709C67.3422 26.5707 67.3629 26.6783 67.3746 26.7945C67.3871 26.9116 67.3929 27.0568 67.3929 27.2294V27.4769C67.3929 27.6304 67.3968 27.7423 67.4041 27.8115C67.4098 27.881 67.4211 27.9427 67.4349 27.9971C67.4844 28.2045 67.5542 28.3513 67.6425 28.4393C67.7309 28.5258 67.8561 28.5685 68.0136 28.5685C68.0655 28.5685 68.1232 28.5619 68.1863 28.5494C68.2486 28.5367 68.3098 28.5189 68.3712 28.4961V28.6535C68.2989 28.6881 68.222 28.7141 68.1384 28.7326C68.0544 28.7508 67.9657 28.7609 67.8714 28.7609C67.4134 28.7609 67.093 28.6318 66.9098 28.3726C66.728 28.1135 66.6355 27.6273 66.6355 26.9144C66.6355 26.3769 66.5657 26.0214 66.4261 25.8483C66.2857 25.6747 66.0357 25.588 65.6784 25.588H64.7759V28.4871H65.6031V28.6535H63.2314Z" fill="#3D565F"/>
<path d="M69.5326 23.1361V27.3109C69.5326 27.7059 69.5941 28.0008 69.7203 28.1957C69.8445 28.3896 70.0342 28.4869 70.2899 28.4869H70.4276V28.6535H68.4844V28.4869H68.6293C68.8851 28.4869 69.072 28.3945 69.1916 28.2078C69.3108 28.0218 69.3705 27.7285 69.3705 27.3277V22.9868C69.3147 22.8477 69.2386 22.7497 69.1429 22.6948C69.0473 22.6391 68.8993 22.6116 68.6955 22.6116H68.4844V22.4454H69.9655L72.3533 27.1525V23.797C72.3533 23.4018 72.2897 23.1055 72.1632 22.9079C72.0346 22.7105 71.8438 22.6116 71.588 22.6116H71.4516V22.4454H73.4034V22.6116H73.2486C72.9964 22.6116 72.8105 22.7061 72.689 22.8952C72.5688 23.0843 72.5088 23.3764 72.5088 23.7714V28.7608H72.3872L69.5326 23.1361Z" fill="#3D565F"/>
<path d="M74.572 26.513H76.3125L75.4496 23.5026L74.572 26.513ZM74.3147 27.379C74.2928 27.4532 74.2759 27.5279 74.2646 27.6046C74.2526 27.6816 74.2469 27.757 74.2469 27.8306C74.2469 28.0415 74.302 28.2034 74.4101 28.3173C74.5175 28.4298 74.6681 28.4867 74.8596 28.4867H75.0299V28.6532H73.1904V28.4867C73.4314 28.456 73.6243 28.3542 73.7685 28.1829C73.9134 28.0099 74.0533 27.6984 74.189 27.2464L75.6207 22.3467H75.8086L77.6142 28.4867H78.159V28.6532H76.1655V28.4867H76.8813L76.3619 26.6712H74.5175L74.3147 27.379Z" fill="#3D565F"/>
<path d="M78.7505 28.6533V28.4867H79.5744V22.6116C79.5596 22.6116 79.5398 22.61 79.5129 22.6071C79.484 22.6044 79.4621 22.6025 79.4451 22.6025C78.9702 22.6025 78.6112 22.7942 78.3653 23.1766C78.1201 23.559 77.9696 24.1677 77.9138 25.0036H77.8184V22.4452H82.0965V25.0036H81.9962C81.9156 24.0913 81.7531 23.4645 81.5093 23.1235C81.2655 22.7821 80.8648 22.6116 80.3058 22.6116H80.2903V28.4867H81.1178V28.6533H78.7505Z" fill="#3D565F"/>
<path d="M84.1264 28.4867H84.9546V28.6533H82.583V28.4867H83.4105V22.6114H82.583V22.4452H84.9546V22.6114H84.1264V28.4867Z" fill="#3D565F"/>
<path d="M87.6899 28.5941C87.9083 28.5941 88.1083 28.528 88.2885 28.3949C88.4687 28.2629 88.6242 28.0695 88.7542 27.8133C88.8397 27.6461 88.9019 27.4227 88.9379 27.1422C88.974 26.8619 88.9923 26.3326 88.9923 25.5539C88.9923 24.6925 88.9648 24.1068 88.9089 23.797C88.8531 23.487 88.7577 23.237 88.6263 23.0466C88.5068 22.876 88.3641 22.7432 88.1994 22.6481C88.0341 22.5526 87.8638 22.5048 87.6899 22.5048C87.5083 22.5048 87.3359 22.5526 87.1691 22.6481C87.0031 22.7432 86.8617 22.876 86.7444 23.0466C86.6087 23.2427 86.5133 23.4946 86.4603 23.8015C86.4052 24.1081 86.3784 24.6925 86.3784 25.5539V25.7541C86.3784 26.4254 86.396 26.8943 86.4328 27.1617C86.4688 27.4287 86.5296 27.6461 86.6158 27.8133C86.7465 28.0695 86.9027 28.2629 87.0843 28.3949C87.2659 28.528 87.468 28.5941 87.6899 28.5941ZM87.6899 22.347C87.9253 22.347 88.1542 22.4056 88.3761 22.522C88.598 22.6387 88.7987 22.805 88.9754 23.021C89.2467 23.3567 89.4538 23.7468 89.5937 24.1915C89.7343 24.636 89.8036 25.1216 89.8036 25.6478C89.8036 26.108 89.7478 26.5285 89.6375 26.9078C89.5259 27.2875 89.3591 27.6303 89.1379 27.9373C88.9492 28.1961 88.7273 28.3981 88.4722 28.5432C88.2157 28.6879 87.9556 28.7609 87.6899 28.7609C87.4207 28.7609 87.1564 28.6879 86.8999 28.5432C86.6441 28.3981 86.4215 28.1961 86.2328 27.9373C86.0116 27.6303 85.8441 27.2875 85.7346 26.9078C85.6222 26.5285 85.5664 26.108 85.5664 25.6478C85.5664 25.2952 85.6003 24.9562 85.666 24.6308C85.7346 24.3052 85.8307 24.0017 85.9586 23.7202C86.1635 23.2798 86.4158 22.9403 86.7154 22.7036C87.0151 22.4661 87.3394 22.347 87.6899 22.347Z" fill="#3D565F"/>
<path d="M91.4061 23.1361V27.3109C91.4061 27.7059 91.4683 28.0008 91.592 28.1957C91.7178 28.3896 91.9086 28.4869 92.1637 28.4869H92.3008V28.6535H90.3574V28.4869H90.5037C90.7574 28.4869 90.9461 28.3945 91.0641 28.2078C91.1835 28.0218 91.2436 27.7285 91.2436 27.3277V22.9868C91.1871 22.8477 91.1121 22.7497 91.0167 22.6948C90.9213 22.6391 90.7715 22.6116 90.5694 22.6116H90.3574V22.4454H91.8386L94.2264 27.1525V23.797C94.2264 23.4018 94.1628 23.1055 94.0349 22.9079C93.9084 22.7105 93.7169 22.6116 93.4611 22.6116H93.324V22.4454H95.2765V22.6116H95.1218C94.8688 22.6116 94.6822 22.7061 94.5628 22.8952C94.4412 23.0843 94.3819 23.3764 94.3819 23.7714V28.7608H94.2611L91.4061 23.1361Z" fill="#3D565F"/>
<path d="M96.445 26.513H98.1841L97.322 23.5026L96.445 26.513ZM96.1864 27.379C96.1638 27.4532 96.1475 27.5279 96.1369 27.6046C96.1256 27.6816 96.1207 27.757 96.1207 27.8306C96.1207 28.0415 96.1737 28.2034 96.2825 28.3173C96.3906 28.4298 96.5404 28.4867 96.7326 28.4867H96.9029V28.6532H95.0635V28.4867C95.3037 28.456 95.4981 28.3542 95.6422 28.1829C95.7857 28.0099 95.9256 27.6984 96.062 27.2464L97.493 22.3467H97.6803L99.4872 28.4867H100.031V28.6532H98.0392V28.4867H98.7544L98.2343 26.6712H96.3906L96.1864 27.379Z" fill="#3D565F"/>
<path d="M102.393 22.4452V22.6116H101.564V28.4867H102.313C102.876 28.4867 103.315 28.2771 103.626 27.8562C103.938 27.4353 104.148 26.7736 104.256 25.869H104.352V28.6533H100.021V28.4867H100.849V22.6116H100.021V22.4452H102.393Z" fill="#3D565F"/>
<path d="M38.7114 30.3231H38.4863V12.1545H38.7114V30.3231Z" fill="#3D565F"/>
</g>
</g>
</g>
<defs>
<clipPath id="clip0_216_93">
<rect width="106" height="42" fill="white"/>
</clipPath>
</defs>
</svg>
