<svg width="102" height="42" viewBox="0 0 102 42" fill="none" xmlns="http://www.w3.org/2000/svg">
<path d="M27.5199 11.9394C23.9396 6.31396 15.6483 5.49364 8.74684 9.47821C7.35702 9.3376 5.02515 8.93918 4.17717 10.0174C3.49406 10.8377 3.75317 12.08 3.89447 12.6192C3.89447 12.7598 4.03578 13.1582 4.17717 13.2989C-0.251146 18.268 -1.35822 24.8779 1.82167 29.5658C5.68465 35.4725 14.659 36.1756 21.7254 31.2065C28.9096 26.4014 31.5242 17.7289 27.5199 11.9394ZM5.0016 13.7443C5.1429 13.6036 5.1429 13.3223 5.0016 13.2051C4.71891 12.1034 4.17717 11.2831 4.5776 10.7205C5.26065 9.75955 7.75748 10.2987 9.54764 10.8611C9.83027 10.4393 15.7661 9.0798 19.9117 12.7832C20.1945 13.2051 20.4534 13.6036 20.4534 14.0255C20.9953 16.6507 22.5263 17.6117 22.5263 17.6117C22.5263 17.6117 21.7019 17.7523 21.5606 17.7523C21.5606 17.7523 21.4193 18.0336 21.8432 18.4321C21.9845 18.5727 22.1259 18.7133 21.9845 18.9712L21.7019 19.7916C20.7362 21.9949 18.8047 18.8306 18.2393 20.0728C17.5563 21.1745 20.8539 21.7136 21.4193 20.8933L20.9953 21.573C20.7126 22.534 20.3122 22.8152 20.0295 22.9559C18.9695 23.0965 17.4385 22.2762 16.6141 21.995C15.2243 21.573 14.1172 21.573 13.2929 21.8542C10.3956 22.3933 8.32284 25.1591 8.60536 28.1829C8.60536 28.4642 8.74684 28.6048 8.74684 28.8626C8.8881 27.2219 9.57118 25.839 10.8195 24.8779C10.2778 25.6983 9.99518 26.6593 9.99518 27.6203C9.99518 30.5033 12.068 32.8472 14.9652 32.8472C15.3892 32.8472 16.0723 32.7066 16.3549 32.7066C2.64609 36.2928 -3.43104 22.6746 5.0016 13.7443ZM21.5842 30.2455C20.6183 30.9253 19.6526 31.3471 18.6868 31.8863C8.18147 35.0505 9.57118 20.3307 16.4726 23.495C17.1558 23.7762 18.8283 24.3154 19.6526 24.1747C21.0423 23.8935 21.3014 22.7918 21.5842 21.9714L23.1151 17.9868C23.2565 17.5649 23.2565 17.1663 22.9739 16.8851C22.2908 16.346 21.325 15.2444 21.0423 13.7207C21.0423 13.1817 20.901 12.7598 20.5006 12.4785C17.1558 9.3376 12.7511 9.05638 9.57118 9.61893C16.0723 5.91547 23.5156 6.87655 26.9781 11.9628C30.6998 17.4477 28.2265 25.5576 21.5842 30.2455Z" fill="#3D565F"/>
<path d="M38.5672 13.8849H33.5972V26.5421H36.6357V22.6746H38.5672C41.1817 22.6746 43.1368 20.7526 43.1368 18.268C43.1368 15.8069 41.2053 13.8849 38.5672 13.8849ZM38.4494 19.9323H36.6592V16.6273H38.4494C39.4151 16.6273 40.0982 17.3071 40.0982 18.268C40.0982 19.229 39.4151 19.9323 38.4494 19.9323Z" fill="#3D565F"/>
<path d="M78.4921 12.6425C77.667 13.3223 77.2431 14.424 77.8084 15.1272C78.3735 15.9475 79.4576 15.9475 80.4232 15.4084C81.2476 14.7286 81.6715 13.627 81.1297 12.9239C80.5646 12.08 79.4576 12.08 78.4921 12.6425Z" fill="#3D565F"/>
<path d="M19.5114 18.0102C19.5114 18.1509 19.3701 18.1509 19.3701 18.0102C19.2287 16.6272 18.687 14.424 14.4001 14.7053C14.2587 14.7053 14.1174 14.5647 14.2587 14.5647C16.1902 14.0021 18.5457 14.2833 19.2287 14.5647C19.3701 14.5647 19.2287 15.1037 19.2287 15.2443C19.3701 15.807 19.7941 16.6272 19.5114 18.0102Z" fill="#3D565F"/>
<path d="M13.1517 11.4003C13.1517 11.1191 13.4343 10.9785 13.8347 10.9785C14.2587 11.1191 14.5178 11.4003 14.5178 11.6581C14.5178 11.9394 14.0938 12.08 13.6934 12.08C13.293 11.9394 13.0103 11.6815 13.1517 11.4003Z" fill="#3D565F"/>
<path d="M15.6479 11.8223C15.6479 11.6817 15.9307 11.541 16.1898 11.6817C16.4724 11.8223 16.6138 11.9629 16.6138 12.2207C16.4724 12.3613 16.1898 12.3613 16.0719 12.3613C15.7893 12.2207 15.6479 12.0801 15.6479 11.8223Z" fill="#3D565F"/>
<path d="M9.28766 11.9395C7.49749 11.9395 6.79079 13.3224 6.39035 14.0022C6.24904 13.8616 4.85931 11.7989 5.4246 11.2598C5.96642 10.58 8.18047 11.2598 9.28766 11.6817C9.42892 11.6817 9.42892 11.9395 9.28766 11.9395Z" fill="#3D565F"/>
<path d="M5.56569 17.0493C5.28309 17.5883 4.74126 17.8696 4.31728 17.7289C3.89336 17.4477 3.89336 16.7679 4.17596 16.2054C4.59996 15.6663 5.14171 15.385 5.56569 15.5256C5.96614 15.807 5.96614 16.346 5.56569 17.0493Z" fill="#3D565F"/>
<path d="M3.8942 20.073C3.75289 20.6121 3.47024 20.8935 3.0698 20.8935C2.78715 20.7528 2.52805 20.3543 2.64582 19.7918C2.78715 19.2526 3.0698 18.9713 3.47024 18.9713C3.75289 19.112 4.03558 19.5106 3.8942 20.073Z" fill="#3D565F"/>
<path d="M2.92887 23.2372C2.64622 23.2372 2.50488 22.9559 2.50488 22.698C2.50488 22.4168 2.64622 22.159 2.92887 22.159C3.0702 22.159 3.35286 22.4403 3.21153 22.698C3.21153 22.9559 3.0702 23.2372 2.92887 23.2372Z" fill="#3D565F"/>
<path d="M46.9988 13.7443H44.1016V26.5422H46.9988V13.7443Z" fill="#3D565F"/>
<path d="M80.9888 16.768H78.0913V26.5421H80.9888V16.768Z" fill="#3D565F"/>
<path d="M66.3378 23.7763C65.9138 23.917 65.5134 24.0576 64.948 24.0576C63.9823 24.0576 63.4169 23.5186 63.4169 22.4169V16.768H60.3784V22.4169C60.3784 25.0421 62.1686 26.6828 64.5241 26.6828C65.2071 26.6828 65.7725 26.5421 66.3143 26.4015C66.3143 27.7844 65.6311 28.1829 64.5241 28.1829C63.5583 28.1829 62.7338 27.9016 62.1686 27.5032C62.0272 27.5032 61.886 27.3626 61.886 27.3626L60.4961 29.5659L60.6375 29.7065C61.7446 30.5268 62.9929 30.8082 64.6418 30.8082C67.8217 30.8082 69.1879 29.2845 69.1879 25.8625V16.768H66.2906V23.7763H66.3378Z" fill="#3D565F"/>
<path d="M56.6802 16.6274L56.5388 17.4477C55.5731 16.768 54.6073 16.4867 53.359 16.4867C50.4617 16.4867 48.2476 18.69 48.2476 21.573C48.2476 24.5968 50.4617 26.8 53.359 26.8C54.466 26.8 55.5731 26.5187 56.3975 25.8391L56.6802 26.5187H58.8943V16.6274H56.6802ZM53.6416 24.0576C52.1105 24.0576 51.1448 23.0966 51.1448 21.573C51.1448 20.1901 52.1105 19.0885 53.6416 19.0885C55.0313 19.0885 56.1384 20.1901 56.1384 21.573C56.1148 23.0966 55.0078 24.0576 53.6416 24.0576Z" fill="#3D565F"/>
<path d="M99.7854 16.6274L99.5028 17.4477C98.6786 16.768 97.5717 16.4867 96.4641 16.4867C93.426 16.4867 91.2114 18.69 91.2114 21.573C91.2114 24.5968 93.426 26.8 96.4641 26.8C97.5717 26.8 98.6786 26.5187 99.5028 25.8391L99.6442 26.5187H102V16.6274H99.7854ZM96.6054 24.0576C95.2159 24.0576 94.109 23.0966 94.109 21.573C94.109 20.1901 95.2159 19.0885 96.6054 19.0885C98.1369 19.0885 99.1025 20.1901 99.1025 21.573C99.0789 23.0966 98.1133 24.0576 96.6054 24.0576Z" fill="#3D565F"/>
<path d="M91.6114 16.7679H88.3143L85.6759 20.6119V14.0021H82.7783V26.5187H85.6759V22.2762L88.4556 26.5187H92.0353L88.3143 21.4323L91.6114 16.7679Z" fill="#3D565F"/>
<path d="M73.6632 22.6746V19.1118H76.2774V16.7679H73.6632V14.424H72.8381L70.7656 16.7679V22.9559C70.7656 25.1592 72.1553 26.5421 74.3697 26.5421H76.3009V23.9169H75.0527C74.0871 23.9169 73.6632 23.4951 73.6632 22.6746Z" fill="#3D565F"/>
</svg>
