<svg width="69" height="42" viewBox="0 0 69 42" fill="none" xmlns="http://www.w3.org/2000/svg">
<g clip-path="url(#clip0_216_177)">
<mask id="mask0_216_177" style="mask-type:luminance" maskUnits="userSpaceOnUse" x="0" y="0" width="69" height="42">
<path d="M69 0H0V42H69V0Z" fill="white"/>
</mask>
<g mask="url(#mask0_216_177)">
<mask id="mask1_216_177" style="mask-type:luminance" maskUnits="userSpaceOnUse" x="0" y="0" width="69" height="42">
<path d="M69 0H0V42H69V0Z" fill="white"/>
</mask>
<g mask="url(#mask1_216_177)">
<mask id="mask2_216_177" style="mask-type:luminance" maskUnits="userSpaceOnUse" x="0" y="0" width="69" height="42">
<path d="M69 0H0V42H69V0Z" fill="white"/>
</mask>
<g mask="url(#mask2_216_177)">
<mask id="mask3_216_177" style="mask-type:luminance" maskUnits="userSpaceOnUse" x="0" y="0" width="69" height="42">
<path d="M69 0H0V42H69V0Z" fill="white"/>
</mask>
<g mask="url(#mask3_216_177)">
<mask id="mask4_216_177" style="mask-type:luminance" maskUnits="userSpaceOnUse" x="0" y="13" width="69" height="17">
<path d="M69 13H0V29.7727H69V13Z" fill="white"/>
</mask>
<g mask="url(#mask4_216_177)">
<path d="M38.8567 26.3028C38.8251 26.3159 38.7933 26.3295 38.7622 26.3426C38.7358 26.2962 38.7154 26.2439 38.6817 26.2033C37.4728 24.7416 36.25 23.2901 35.055 21.8166C33.9266 20.4254 32.4647 19.8445 30.6514 19.9616C30.6514 23.1698 30.6514 26.3538 30.6514 29.5509C31.5505 29.5509 32.4271 29.5509 33.3453 29.5509C33.3453 27.4229 33.3453 25.3121 33.3453 23.2011C33.4946 23.2561 33.5739 23.338 33.6465 23.425C34.9255 24.9574 36.1945 26.4977 37.484 28.0217C38.5436 29.2735 39.9428 29.6785 41.5646 29.5515C41.5646 26.3571 41.5646 23.1711 41.5646 19.9674C40.6641 19.9674 39.7875 19.9674 38.8567 19.9674C38.8567 22.0881 38.8567 24.1959 38.8567 26.3028Z" fill="#3D565F"/>
<path d="M4.82341 21.8546C6.59646 21.5523 8.33716 21.4823 9.85326 22.7444C10.5132 22.3401 11.185 21.9285 11.8588 21.5157C11.4658 20.9778 10.7517 20.4864 9.94972 20.2298C8.23747 19.6821 6.4835 19.6272 4.71639 19.8608C3.78758 19.9838 2.90634 20.2678 2.17571 20.8828C0.94104 21.9226 1.04343 23.6429 2.41484 24.4883C2.85745 24.7611 3.36215 24.9692 3.86619 25.102C4.92976 25.3821 6.01448 25.583 7.08601 25.8362C7.61914 25.9625 8.16544 26.0809 8.66351 26.2975C9.17678 26.5213 9.15432 27.1443 8.65823 27.4079C8.47657 27.5048 8.27246 27.5885 8.06961 27.6147C5.90679 27.8993 3.83118 27.8313 2.16778 26.1031C1.45433 26.5206 0.735596 26.9407 -0.000976562 27.3713C0.0657444 27.4629 0.112647 27.5355 0.167477 27.6016C0.821473 28.3868 1.68752 28.8566 2.63615 29.1824C4.34513 29.7695 6.10894 29.8806 7.89261 29.6798C8.8736 29.5692 9.81362 29.3101 10.6573 28.7605C12.1013 27.8195 12.4296 25.5254 10.3395 24.6015C9.64056 24.2927 8.89142 24.0767 8.14629 23.8935C7.03577 23.6207 5.90415 23.4316 4.78972 23.1724C4.24472 23.0454 4.03531 22.8112 4.04654 22.503C4.05777 22.2093 4.32465 21.9397 4.82341 21.8546Z" fill="#3D565F"/>
<path d="M68.88 29.2963C67.3183 26.2483 65.7573 23.1991 64.1845 20.1565C64.131 20.0537 63.9592 19.9635 63.8357 19.9529C63.5074 19.9248 63.1737 19.9549 62.8434 19.9418C61.6867 19.8954 60.9032 20.4195 60.3906 21.4331C59.2504 23.6886 58.0864 25.933 56.933 28.1826C56.7051 28.6269 56.4825 29.0731 56.2314 29.5698C57.1279 29.5698 57.9622 29.5593 58.7959 29.5764C59.045 29.5816 59.1639 29.4978 59.2676 29.2779C60.1818 27.3385 61.1081 25.4049 62.0322 23.4701C62.2132 23.0918 62.3995 22.7162 62.6195 22.2654C63.3785 23.8817 64.1019 25.42 64.8245 26.9582C64.8015 26.9741 64.7784 26.9891 64.7559 27.0047C63.798 26.4335 62.8408 25.8629 61.8829 25.2917C61.871 25.3062 61.8585 25.3205 61.8466 25.3356C61.8816 25.3846 61.9139 25.4357 61.951 25.4828C62.6426 26.3753 63.3356 27.2665 64.0259 28.1603C64.4831 28.7525 65.0743 29.1517 65.7858 29.3807C66.8295 29.717 67.9017 29.5037 69.0009 29.5809C68.9467 29.4539 68.919 29.3722 68.88 29.2963Z" fill="#3D565F"/>
<path d="M22.6013 20.8285C22.2671 20.1513 21.9057 19.8869 21.1256 19.9198C19.8208 19.9746 18.9013 20.4994 18.3219 21.6511C17.6977 22.8924 17.0569 24.1257 16.4234 25.3625C15.7152 26.7445 15.007 28.127 14.2725 29.5593C15.116 29.5593 15.9101 29.6 16.6989 29.5496C17.742 29.4834 18.5882 29.015 19.2138 28.165C19.6352 27.5912 20.0844 27.0369 20.5184 26.4722C20.7992 26.1064 21.076 25.738 21.3547 25.3704C21.3376 25.354 21.3211 25.3382 21.3039 25.3219C20.3844 25.8768 19.4648 26.4323 18.5453 26.9872C18.5215 26.9636 18.4977 26.9394 18.4739 26.9159C19.1933 25.3886 19.9134 23.8621 20.6592 22.2786C20.7385 22.4277 20.792 22.5194 20.8369 22.6142C21.8984 24.8344 22.9634 27.0539 24.0163 29.278C24.1194 29.4953 24.2344 29.5836 24.4834 29.5744C25.0455 29.5542 25.6084 29.5679 26.1712 29.5679C26.4507 29.5679 26.7294 29.5679 27.0406 29.5679C26.9851 29.4455 26.9561 29.3762 26.9217 29.3087C25.4763 26.4853 24.0045 23.6736 22.6013 20.8285Z" fill="#3D565F"/>
<path d="M53.9634 20.4758C53.3655 20.1125 52.7195 19.9437 52.016 19.9457C49.8432 19.9536 47.6711 19.9477 45.4984 19.9483C45.3908 19.9483 45.2837 19.9575 45.1582 19.9634C45.1582 20.6322 45.1582 21.2812 45.1582 21.9807C46.2357 21.9807 47.2708 21.9807 48.3066 21.9807C48.7492 21.9807 48.7506 21.9813 48.7506 22.4341C48.7499 24.6517 48.7486 26.8692 48.7486 29.0868C48.7486 29.236 48.7611 29.3851 48.7691 29.5494C49.7171 29.5494 50.6353 29.5494 51.5912 29.5494C51.5912 29.4113 51.5912 29.2935 51.5912 29.1751C51.5905 26.881 51.5938 24.5876 51.5832 22.2935C51.582 22.0494 51.6441 21.9729 51.8951 21.9749C53.1964 21.9866 54.4978 21.9813 55.7992 21.9813C55.9683 21.9813 56.1374 21.9813 56.3066 21.9813C55.5357 21.4298 54.7488 20.9534 53.9634 20.4758Z" fill="#3D565F"/>
<path d="M41.6941 13L33.7266 17.941L37.848 16.4693C40.3372 15.5808 43.0582 15.5624 45.5587 16.419L50.0038 17.941L41.6941 13Z" fill="#3D565F"/>
</g>
</g>
</g>
</g>
</g>
</g>
<defs>
<clipPath id="clip0_216_177">
<rect width="69" height="42" fill="white"/>
</clipPath>
</defs>
</svg>
