<svg width="60" height="42" viewBox="0 0 60 42" fill="none" xmlns="http://www.w3.org/2000/svg">
<path d="M21.8136 21.2109C22.5019 20.8732 23.048 20.4492 23.4632 19.8674C23.7363 19.4846 23.912 19.0643 23.9419 18.5914C23.9569 18.3549 23.9158 18.1335 23.841 17.9121C23.71 17.5105 23.6315 17.094 23.5866 16.6737C23.4893 15.7016 24.0617 14.9136 25.0641 14.6959C25.3633 14.6321 25.6701 14.6057 25.9693 14.5983C26.3396 14.587 26.6501 14.7747 26.9456 14.9773C27.5328 15.3789 28.0415 15.8817 28.5914 16.3284C29.4629 17.0339 30.3943 17.6419 31.5351 17.7733C33.252 17.9722 34.838 17.6232 36.1958 16.4822C36.9065 15.8855 37.4675 15.1499 38.0585 14.4406C38.5597 13.8364 39.0872 13.251 39.7156 12.7705C40.6731 12.0387 41.7617 11.641 42.9473 11.5247C45.2702 11.2956 47.507 11.6672 49.6653 12.5529C50.9258 13.0708 52.0741 13.7726 53.0953 14.6733C54.0977 15.559 54.9169 16.591 55.5191 17.792C56.0652 18.8803 56.3906 20.025 56.5141 21.2297C56.6151 22.228 56.5777 23.2264 56.3345 24.202C56.17 24.8776 55.9754 25.5494 55.6575 26.1686C55.4144 26.649 55.1788 27.1407 54.8533 27.5685C54.5466 27.9701 54.2548 28.3867 53.9107 28.762C53.5217 29.186 53.1215 29.5988 52.695 29.9816C52.3023 30.3306 51.8908 30.6571 51.4607 30.9612C51.0679 31.2426 50.6565 31.4941 50.2563 31.7605C49.654 32.1659 49.0032 32.4773 48.3711 32.8264C48.0755 32.9915 47.7427 33.089 47.4397 33.2505C46.8748 33.5506 46.2577 33.7196 45.6741 33.971C44.9822 34.2675 44.2528 34.4401 43.5458 34.6803C42.5696 35.0143 41.5559 35.1945 40.5572 35.4347C38.8553 35.8475 37.1197 36.0089 35.3878 36.219C32.9603 36.5155 30.5215 36.4742 28.0827 36.4592C27.0054 36.4517 25.9281 36.4066 24.8621 36.2716C23.5754 36.1065 22.2812 35.9863 21.0057 35.7462C20.6391 35.6749 20.2688 35.6298 19.9097 35.5361C18.9522 35.2846 17.9721 35.1194 17.022 34.8268C16.2889 34.6015 15.552 34.3876 14.8376 34.1098C14.1942 33.8584 13.5359 33.6408 12.9113 33.3405C12.3801 33.089 11.834 32.8602 11.3216 32.5712C10.9438 32.3573 10.551 32.177 10.1882 31.9407C9.79547 31.6854 9.37275 31.4677 9.00619 31.1788C8.6097 30.8636 8.16835 30.6158 7.80179 30.2556C7.58105 30.0417 7.30805 29.8765 7.09484 29.6514C6.81428 29.3586 6.52252 29.0734 6.23824 28.7807C5.91282 28.443 5.62854 28.0788 5.35549 27.7074C4.77945 26.9192 4.32685 26.0635 3.99021 25.1329C3.58249 23.9919 3.4441 22.8172 3.5002 21.6163C3.53761 20.7982 3.66105 19.9951 3.89295 19.207C4.44654 17.3417 5.47892 15.7955 6.96015 14.5494C8.55737 13.2059 10.4089 12.3728 12.425 11.8849C13.6519 11.5883 14.9012 11.4307 16.1617 11.4571C18.0544 11.4946 19.7938 12.0125 21.2712 13.2472C21.694 13.6 22.0941 13.9903 22.3373 14.5044C22.629 15.1162 22.5617 15.7429 22.3971 16.3659C22.24 16.9514 21.8884 17.4054 21.447 17.8108C20.9421 18.2724 20.6054 18.8579 20.3735 19.4997C19.8499 20.9558 19.5619 22.4644 19.4459 24.0107C19.4197 24.3447 19.4309 24.6825 19.4608 25.0202C19.5282 25.7557 20.0818 26.1686 20.7887 26.2061C21.5592 26.2474 22.1914 25.9321 22.6964 25.3843C23.4856 24.5285 23.7998 23.5153 23.5567 22.3631C23.3809 21.5262 22.8273 21.1434 21.9707 21.2148C21.937 21.2148 21.8996 21.2109 21.8136 21.2109ZM50.1628 23.9844C50.1889 24.1158 50.159 24.2433 50.1478 24.3747C50.1104 24.7575 50.0468 25.1403 50.0505 25.5307C50.0543 25.8459 50.1889 26.0785 50.4433 26.2511C50.6714 26.4051 50.9258 26.4689 51.1877 26.5289C51.3372 26.5626 51.3784 26.5251 51.3672 26.3675C51.3261 25.8571 51.3111 25.3468 51.3485 24.8363C51.4046 24.052 51.5767 23.2826 51.6889 22.5057C51.7413 22.1304 51.7712 21.7514 51.4308 21.47C51.2101 21.2898 50.952 21.2109 50.6752 21.181C50.5742 21.1697 50.5368 21.196 50.5256 21.3048C50.4994 21.62 50.4582 21.9353 50.4246 22.2543C50.3722 22.7459 50.1852 23.1813 49.856 23.5491C49.669 23.7593 49.4446 23.9094 49.1528 23.9281C48.977 23.9394 48.8685 23.883 48.8461 23.6917C48.8311 23.5603 48.8237 23.4327 48.8311 23.3014C48.8536 22.8773 48.9097 22.457 48.906 22.0329C48.906 21.7738 48.7825 21.5825 48.5768 21.4362C48.386 21.301 48.1691 21.2297 47.9447 21.1734C47.8436 21.151 47.8212 21.1734 47.81 21.2748C47.7726 21.62 47.724 21.969 47.6791 22.3144C47.5556 23.3089 47.3163 24.2885 47.2713 25.2942C47.2452 25.8346 47.3088 26.071 47.8623 26.3413C48.0456 26.4313 48.2477 26.4764 48.4459 26.5251C48.5693 26.5552 48.5955 26.5289 48.5843 26.4013C48.5282 25.797 48.6179 25.1966 48.6852 24.5961C49.1566 24.7613 49.5157 24.675 49.8672 24.3184C49.972 24.2134 50.0655 24.0969 50.1628 23.9844ZM13.6444 24.5849C13.3152 24.8626 12.9786 25.0915 12.5934 25.2492C11.7068 25.6131 10.7455 25.4255 10.1246 24.75C9.78793 24.3822 9.61219 23.9319 9.5037 23.4515C9.32042 22.6334 9.33535 21.8039 9.42514 20.9783C9.57849 19.5859 10.0124 18.2912 10.7643 17.1127C11.1196 16.5572 11.5609 16.0732 12.1706 15.7804C12.3801 15.6791 12.6008 15.604 12.8364 15.6604C13.304 15.7729 13.5658 16.107 13.6406 16.5498C13.8164 17.5706 13.5434 18.4751 12.8364 19.2369C12.7168 19.3645 12.5671 19.4584 12.3988 19.5108C12.0884 19.6122 11.8228 19.5372 11.6283 19.2969C11.4562 19.0868 11.415 19.0942 11.2804 19.3345C11.258 19.3795 11.2355 19.4246 11.2205 19.4696C10.9737 20.1489 11.4487 20.8732 12.2267 20.9895C12.9786 21.1058 13.6032 20.8282 14.1194 20.3103C15.0134 19.4058 15.3164 18.2912 15.1556 17.0451C15.0246 16.0431 14.3401 15.3001 13.3601 15.0824C12.6981 14.936 12.0472 15.0112 11.4226 15.27C10.5024 15.6566 9.7393 16.2646 9.09968 17.0151C7.56235 18.8204 6.90031 20.8807 7.41277 23.2488C7.59975 24.1007 7.98877 24.8551 8.6434 25.4481C9.51863 26.2436 10.5697 26.4689 11.7106 26.3675C12.2567 26.3187 12.7766 26.1836 13.233 25.8609C13.6332 25.5831 13.7977 25.0877 13.6444 24.5849ZM27.1887 25.5118C27.1064 25.8609 27.0241 26.2061 26.9456 26.5552C26.9194 26.679 26.8521 26.7128 26.7286 26.7278C25.8683 26.8254 25.1239 27.1594 24.5554 27.8349C24.2112 28.244 24.0018 28.7056 24.0392 29.2573C24.0803 29.884 24.5105 30.2856 25.1314 30.3043C25.6925 30.3231 26.1301 30.0829 26.5117 29.7114C27.0952 29.1447 27.4767 28.4504 27.7759 27.6998C28.1874 26.664 28.4193 25.5794 28.5988 24.4835C28.7335 23.6767 28.8383 22.8698 28.842 22.0478C28.842 21.7026 28.6886 21.5 28.3969 21.3649C28.2136 21.2822 28.0228 21.2372 27.832 21.1697C27.6525 21.1097 27.6151 21.1621 27.6114 21.3349C27.5964 21.9766 27.5403 22.6183 27.4019 23.2488C27.2635 23.8756 27.0466 24.4686 26.6763 24.9978C26.5528 25.1741 26.4107 25.328 26.19 25.3843C25.9207 25.4519 25.7786 25.3543 25.7636 25.0765C25.7411 24.7125 25.8122 24.356 25.857 23.9993C25.9468 23.3126 26.0965 22.6371 26.104 21.939C26.104 21.7776 26.0479 21.6464 25.9319 21.5412C25.685 21.3198 25.3895 21.196 25.0753 21.1058C24.9706 21.0759 24.9481 21.1246 24.937 21.2185C24.9257 21.3611 24.8995 21.5037 24.8808 21.6464C24.7461 22.6595 24.5292 23.6617 24.432 24.6787C24.3235 25.8121 25.3521 26.5589 26.392 26.1048C26.7024 25.9696 26.9456 25.7557 27.1887 25.5118ZM34.8118 25.3655C34.823 25.4106 34.8305 25.4255 34.8305 25.4405C34.838 26.0148 35.313 26.465 35.9527 26.5402C36.02 26.5477 36.1135 26.589 36.0986 26.4352C36.02 25.692 36.0836 24.9527 36.1696 24.2134C36.2519 23.534 36.3492 22.8547 36.4314 22.1717C36.4651 21.909 36.424 21.6613 36.207 21.4737C35.9527 21.2523 35.6347 21.1885 35.3205 21.1134C35.2345 21.0909 35.2532 21.1621 35.2494 21.2072C35.1859 21.8339 35.0811 22.4532 34.9876 23.0761C34.909 23.5829 34.8342 24.0857 34.6173 24.5586C34.4639 24.8926 34.2358 25.159 33.9141 25.3354C33.6896 25.4593 33.555 25.3805 33.5363 25.1215C33.5214 24.9339 33.5326 24.7463 33.5513 24.5623C33.6223 23.8042 33.7607 23.0574 33.8617 22.303C33.9104 21.9502 33.8954 21.6126 33.5437 21.3949C33.3118 21.2523 33.0575 21.181 32.7957 21.1172C32.7059 21.0946 32.7097 21.1472 32.7059 21.2072C32.6535 21.7102 32.5825 22.2093 32.4852 22.7047C32.3767 23.2525 32.3356 23.8192 32.1523 24.3521C32.0064 24.7763 31.7633 25.1366 31.3444 25.3354C31.12 25.4405 30.9778 25.3468 30.9628 25.0991C30.9554 24.9301 30.9628 24.7613 30.9778 24.5961C31.0526 23.8381 31.176 23.0875 31.2882 22.3368C31.3406 21.9841 31.3519 21.635 30.9853 21.4061C30.7609 21.2673 30.5177 21.181 30.2597 21.1209C30.1586 21.0984 30.1474 21.1396 30.1399 21.2222C30.0726 21.9241 29.9267 22.6146 29.8145 23.3089C29.7247 23.8868 29.5976 24.4611 29.6088 25.054C29.6163 25.4405 29.7734 25.752 30.0801 25.9884C30.7347 26.4876 31.5875 26.345 32.0775 25.6507C32.1411 25.5607 32.2009 25.4706 32.272 25.3617C32.3094 25.4367 32.3356 25.4931 32.3618 25.5456C32.7994 26.4088 33.8243 26.5439 34.4639 25.8196C34.5799 25.6807 34.6847 25.5306 34.8118 25.3655ZM44.8101 25.2304C44.8999 25.9247 45.4048 26.39 46.0819 26.4275C46.1941 26.4352 46.2315 26.4088 46.2203 26.2887C46.1642 25.6019 46.1567 24.9151 46.2464 24.2358C46.325 23.6428 46.4373 23.0537 46.527 22.4644C46.5868 22.0667 46.6093 21.6726 46.224 21.3986C46.0145 21.2523 45.7864 21.1734 45.532 21.1396C45.4123 21.1246 45.3712 21.1585 45.36 21.2822C45.3188 21.7477 45.2515 22.2093 45.158 22.6709C45.0009 23.4327 44.7877 24.172 44.3538 24.8288C44.2154 25.039 44.0508 25.2266 43.8077 25.3204C43.5458 25.4218 43.4186 25.3542 43.3625 25.084C43.2877 24.7162 43.3289 24.3484 43.385 23.9844C43.4673 23.444 43.572 22.9035 43.6468 22.3594C43.7366 21.7214 43.5084 21.3798 42.895 21.1997C42.8015 21.1697 42.7005 21.1585 42.6033 21.1321C42.5209 21.1058 42.4985 21.1284 42.491 21.2148C42.4237 22.0366 42.2142 22.8359 42.0646 23.6428C41.9786 24.0932 41.8664 24.551 41.9374 25.0127C42.0235 25.5794 42.3377 25.9922 42.8763 26.1987C43.4112 26.4013 43.89 26.2662 44.3014 25.8759C44.4997 25.6919 44.653 25.478 44.8101 25.2304ZM17.1418 25.2717C17.2427 26.0485 17.5794 26.4238 18.2377 26.5289C18.3612 26.5477 18.4173 26.5402 18.3873 26.3825C18.2639 25.677 18.2676 24.9714 18.3088 24.2584C18.3462 23.5979 18.4846 22.9486 18.522 22.288C18.5519 21.7326 18.3574 21.4099 17.8375 21.2072C17.2764 20.9858 16.719 21.0571 16.1917 21.3085C15.3239 21.7251 14.8114 22.472 14.4711 23.3389C14.2092 24.007 14.1494 24.6937 14.4261 25.3805C14.8189 26.3487 15.8587 26.5852 16.633 25.8834C16.8238 25.7145 16.9697 25.5043 17.1418 25.2717ZM37.8416 20.7719C37.8379 20.8057 37.8304 20.8357 37.8266 20.8657C37.7107 21.8565 37.5423 22.8398 37.3964 23.8268C37.318 24.3447 37.2543 24.8663 37.2693 25.3918C37.2768 25.7258 37.4227 25.9585 37.7294 26.0973C37.9687 26.2061 38.2193 26.27 38.4775 26.3224C38.5934 26.345 38.6234 26.3037 38.6121 26.1987C38.5897 25.9696 38.6047 25.737 38.6084 25.5081C38.6196 25.054 38.6645 24.6074 38.7131 24.1044C38.7917 24.2171 38.8515 24.2885 38.8964 24.3635C39.0535 24.6261 39.2106 24.8889 39.364 25.1516C39.5548 25.4743 39.753 25.7895 40.0074 26.0672C40.5123 26.6302 41.0921 26.6528 41.7803 26.3863C41.8963 26.3413 41.8701 26.3037 41.7953 26.2399C41.6606 26.1199 41.5297 25.9922 41.4026 25.8683C40.6918 25.1816 40.1943 24.3334 39.6707 23.5078C39.6109 23.414 39.6632 23.3802 39.7193 23.3276C40.3327 22.7685 40.9836 22.2543 41.6868 21.8114C41.8252 21.7251 41.8103 21.6613 41.728 21.5562C41.44 21.1885 40.9911 21.1134 40.6058 21.3798C40.1719 21.6801 39.8128 22.063 39.4463 22.4382C39.248 22.6408 39.0573 22.8511 38.8665 23.0574C38.8216 23.0124 38.844 22.9748 38.844 22.941C38.859 22.5358 38.9188 22.1342 38.9226 21.7289C38.9263 21.4099 38.7805 21.181 38.5149 21.0196C38.3091 20.8844 38.0847 20.8131 37.8416 20.7719Z" fill="#3D565F"/>
<path d="M27.5742 8.13936C27.4732 7.74533 27.4059 7.35879 27.462 6.9647C27.6004 5.97019 28.2699 5.27965 29.2873 5.06572C30.23 4.86682 31.0641 5.13328 31.8196 5.67746C32.6051 6.2404 33.2224 6.9647 33.6786 7.81666C33.761 7.96674 33.8695 8.09435 33.9816 8.21818C34.1425 8.39458 34.2435 8.58597 34.1687 8.82992C34.1275 8.95752 34.2286 8.95752 34.2959 8.98384C35.2908 9.37412 35.9604 10.0721 36.2858 11.0967C36.5102 11.7985 36.5289 12.5078 36.3344 13.2171C36.0127 14.3956 35.4592 15.4351 34.4081 16.1032C33.2635 16.835 32.0179 17.0264 30.735 16.5047C29.9531 16.1857 29.2686 15.6903 28.6477 15.1086C28.24 14.7296 27.8884 14.3017 27.5106 13.8926C26.9084 13.2434 26.0256 13.037 25.2813 13.3672C25.1503 13.4273 25.0307 13.5023 24.9184 13.5924C24.881 13.6225 24.8436 13.6562 24.8025 13.6863C24.6566 13.7913 24.4996 13.8852 24.32 13.8101C24.1292 13.7313 24.1405 13.5398 24.1292 13.3748C24.0881 12.6242 24.4247 12.0425 24.9634 11.5546C25.2327 11.3144 25.5244 11.1005 25.76 10.819C26.2164 10.2749 26.396 9.65552 26.2763 8.95382C26.2276 8.66108 26.1117 8.38331 25.7975 8.29329C25.4795 8.2032 25.2476 8.39458 25.0494 8.61599C24.623 9.08891 24.3948 9.67066 24.1853 10.2598C23.946 10.9429 23.7589 11.6409 23.628 12.354C23.6243 12.384 23.6205 12.4178 23.613 12.4478C23.5644 12.5829 23.527 12.7555 23.3437 12.7292C23.1717 12.7067 23.138 12.5454 23.138 12.3952C23.1343 12.1138 23.1679 11.8361 23.2128 11.5583C23.3475 10.7252 23.5308 9.90332 23.8562 9.12266C24.0881 8.55971 24.4172 8.04934 24.896 7.65903C25.5094 7.15614 26.2538 7.13361 26.8934 7.59897C27.1366 7.77159 27.3498 7.95926 27.5742 8.13936ZM32.5341 8.37582C32.362 7.91046 32.1264 7.51265 31.8234 7.15236C31.3745 6.61945 30.8621 6.1766 30.1551 6.01897C29.6165 5.89888 29.1041 6.10905 28.8011 6.5594C28.4869 7.02854 28.4794 7.63277 28.7711 8.0756C28.8834 8.24451 29.0106 8.35329 29.2275 8.33081C29.3958 8.31206 29.5641 8.31954 29.7287 8.3045C30.3646 8.24822 31.0005 8.15063 31.6439 8.20698C31.9431 8.23695 32.2236 8.30079 32.5341 8.37582Z" fill="#3D565F"/>
<path d="M20.6656 24.3296C20.6993 23.6203 20.7965 22.9748 20.9387 22.3331C20.9835 22.1229 21.0883 22.0028 21.2903 21.9277C21.8962 21.7026 22.1132 21.8114 22.2217 22.4531C22.3713 23.3276 22.2441 24.1645 21.8027 24.9414C21.6942 25.1365 21.5409 25.2867 21.3538 25.403C21.1257 25.5456 20.7554 25.4668 20.7105 25.1215C20.6918 24.9789 20.6806 24.8363 20.6619 24.6937C20.6469 24.5585 20.6507 24.4159 20.6656 24.3296Z" fill="#3D565F"/>
<path d="M21.1064 20.9933C21.2336 20.1714 21.4132 19.3758 21.7685 18.6364C21.8546 18.4562 21.9593 18.2874 22.0939 18.1373C22.165 18.0585 22.2473 17.9909 22.3445 17.9497C22.5989 17.837 22.7785 17.9309 22.8009 18.2124C22.8234 18.4675 22.8047 18.7227 22.7336 18.9704C22.4717 19.8748 21.862 20.4979 21.1064 20.9933Z" fill="#3D565F"/>
<path d="M26.7884 27.2307C26.5491 28.0451 26.3022 28.8032 25.7486 29.4149C25.6925 29.4787 25.6214 29.5312 25.5466 29.5763C25.2249 29.7714 24.9331 29.6176 24.907 29.2385C24.892 29.0208 24.9407 28.8144 25.0341 28.623C25.382 27.8912 25.9842 27.4709 26.7884 27.2307Z" fill="#3D565F"/>
<path d="M15.6191 24.5022C15.6491 23.7516 15.7913 23.046 16.1167 22.3893C16.2101 22.2055 16.3186 22.0328 16.4757 21.8902C16.5767 21.8 16.6852 21.7325 16.8161 21.7101C17.0667 21.6612 17.2126 21.7738 17.2388 22.0291C17.2762 22.4118 17.1902 22.7871 17.1266 23.1624C17.0293 23.7217 16.8872 24.2695 16.6403 24.7875C16.558 24.9639 16.4607 25.129 16.3186 25.264C16.0568 25.5117 15.7913 25.4442 15.6828 25.0952C15.6641 25.0351 15.6454 24.975 15.6416 24.9112C15.6304 24.7686 15.6267 24.6223 15.6191 24.5022Z" fill="#3D565F"/>
<path d="M50.1632 23.9843L50.1673 23.9884C50.1673 23.9884 50.1592 23.9843 50.1632 23.9843Z" fill="#3D565F"/>
</svg>
