<svg width="86" height="42" viewBox="0 0 86 42" fill="none" xmlns="http://www.w3.org/2000/svg">
<path d="M17.6221 19.2878H21.0793C21.4849 19.2794 22.0757 19.2691 22.5465 19.3322C23.6321 19.478 24.7369 19.9547 24.7369 21.26C24.7369 22.3552 24.0848 22.8693 23.3005 23.0349V23.1017C24.4352 23.3006 25.0872 23.8981 25.0872 25.0918C25.0872 27.0411 23.2121 27.579 21.6952 27.6504C21.3237 27.6615 20.8485 27.6623 20.5284 27.6623H17.6225L17.6221 19.2878ZM20.0433 26.0706H21.0284C21.8636 26.0706 22.6816 25.8211 22.6816 25.0247C22.6816 24.2786 22.0636 24.0137 20.9121 24.0137H20.0433V26.0706ZM20.0929 22.5367H20.828C21.8301 22.5367 22.4317 22.3382 22.4317 21.6918C22.4317 21.1778 22.0636 20.8791 21.0788 20.8791H20.0929V22.5367Z" fill="#3D565F"/>
<path d="M5.64438 27.8244C1.98759 27.8244 0 25.2039 0 21.9203C0 18.6033 2.33839 15.8838 6.17838 15.8838C7.19714 15.8838 8.08238 16.0164 8.84996 16.4145V18.5544C7.83115 17.9573 7.01357 17.8413 6.26238 17.8413C3.65718 17.8413 2.63799 19.7485 2.63799 21.7557C2.63799 23.9934 3.90799 25.7683 6.02758 25.7683C6.96357 25.7683 7.73196 25.5525 8.63398 25.0722L9.2684 26.7638C7.9156 27.6087 6.76317 27.8244 5.64438 27.8244ZM46.8914 27.8244C44.1855 27.8244 42.7999 25.8513 42.7999 23.496C42.7999 20.8591 44.637 19.1181 47.0923 19.1181C48.1766 19.1181 48.745 19.333 49.1958 19.5987V21.4896C48.5947 21.0582 48.1095 20.9085 47.4423 20.9085C46.0562 20.9085 45.2043 21.9203 45.2043 23.3804C45.2043 24.6901 45.8554 25.9676 47.4086 25.9676C47.8422 25.9676 48.4274 25.8016 49.0454 25.4863L49.613 27.0275C48.9122 27.4927 47.743 27.8244 46.8914 27.8244ZM54.3726 21.1738V27.6587H51.9678V21.1738H49.6302V19.2829H57.0106L56.4098 21.1738H54.3726ZM65.9274 20.2621C65.9274 23.181 65.8122 24.7064 65.2766 25.4024C65.0101 25.7515 64.5918 25.9831 64.1582 26.0494L64.8258 27.8244C65.3766 27.8081 66.2294 27.5761 66.813 26.9949C67.581 26.2489 67.8321 25.3035 67.949 24.308C68.0498 23.4626 68.1157 22.4672 68.1157 21.589V21.1738H69.9965V27.6587H72.4014V19.2829H65.9274V20.2621ZM11.4059 24.1249C11.4563 25.2534 12.5251 25.9505 13.6428 25.9505C14.462 25.9505 15.0795 25.8013 16.0319 25.3535L16.5656 26.8627C15.3963 27.5924 14.2615 27.8244 13.2427 27.8244C10.2364 27.8244 9.00117 25.7014 9.00117 23.496C9.00117 21.1412 10.4204 19.1181 12.9424 19.1181C15.2472 19.1181 16.8499 20.8095 16.8499 23.3967V24.1253L11.4059 24.1249ZM12.8752 20.8596C11.9056 20.8596 11.3552 21.7216 11.3552 22.4851H14.3948C14.3447 21.6879 13.8936 20.8596 12.8752 20.8596ZM27.9715 24.1249C28.0211 25.2534 29.0899 25.9505 30.2091 25.9505C31.0271 25.9505 31.6455 25.8013 32.5979 25.3535L33.1311 26.8627C31.9623 27.5924 30.8267 27.8244 29.8083 27.8244C26.8019 27.8244 25.5667 25.7014 25.5667 23.496C25.5667 21.1412 26.9859 19.1181 29.5083 19.1181C31.8115 19.1181 33.4155 20.8095 33.4155 23.3967V24.1253L27.9715 24.1249ZM29.4411 20.8596C28.4719 20.8596 27.9215 21.7216 27.9215 22.4851H30.9607C30.9107 21.6879 30.4587 20.8596 29.4411 20.8596ZM61.6194 26.9115C61.0522 27.4263 60.3842 27.8244 59.299 27.8244C57.695 27.8244 56.493 26.7629 56.493 25.1041C56.493 23.3296 57.929 22.4172 60.0666 22.3513L61.4866 22.3012V22.1359C61.4866 21.2572 60.7686 20.9081 59.9326 20.9081C59.0818 20.9081 58.3466 21.157 57.7954 21.4891L57.061 20.0298C58.2134 19.2826 59.315 19.1177 60.4674 19.1177C62.689 19.1177 63.8746 19.996 63.8746 22.2026V27.6584H62.0046L61.6194 26.9115ZM60.417 23.9103C59.3822 23.9442 58.8974 24.2921 58.8974 24.9218C58.8974 25.5693 59.349 25.9673 60.167 25.9673C60.8018 25.9673 61.253 25.7675 61.469 25.5855V23.8778L60.417 23.9103ZM36.5879 27.4756V31.0082L34.1839 31.7387V19.2829H36.2039L36.471 20.0464C37.0891 19.5649 37.8067 19.1181 38.7419 19.1181C40.6795 19.1181 42.1991 20.5771 42.1991 23.2307C42.1991 25.7194 40.6967 27.8244 38.2079 27.8244C37.5902 27.8244 37.0223 27.708 36.5879 27.4756ZM36.5879 21.8038V25.7679C36.8554 25.951 37.1895 26.0999 37.6243 26.0999C39.2607 26.0999 39.7947 24.6242 39.7947 23.1977C39.7947 21.4725 39.2266 20.8596 38.2583 20.8596C37.6243 20.8596 36.8719 21.3736 36.5879 21.8038Z" fill="#3D565F"/>
<path d="M75.8117 22.01V18.9243L73.4072 19.6552V27.6647H76.48C78.7174 27.6647 80.8046 27.0681 80.8046 24.7629C80.8046 22.8057 79.1185 22.0097 77.0474 22.0097L75.8117 22.01ZM75.8117 26.0067V23.6682H76.6139C77.4654 23.6682 78.4016 23.8004 78.4016 24.7955C78.4016 25.7747 77.5987 26.0067 76.6477 26.0067H75.8117Z" fill="#3D565F"/>
<path d="M76.799 6.4231C76.1053 6.73925 75.5231 7.07812 75.0395 7.42531C74.5327 7.79036 74.0653 8.2448 73.9363 8.74572C73.8059 9.24462 73.9913 9.8663 74.2563 10.4292C74.5143 10.9623 74.8576 11.5375 75.3074 12.1477C75.2898 11.9732 75.2954 11.8073 75.3299 11.6527C75.4371 11.1657 75.853 10.7284 76.3069 10.3808C76.6376 10.1285 77.0182 9.88262 77.4595 9.64986C78.1672 9.27401 79.0251 8.92962 80.0592 8.64479C81.0948 8.35919 82.0111 8.21498 82.8126 8.1753C82.8288 7.68074 82.8049 7.22868 82.7506 6.8187C82.6752 6.25467 82.5018 5.67827 82.1303 5.34181C82.0111 5.23455 81.8652 5.14478 81.7031 5.07208C80.9531 5.15512 80.1206 5.3136 79.2006 5.56784C78.28 5.82127 77.4842 6.11086 76.799 6.4231Z" fill="#3D565F"/>
<path d="M85.9486 9.21413C86.0177 8.46178 86.0127 7.79481 85.9585 7.20653C85.9014 6.58724 85.7287 5.95996 85.3593 5.59848C84.9899 5.23739 84.3541 5.08525 83.7288 5.03242C83.136 4.98117 82.4599 4.98793 81.7022 5.07254C81.8643 5.14523 82.0109 5.23501 82.13 5.34226C82.5015 5.67873 82.6742 6.25511 82.7504 6.81922C82.8047 7.22914 82.8279 7.6812 82.8117 8.17575C82.7863 8.97263 82.6559 9.88231 82.3873 10.9147C82.1188 11.9479 81.7868 12.8068 81.4209 13.5171C81.8431 13.7777 82.2471 13.983 82.6312 14.1407C83.162 14.3576 83.7507 14.4963 84.23 14.345C84.3851 14.2973 84.5345 14.2157 84.6797 14.1117C84.9814 13.4261 85.2592 12.6336 85.4974 11.7175C85.7378 10.794 85.8795 9.96211 85.9486 9.21413Z" fill="#3D565F"/>
<path d="M78.933 15.695C78.3183 15.2621 77.6698 14.7242 76.9909 14.0592C76.3072 13.3934 75.7538 12.753 75.3076 12.1481C75.29 11.9737 75.2956 11.8076 75.3301 11.6531C75.4373 11.1661 75.8532 10.7287 76.3072 10.3812C76.6378 10.1289 77.0184 9.88306 77.4597 9.65021C77.8939 10.32 78.4776 11.0335 79.2431 11.7806C80.0087 12.5291 80.7376 13.0951 81.4213 13.5166C81.8436 13.7771 82.2475 13.9826 82.6324 14.1402C83.1632 14.3571 83.7511 14.4957 84.2311 14.3444C84.3855 14.2968 84.5357 14.2153 84.6809 14.1113C84.3778 14.8013 84.0493 15.3808 83.7109 15.865C83.3507 16.3814 82.8967 16.8594 82.392 16.9984C81.8873 17.1382 81.2493 16.9603 80.6741 16.7016C80.1327 16.4597 79.5505 16.1295 78.933 15.695Z" fill="#3D565F"/>
<path d="M21.3151 36.0706C21.4118 36.0706 21.4654 36.1023 21.4654 36.2191V37.536C21.4654 37.6325 21.4283 37.6647 21.3366 37.6647H20.9835C20.877 37.6647 20.8442 37.638 20.8442 37.5213V36.6279H18.6507V37.536C18.6507 37.6325 18.613 37.6647 18.5234 37.6647H18.1694C18.0631 37.6647 18.0303 37.638 18.0303 37.5213V36.2191C18.0303 36.1023 18.0834 36.0706 18.1803 36.0706H18.2554C18.7522 35.3798 18.9558 34.5356 18.9558 33.7697V33.1C18.9558 32.9828 19.0107 32.9503 19.1063 32.9503H20.9355C21.0318 32.9503 21.0858 32.9828 21.0858 33.1V36.0706H21.3151ZM19.6142 33.7265C19.6142 34.4979 19.4482 35.3531 18.9558 36.0702H20.3963V33.504H19.6146L19.6142 33.7265Z" fill="#3D565F"/>
<path d="M23.0812 36.692C22.2088 36.692 21.8076 36.1068 21.8076 35.3322C21.8076 34.5664 22.2784 33.9832 23.1132 33.9832C23.9852 33.9832 24.3872 34.556 24.3872 35.3374C24.3872 36.1025 23.9164 36.692 23.0812 36.692ZM23.1084 34.4865C22.6316 34.4865 22.476 34.8956 22.476 35.3211C22.476 35.7568 22.6104 36.1875 23.0864 36.1875C23.5576 36.1875 23.7176 35.7724 23.7176 35.3374C23.7176 34.9004 23.578 34.4865 23.1084 34.4865Z" fill="#3D565F"/>
<path d="M26.6549 36.0755C26.7141 36.0545 26.7513 36.0493 26.7725 36.1232L26.8413 36.3571C26.8533 36.3949 26.8589 36.4266 26.8589 36.4472C26.8589 36.4898 26.8317 36.5108 26.7837 36.5331C26.5269 36.6499 26.2913 36.692 26.0077 36.692C25.1833 36.692 24.7285 36.1816 24.7285 35.3644C24.7285 34.5398 25.2265 33.9829 26.0557 33.9829C26.2973 33.9829 26.5473 34.0306 26.7725 34.1306C26.8413 34.1624 26.8413 34.1997 26.8265 34.2692L26.7569 34.5501C26.7461 34.5986 26.7245 34.6255 26.6925 34.6255C26.6769 34.6255 26.6549 34.6153 26.6337 34.6033C26.4781 34.5394 26.3081 34.4861 26.1201 34.4861C25.6601 34.4861 25.3977 34.8107 25.3977 35.3318C25.3977 35.8419 25.6333 36.1918 26.0929 36.1918C26.3225 36.1923 26.4677 36.1506 26.6549 36.0755Z" fill="#3D565F"/>
<path d="M27.1146 34.492C27.051 34.492 27.0078 34.4658 27.0078 34.3962V34.1465C27.0078 34.0781 27.0506 34.0518 27.1146 34.0518H29.1962C29.2602 34.0518 29.3034 34.0781 29.3034 34.1465V34.3962C29.3034 34.4658 29.2606 34.492 29.1962 34.492H28.479V36.4952C28.479 36.5906 28.4358 36.6279 28.3458 36.6279H27.9706C27.8738 36.6279 27.8318 36.5906 27.8318 36.4952V34.492H27.1146Z" fill="#3D565F"/>
<path d="M31.3627 34.4498V34.1833C31.3627 34.0883 31.4047 34.0513 31.5019 34.0513H31.8771C31.9679 34.0513 32.0103 34.0883 32.0103 34.1833V36.4948C32.0103 36.5902 31.9679 36.6275 31.8771 36.6275H31.5019C31.4051 36.6275 31.3627 36.5902 31.3627 36.4948V35.1342L30.3355 36.2132V36.4948C30.3355 36.5902 30.2923 36.6275 30.2015 36.6275H29.8267C29.7311 36.6275 29.6875 36.5902 29.6875 36.4948V34.1833C29.6875 34.0883 29.7307 34.0513 29.8267 34.0513H30.2015C30.2923 34.0513 30.3355 34.0883 30.3355 34.1833V35.528L31.3627 34.4498Z" fill="#3D565F"/>
<path d="M34.1288 34.1837C34.1288 34.0887 34.1708 34.0518 34.268 34.0518H34.6432C34.734 34.0518 34.7764 34.0887 34.7764 34.1837V36.4952C34.7764 36.5906 34.734 36.6279 34.6372 36.6279H34.262C34.1708 36.6279 34.1288 36.5906 34.1288 36.4952V35.7464C33.9412 35.8211 33.6312 35.8835 33.3684 35.8835C32.7372 35.8835 32.5244 35.528 32.5244 34.9002V34.1833C32.5244 34.0883 32.5668 34.0513 32.6632 34.0513H33.0372C33.1288 34.0513 33.1716 34.0883 33.1716 34.1833V34.8375C33.1716 35.1557 33.2092 35.3316 33.5944 35.3316C33.776 35.3316 33.9952 35.288 34.1296 35.2455L34.1288 34.1837Z" fill="#3D565F"/>
<path d="M36.0986 35.0127C36.2634 34.9707 36.4722 34.9333 36.713 34.9333C37.2262 34.9333 37.7993 35.1196 37.7993 35.7512C37.7993 36.4957 37.0286 36.6923 36.3382 36.6923C36.1094 36.6923 35.857 36.666 35.6385 36.6283C35.5418 36.6132 35.4502 36.5703 35.4502 36.4269V34.1841C35.4502 34.0892 35.4934 34.0522 35.5893 34.0522H35.9646C36.0558 34.0522 36.099 34.0892 36.099 34.1841L36.0986 35.0127ZM36.0878 36.2136C36.1946 36.2291 36.3222 36.241 36.435 36.241C36.7353 36.241 37.1361 36.1663 37.1361 35.8156C37.1361 35.491 36.8041 35.4064 36.5205 35.4064C36.3602 35.4064 36.2154 35.433 36.0878 35.4644V36.2136Z" fill="#3D565F"/>
<path d="M41.7046 32.824C41.779 32.8185 41.8326 32.8459 41.8326 32.9193V33.2431C41.8326 33.3173 41.7906 33.3547 41.7146 33.3598L41.2658 33.4028C40.8002 33.4453 40.4842 33.5721 40.3186 33.7695C40.1742 33.939 40.1482 34.146 40.1262 34.4499C40.335 34.2592 40.6182 34.146 40.9506 34.146C41.5818 34.146 42.0046 34.5392 42.0046 35.3369C42.0046 36.1501 41.5074 36.6915 40.7046 36.6915C39.645 36.6915 39.457 35.8152 39.457 35.066C39.457 34.2957 39.5494 33.7165 39.9178 33.3544C40.1694 33.1041 40.5866 32.9289 41.1482 32.8824L41.7046 32.824ZM40.1214 35.0072C40.1214 35.8267 40.3082 36.1874 40.7254 36.1874C41.153 36.1874 41.3302 35.8049 41.3302 35.3798C41.3302 35.045 41.2338 34.6522 40.7786 34.6522C40.5114 34.6522 40.2918 34.774 40.1214 34.96V35.0072Z" fill="#3D565F"/>
<path d="M43.6465 36.692C42.7737 36.692 42.3721 36.1068 42.3721 35.3322C42.3721 34.5664 42.8437 33.9832 43.6793 33.9832C44.5508 33.9832 44.9525 34.556 44.9525 35.3374C44.9525 36.1025 44.4813 36.692 43.6465 36.692ZM43.6736 34.4865C43.1969 34.4865 43.0412 34.8956 43.0412 35.3211C43.0412 35.7568 43.1753 36.1875 43.6525 36.1875C44.1217 36.1875 44.2829 35.7724 44.2829 35.3374C44.2829 34.9004 44.1441 34.4865 43.6736 34.4865Z" fill="#3D565F"/>
<path d="M46.4022 34.8157C46.4022 35.6018 46.2679 36.5275 45.3587 36.6605C45.2946 36.6713 45.241 36.6498 45.2311 36.5859L45.1774 36.2835C45.1659 36.235 45.1926 36.1814 45.2578 36.1664C45.6955 36.0547 45.7818 35.4859 45.7818 34.9333V34.1746C45.7818 34.0837 45.8346 34.0518 45.9203 34.0518H47.5846C47.6702 34.0518 47.7242 34.0837 47.7242 34.1746V36.4957C47.7242 36.5911 47.6814 36.6284 47.5846 36.6284H47.2098C47.1182 36.6284 47.0754 36.5911 47.0754 36.4957V34.4923H46.4022V34.8157Z" fill="#3D565F"/>
<path d="M49.0442 35.0127C49.2102 34.9707 49.4195 34.9333 49.6598 34.9333C50.1734 34.9333 50.7462 35.1196 50.7462 35.7512C50.7462 36.4957 49.9754 36.6923 49.2862 36.6923C49.055 36.6923 48.8038 36.666 48.5846 36.6283C48.4883 36.6132 48.3975 36.5703 48.3975 36.4269V34.1841C48.3975 34.0892 48.4402 34.0522 48.5358 34.0522H48.9111C49.0019 34.0522 49.0442 34.0892 49.0442 34.1841V35.0127ZM49.0339 36.2136C49.1414 36.2291 49.2694 36.241 49.3822 36.241C49.6814 36.241 50.083 36.1663 50.083 35.8156C50.083 35.491 49.751 35.4064 49.4678 35.4064C49.3074 35.4064 49.1622 35.433 49.0339 35.4644V36.2136Z" fill="#3D565F"/>
<path d="M52.5977 36.1874V34.1838C52.5977 34.0888 52.6404 34.0518 52.7365 34.0518H53.0948C53.1864 34.0518 53.2293 34.0888 53.2293 34.1838V36.1874H54.0156V34.1838C54.0156 34.0888 54.058 34.0518 54.1545 34.0518H54.5296C54.6213 34.0518 54.6641 34.0888 54.6641 34.1838V36.5064C54.6641 36.597 54.6101 36.6284 54.5248 36.6284H51.3032C51.2169 36.6284 51.1641 36.597 51.1641 36.5064V34.1838C51.1641 34.0888 51.2069 34.0518 51.3032 34.0518H51.678C51.7697 34.0518 51.8112 34.0888 51.8112 34.1838V36.1874H52.5977Z" fill="#3D565F"/>
<path d="M57.2841 36.0491C57.3425 36.0268 57.3961 36.0177 57.4181 36.0967L57.4929 36.3681C57.4981 36.3947 57.5037 36.4162 57.5037 36.4317C57.5037 36.469 57.4813 36.4953 57.4181 36.5226C57.1565 36.6385 56.7969 36.6923 56.5193 36.6923C55.6785 36.6923 55.1816 36.1611 55.1816 35.3325C55.1816 34.5356 55.7113 33.9835 56.5069 33.9835C56.8341 33.9835 57.1013 34.1055 57.2893 34.3013C57.5349 34.5567 57.6049 34.8904 57.6049 35.253V35.3325C57.6049 35.46 57.5629 35.4863 57.4277 35.4863H55.8613C55.9029 35.8949 56.2029 36.177 56.6265 36.177C56.8501 36.1766 57.0749 36.129 57.2841 36.0491ZM56.9689 35.0664C56.9689 35.0556 56.9689 35.0175 56.9689 35.0072C56.9581 34.7315 56.7969 34.4764 56.4709 34.4764C56.1233 34.4764 55.9141 34.7522 55.8717 35.0664H56.9689Z" fill="#3D565F"/>
<path d="M58.739 36.4952C58.739 36.5906 58.6966 36.6279 58.6058 36.6279H58.2314C58.1346 36.6279 58.0918 36.5906 58.0918 36.4952V34.1741C58.0918 34.0832 58.145 34.0513 58.2314 34.0513H59.723C59.7882 34.0513 59.8314 34.0776 59.8314 34.146V34.3957C59.8314 34.4653 59.7882 34.4915 59.723 34.4915H58.739V36.4952Z" fill="#3D565F"/>
<path d="M61.1842 36.692C60.3117 36.692 59.9102 36.1068 59.9102 35.3322C59.9102 34.5664 60.381 33.9832 61.2154 33.9832C62.0877 33.9832 62.4897 34.556 62.4897 35.3374C62.4897 36.1025 62.0186 36.692 61.1842 36.692ZM61.2102 34.4865C60.7341 34.4865 60.579 34.8956 60.579 35.3211C60.579 35.7568 60.7126 36.1875 61.1882 36.1875C61.6602 36.1875 61.8201 35.7724 61.8201 35.3374C61.8206 34.9004 61.6813 34.4865 61.2102 34.4865Z" fill="#3D565F"/>
<path d="M64.3032 34.1741C64.3032 34.0832 64.3572 34.0513 64.4415 34.0513H65.4047C66.0263 34.0513 66.4535 34.2369 66.4535 34.6937C66.4535 34.9595 66.3147 35.1775 66.0099 35.2459V35.263C66.3791 35.2936 66.6204 35.5124 66.6204 35.831C66.6204 36.4578 66.0787 36.6279 65.4475 36.6279H64.4411C64.3567 36.6279 64.3027 36.5965 64.3027 36.5059L64.3032 34.1741ZM64.9503 35.0921H65.2555C65.5915 35.0921 65.8003 35.0126 65.8003 34.7684C65.8003 34.525 65.5971 34.4657 65.2387 34.4657H64.9503V35.0921ZM64.9503 36.2135H65.3459C65.678 36.2135 65.962 36.1337 65.962 35.8524C65.962 35.5708 65.656 35.491 65.3311 35.491H64.9503V36.2135Z" fill="#3D565F"/>
<path d="M68.652 35.9963L69.2359 34.1785C69.2676 34.0781 69.3316 34.0518 69.4244 34.0518H69.9323C70.018 34.0518 70.076 34.0837 70.0824 34.1838L70.1828 36.4952C70.1891 36.5906 70.1408 36.6279 70.0436 36.6279H69.7184C69.6264 36.6279 69.5836 36.5906 69.5836 36.4952L69.5512 34.7681H69.5352L69.0003 36.4952C68.9687 36.6021 68.9091 36.6279 68.8288 36.6279H68.4064C68.3257 36.6279 68.2728 36.6021 68.2409 36.5004L67.6788 34.7637H67.6628L67.6312 36.4952C67.6312 36.5906 67.588 36.6279 67.4968 36.6279H67.1816C67.0856 36.6279 67.0369 36.5906 67.0424 36.4952L67.1544 34.1838C67.16 34.0837 67.2184 34.0518 67.3036 34.0518H67.8384C67.9301 34.0518 67.9944 34.0781 68.0268 34.1785L68.6364 35.9963H68.652Z" fill="#3D565F"/>
<path d="M72.7449 36.0491C72.8041 36.0268 72.8584 36.0177 72.8796 36.0967L72.955 36.3681C72.9606 36.3947 72.9649 36.4162 72.9649 36.4317C72.9649 36.469 72.9437 36.4953 72.8796 36.5226C72.618 36.6385 72.2592 36.6923 71.9808 36.6923C71.1405 36.6923 70.6436 36.1611 70.6436 35.3325C70.6436 34.5356 71.173 33.9835 71.9695 33.9835C72.2966 33.9835 72.5638 34.1055 72.7506 34.3013C72.9973 34.5567 73.0671 34.8904 73.0671 35.253V35.3325C73.0671 35.46 73.0234 35.4863 72.8901 35.4863H71.3224C71.3654 35.8949 71.665 36.177 72.0886 36.177C72.3121 36.1766 72.5377 36.129 72.7449 36.0491ZM72.4298 35.0664C72.4298 35.0556 72.4298 35.0175 72.4298 35.0072C72.4192 34.7315 72.2592 34.4764 71.9321 34.4764C71.5853 34.4764 71.3767 34.7522 71.333 35.0664H72.4298Z" fill="#3D565F"/>
<path d="M75.3039 36.0755C75.3617 36.0545 75.4005 36.0493 75.4209 36.1232L75.4907 36.3571C75.502 36.3949 75.5069 36.4266 75.5069 36.4472C75.5069 36.4898 75.4809 36.5108 75.4315 36.5331C75.1756 36.6499 74.9402 36.692 74.6561 36.692C73.8313 36.692 73.376 36.1816 73.376 35.3644C73.376 34.5398 73.8751 33.9829 74.704 33.9829C74.9458 33.9829 75.1968 34.0306 75.4216 34.1306C75.4914 34.1624 75.4914 34.1997 75.4766 34.2692L75.4061 34.5501C75.3963 34.5986 75.3737 34.6255 75.342 34.6255C75.3244 34.6255 75.3039 34.6153 75.2828 34.6033C75.1277 34.5394 74.9571 34.4861 74.7682 34.4861C74.3086 34.4861 74.0464 34.8107 74.0464 35.3318C74.0464 35.8419 74.2818 36.1918 74.7421 36.1918C74.9712 36.1923 75.115 36.1506 75.3039 36.0755Z" fill="#3D565F"/>
<path d="M75.7642 34.492C75.7001 34.492 75.6562 34.4658 75.6562 34.3962V34.1465C75.6562 34.0781 75.7001 34.0518 75.7642 34.0518H77.8479C77.9121 34.0518 77.9544 34.0781 77.9544 34.1465V34.3962C77.9544 34.4658 77.9121 34.492 77.8479 34.492H77.1296V36.4952C77.1296 36.5906 77.0866 36.6279 76.9978 36.6279H76.6214C76.5248 36.6279 76.4818 36.5906 76.4818 36.4952V34.492H75.7642Z" fill="#3D565F"/>
<path d="M80.1386 36.0491C80.1971 36.0268 80.2493 36.0177 80.2712 36.0967L80.3459 36.3681C80.3522 36.3947 80.3579 36.4162 80.3579 36.4317C80.3579 36.469 80.3367 36.4953 80.2712 36.5226C80.0096 36.6385 79.6508 36.6923 79.3717 36.6923C78.5328 36.6923 78.0352 36.1611 78.0352 35.3325C78.0352 34.5356 78.5646 33.9835 79.3625 33.9835C79.6882 33.9835 79.9561 34.1055 80.1429 34.3013C80.3889 34.5567 80.4587 34.8904 80.4587 35.253V35.3325C80.4587 35.46 80.4164 35.4863 80.2831 35.4863H78.7147C78.7577 35.8949 79.0566 36.177 79.4795 36.177C79.7051 36.1766 79.93 36.129 80.1386 36.0491ZM79.8228 35.0664C79.8228 35.0556 79.8228 35.0175 79.8228 35.0072C79.8116 34.7315 79.6508 34.4764 79.3252 34.4764C78.9776 34.4764 78.7683 34.7522 78.726 35.0664H79.8228Z" fill="#3D565F"/>
</svg>
