<svg width="100" height="42" viewBox="0 0 100 42" fill="none" xmlns="http://www.w3.org/2000/svg">
<path fill-rule="evenodd" clip-rule="evenodd" d="M28.5869 18.3833C28.3935 18.0848 27.7514 17.0944 26.1897 17.0944C24.6261 17.0944 23.5316 18.3453 23.5316 19.987C23.5316 21.6288 24.6261 22.9578 26.1897 22.9578C27.8314 22.9578 28.4569 21.8634 28.6132 21.5506H30.0986C30.0204 22.0979 29.1604 24.365 26.1897 24.365C23.8443 24.365 21.9681 22.4106 21.9681 19.987C21.9681 17.5635 23.8443 15.6872 26.1897 15.6872C29.1604 15.6872 30.0204 17.7981 30.0986 18.4235H28.6132C28.6056 18.412 28.5968 18.3986 28.5869 18.3833ZM33.4602 15.8436V22.0979L38.2291 15.8436H39.7927V24.1305H38.2291V17.8762L33.4602 24.1305H31.8967V15.8436H33.4602ZM44.4834 17.2508H41.1217V15.8436H49.4086V17.2508H46.0469V24.1305H44.4834V17.2508ZM52.3012 15.8436V22.0979L57.0701 15.8436H58.6336V24.1305H57.0701V17.8762L52.3012 24.1305H50.7376V15.8436H52.3012ZM60.1972 22.8797C61.2916 22.8797 61.5262 22.3324 61.7608 20.4562L62.2298 15.8436H68.4061V24.1305H66.8424V17.2508H63.4025L63.0898 20.5343C62.8552 23.1142 62.2298 24.2868 60.4317 24.2868H59.9627V22.8797H60.1972ZM72.3151 15.8436V22.0979L77.0833 15.8436H78.647V24.1305H77.0833V17.8762L72.3151 24.1305H70.7514V15.8436H72.3151ZM82.556 19.2835H87.1687V15.8436H88.7325V24.1305H87.1687V20.6124H82.556V24.1305H80.9923V15.8436H82.556V19.2835ZM99.1302 15.8436L94.2044 19.8307L99.3641 24.1305H97.1757L92.563 20.3779V24.1305H91.0777V15.8436H92.563V19.4398L96.9411 15.8436H99.1302ZM4.53431 28.4303L13.5248 26.7103C14.8538 26.4758 15.8702 25.3031 15.8702 23.896V15.5309C15.8702 14.2019 14.932 13.0292 13.5248 12.7947L4.53431 11.0747C2.18901 10.6057 0 12.4038 0 14.8273V24.6777C0 27.1012 2.18901 28.8994 4.53431 28.4303ZM4.92521 16.5472V23.1924C4.92521 23.505 5.23795 23.7396 5.47248 23.7396L12.1958 22.7232V24.2087L5.78515 25.225C4.53431 25.3813 3.43984 24.4432 3.43984 23.1924V16.6253C3.43984 15.3745 4.53431 14.4364 5.78515 14.5927L12.1176 15.609L12.1958 17.0944L5.55063 16.0781C5.23795 15.9999 4.92521 16.2344 4.92521 16.5472Z" fill="#3D565F"/>
<path d="M22.4375 26.6777H23.6883C24.1575 26.6777 24.5483 26.8341 24.5483 27.3031C24.5483 27.6159 24.392 27.7722 24.2356 27.8504C24.392 27.9285 24.6265 28.0849 24.6265 28.3977C24.6265 28.7885 24.3138 29.1012 23.7666 29.1012H22.4375V26.6777ZM22.9065 27.0686V27.694H23.6883C23.9229 27.694 24.0792 27.5376 24.0792 27.3813C24.0792 27.1467 24.0011 27.0686 23.6883 27.0686H22.9065ZM22.9065 28.0849V28.7103H23.7666C24.0011 28.7103 24.1575 28.554 24.1575 28.3194C24.1575 28.1631 24.0011 28.0849 23.7666 28.0849H22.9065ZM26.3464 26.9904C25.8773 26.9904 25.5646 27.3813 25.5646 27.8504C25.5646 28.3194 25.8773 28.7103 26.3464 28.7103C26.8155 28.7103 26.9718 28.3977 27.05 28.3194H27.4409C27.4409 28.4758 27.2064 29.1794 26.3464 29.1794C25.6428 29.1794 25.0956 28.6322 25.0956 27.8504C25.0956 27.1467 25.6428 26.5995 26.3464 26.5995C27.2064 26.5995 27.4409 27.225 27.4409 27.3813H27.05C26.9718 27.3813 26.8155 26.9904 26.3464 26.9904ZM30.3335 27.9285H28.379C28.379 28.3977 28.6918 28.7103 29.1608 28.7103C29.6299 28.7103 29.8645 28.4758 29.8645 28.3977H30.3335C30.2554 28.6322 29.9426 29.1794 29.1608 29.1794C28.4572 29.1794 27.91 28.554 27.91 27.8504C27.91 27.1467 28.379 26.5995 29.0827 26.5995C29.8645 26.5995 30.3335 27.1467 30.3335 27.9285ZM28.379 27.5376H29.8645C29.7862 27.225 29.4736 26.9904 29.1608 26.9904C28.7699 26.9904 28.4572 27.225 28.379 27.5376ZM32.4443 26.6777H34.2424V29.1012H33.8515V27.0686H32.8352L32.757 28.0068C32.6788 28.7885 32.4443 29.1012 31.9752 29.1012H31.8189V28.7103H31.8971C32.2098 28.7103 32.288 28.554 32.3661 28.0068L32.4443 26.6777ZM35.806 29.0231L34.7114 26.6777H35.2587L36.0405 28.4758L36.9004 26.6777H37.3695L35.7278 30.1957H35.3369L35.806 29.0231ZM39.4804 28.1631L38.7767 28.2413C38.1513 28.2413 37.7604 28.0068 37.7604 27.3031V26.6777H38.2295V27.225C38.2295 27.6159 38.3077 27.8504 38.7767 27.8504L39.4804 27.7722V26.6777H39.9494V29.1012H39.4804V28.1631ZM41.2002 26.6777V28.7103H42.2948V26.6777H42.7638V28.7103H43.8583V26.6777H44.3274V29.1012H40.7312V26.6777H41.2002ZM47.3764 27.9285H45.4219C45.4219 28.3977 45.7346 28.7103 46.2037 28.7103C46.6727 28.7103 46.9072 28.4758 46.9072 28.3977H47.3764C47.3764 28.6322 47.0636 29.1794 46.2037 29.1794C45.5 29.1794 44.9528 28.554 44.9528 27.8504C44.9528 27.1467 45.5 26.5995 46.2037 26.5995C46.9072 26.5995 47.3764 27.1467 47.3764 27.9285ZM45.4219 27.5376H46.9072C46.8558 27.3813 46.7564 27.2451 46.623 27.1485C46.4897 27.052 46.3292 27 46.1646 27C45.9999 27 45.8395 27.052 45.7061 27.1485C45.5728 27.2451 45.4733 27.3813 45.4219 27.5376ZM50.3471 27.9285H48.3144C48.3144 28.3977 48.6272 28.7103 49.0962 28.7103C49.6435 28.7103 49.7999 28.4758 49.7999 28.3977H50.2689C50.2689 28.6322 49.9562 29.1794 49.0962 29.1794C48.3927 29.1794 47.8454 28.554 47.8454 27.8504C47.8454 27.1467 48.3927 26.5995 49.0962 26.5995C49.7999 26.5995 50.3471 27.1467 50.3471 27.9285ZM48.3144 27.5376H49.7999C49.7217 27.225 49.409 26.9904 49.0962 26.9904C48.7053 26.9904 48.3927 27.225 48.3144 27.5376ZM51.6761 29.8048V28.7103H51.9888C52.1452 28.4758 52.2234 28.1631 52.3016 27.5376L52.3797 26.6777H54.1778V28.7103H54.6469V29.8048H54.256V29.1012H52.067V29.8048H51.6761ZM53.7088 27.0686H52.7706L52.6925 27.6159C52.6142 28.1631 52.5361 28.4758 52.3797 28.7103H53.7088V27.0686ZM55.585 26.6777H57.3831V29.1012H56.9141V27.0686H55.8978L55.8196 28.0068C55.7414 28.7885 55.585 29.1012 55.0378 29.1012H54.8815V28.7103H54.9596C55.2723 28.7103 55.3505 28.554 55.4287 28.0068L55.585 26.6777ZM59.7285 29.1012V28.2413H59.0249L58.4776 29.1012H57.9304L58.5558 28.1631C58.1649 28.0849 58.0086 27.7722 58.0086 27.3813C58.0086 26.9904 58.2431 26.6777 58.8685 26.6777H60.1976V29.1012H59.7285ZM59.7285 27.7722V27.0686H58.9467C58.634 27.0686 58.4776 27.225 58.4776 27.4595C58.4776 27.694 58.634 27.8504 58.8685 27.8504H59.7285V27.7722ZM62.8556 27.0686H61.8393V26.6777H64.2628V27.0686H63.3247V29.1012H62.8556V27.0686ZM66.9989 27.9285H64.9664C65.0446 28.3977 65.3573 28.7103 65.8263 28.7103C66.2955 28.7103 66.5297 28.4758 66.5297 28.3977H66.9989C66.9212 28.6322 66.6081 29.1794 65.8263 29.1794C65.0446 29.1794 64.4974 28.554 64.4974 27.8504C64.4974 27.1467 65.0446 26.5995 65.7482 26.5995C66.452 26.5995 66.9989 27.1467 66.9989 27.9285ZM65.0446 27.5376H66.5297C66.3735 27.225 66.1391 26.9904 65.7482 26.9904C65.3573 26.9904 65.1228 27.225 65.0446 27.5376ZM70.0479 27.9285C70.0479 28.6322 69.501 29.1794 68.7188 29.1794C68.0157 29.1794 67.4681 28.6322 67.4681 27.8504L67.5465 27.0686C67.6242 26.2868 67.9373 25.8177 68.8757 25.6614L69.8133 25.505V25.8959L68.8757 26.0523C68.2496 26.1304 68.0157 26.4432 67.9373 27.1467C68.0934 26.9122 68.4065 26.6777 68.7972 26.6777C69.501 26.6777 70.0479 27.1467 70.0479 27.9285ZM69.5787 27.9285C69.5787 27.4595 69.2664 27.1467 68.7188 27.1467C68.1719 27.1467 67.9373 27.4595 67.9373 27.9285C67.9373 28.3977 68.2496 28.7103 68.7972 28.7103C69.2664 28.7103 69.5787 28.3977 69.5787 27.9285ZM72.237 29.1012V28.2413H71.5332L70.9079 29.1012H70.4387L71.064 28.1631C70.6733 28.0849 70.5171 27.7722 70.5171 27.3813C70.5171 26.9904 70.7517 26.6777 71.377 26.6777H72.7062V29.1012H72.237ZM72.237 27.7722V27.0686H71.377C71.1424 27.0686 70.9863 27.225 70.9863 27.4595C70.9863 27.694 71.1424 27.8504 71.377 27.8504H72.237V27.7722Z" fill="#3D565F"/>
</svg>
