<svg width="59" height="42" viewBox="0 0 59 42" fill="none" xmlns="http://www.w3.org/2000/svg">
<g clip-path="url(#clip0_216_240)">
<mask id="mask0_216_240" style="mask-type:luminance" maskUnits="userSpaceOnUse" x="0" y="0" width="59" height="42">
<path d="M59 0H0V42H59V0Z" fill="white"/>
</mask>
<g mask="url(#mask0_216_240)">
<mask id="mask1_216_240" style="mask-type:luminance" maskUnits="userSpaceOnUse" x="0" y="0" width="59" height="42">
<path d="M59 0H0V42H59V0Z" fill="white"/>
</mask>
<g mask="url(#mask1_216_240)">
<mask id="mask2_216_240" style="mask-type:luminance" maskUnits="userSpaceOnUse" x="0" y="0" width="59" height="42">
<path d="M59 0H0V42H59V0Z" fill="white"/>
</mask>
<g mask="url(#mask2_216_240)">
<mask id="mask3_216_240" style="mask-type:luminance" maskUnits="userSpaceOnUse" x="0" y="15" width="59" height="13">
<path d="M59 15H0V27.6412H59V15Z" fill="white"/>
</mask>
<g mask="url(#mask3_216_240)">
<path d="M45.2956 17.6186C45.6416 17.6186 45.9877 17.6661 46.3217 17.7732L46.9363 15.4661C46.5962 15.4007 46.2442 15.371 45.8981 15.371C42.9628 15.371 39.9737 17.4342 38.7327 20.1515C38.5717 20.4964 38.4404 20.8592 38.3449 21.2278C38.2435 21.6083 38.1778 22.0008 38.154 22.3992C37.9929 25.0749 39.8782 27.0906 42.7778 27.0906C43.1478 27.0906 43.5176 27.0549 43.8816 26.9954L44.4961 24.6884C44.1321 24.7895 43.7563 24.8429 43.3805 24.8429C41.9187 24.95 40.6479 23.8559 40.5345 22.4051H45.0987L45.6357 20.4013L45.6953 20.1575H41.1013C41.9724 18.6472 43.5535 17.6959 45.2956 17.6186ZM31.7463 15.3888H39.3413L38.7805 17.6245H36.1792L33.8046 27.0846H31.4122L33.7867 17.6245H31.1854L31.7463 15.3888ZM6.2526 15.3888C4.59399 15.4245 3.10244 16.4056 2.40439 17.9099C1.93902 19.2299 2.30296 20.6986 3.32915 21.644L5.16079 23.1721C5.477 23.4754 5.53666 23.9511 5.30994 24.3256C5.04743 24.7062 4.58803 24.9024 4.12266 24.831H0.572758L0 27.0846H4.1167C5.63808 27.1025 7.05204 26.3116 7.82171 25.0035C7.82171 25.0035 9.1641 22.9819 7.57117 21.3765C7.54132 21.3408 5.23834 19.337 5.23834 19.337C4.91617 19.0932 4.77894 18.677 4.89827 18.2905C5.02953 17.9813 5.29801 17.7553 5.62615 17.678C5.80514 17.6364 5.99009 17.6186 6.16908 17.6245H9.0329L9.59368 15.3888H6.2526ZM17.3438 15.365C14.0326 15.365 10.6497 17.9872 9.79056 21.2218C8.92551 24.4565 10.9123 27.0787 14.2175 27.0787C17.5228 27.0787 20.9116 24.4565 21.7708 21.2218C22.6299 17.9872 20.6551 15.365 17.3438 15.365ZM19.4738 21.2218C18.8473 23.2851 16.9798 24.7359 14.8201 24.831C12.7797 24.831 11.5625 23.2138 12.0935 21.2218C12.72 19.1526 14.5814 17.7078 16.7472 17.6126C18.7817 17.6126 20.0047 19.2299 19.4738 21.2218ZM29.497 20.1338H25.7621L26.0604 18.8613C26.2693 18.1953 26.8421 17.7137 27.5341 17.6245H30.1116L30.6723 15.3888H27.8503C25.8457 15.4542 24.1334 16.8634 23.6919 18.8197L21.5977 27.0906H23.9902L25.1954 22.3873H28.9362L29.497 20.1338ZM54.3642 15.3591C51.4646 15.3591 48.5054 17.3748 47.2406 20.0564C47.0616 20.437 46.9124 20.8294 46.8051 21.2397C46.7573 21.43 46.7156 21.6202 46.6857 21.8105C46.6857 21.8164 46.6857 21.8283 46.6797 21.8343C46.6499 22.0126 46.632 22.1911 46.6201 22.3635C46.6201 22.3992 46.6141 22.4289 46.6141 22.4646C46.6141 22.5122 46.6082 22.5597 46.6082 22.6073C46.6082 22.7143 46.6141 22.8273 46.6141 22.9343C46.6141 22.9581 46.6141 22.9819 46.6141 23.0057C46.6261 23.1721 46.6439 23.3327 46.6678 23.4932C46.6678 23.5051 46.6738 23.517 46.6738 23.5289C46.9065 25.1759 48.058 26.5554 49.639 27.0906L49.645 27.0727L50.2774 24.6646C49.2392 24.07 48.7321 22.637 49.108 21.2337C49.7345 19.1645 51.6019 17.7197 53.7616 17.6245C55.8021 17.6245 57.0192 19.2418 56.4882 21.2337C55.999 22.8273 54.77 24.0879 53.183 24.6111L53.7437 22.3932H51.5005L50.0745 28.0062H52.3238L52.5863 26.9538C53.2009 26.823 53.7975 26.6149 54.3642 26.3354L54.4716 26.2819C54.6983 26.169 54.9191 26.0441 55.1399 25.9132C55.1876 25.8835 55.2353 25.8598 55.2831 25.83C55.3905 25.7586 55.5038 25.6873 55.6112 25.61C55.7007 25.5505 55.7842 25.4851 55.8677 25.4197C55.999 25.3187 56.1243 25.2176 56.2436 25.1165C56.345 25.0273 56.4464 24.944 56.5419 24.8549C56.6075 24.7954 56.6732 24.7359 56.7388 24.6705C56.882 24.5278 57.0252 24.3792 57.1565 24.2246C57.1982 24.177 57.24 24.1235 57.2817 24.076C57.4249 23.9035 57.5681 23.7251 57.6993 23.5408C57.7172 23.517 57.7292 23.4932 57.7471 23.4754C57.8425 23.3327 57.938 23.19 58.0215 23.0414C58.0454 22.9997 58.0693 22.9581 58.0932 22.9165C58.1647 22.7856 58.2363 22.6548 58.302 22.5241C58.3318 22.4705 58.3556 22.417 58.3855 22.3575C58.4391 22.2386 58.4929 22.1138 58.5406 21.9949C58.5704 21.9294 58.5943 21.8581 58.6242 21.7927C58.6599 21.6916 58.6898 21.5905 58.7196 21.4895C58.7494 21.4062 58.7792 21.3229 58.8031 21.2337C59.6623 17.9813 57.6755 15.3591 54.3642 15.3591Z" fill="#3D565F"/>
</g>
</g>
</g>
</g>
</g>
<defs>
<clipPath id="clip0_216_240">
<rect width="59" height="42" fill="white"/>
</clipPath>
</defs>
</svg>
