<svg width="59" height="42" viewBox="0 0 59 42" fill="none" xmlns="http://www.w3.org/2000/svg">
<g clip-path="url(#clip0_216_258)">
<mask id="mask0_216_258" style="mask-type:luminance" maskUnits="userSpaceOnUse" x="0" y="0" width="59" height="42">
<path d="M59 0H0V42H59V0Z" fill="white"/>
</mask>
<g mask="url(#mask0_216_258)">
<mask id="mask1_216_258" style="mask-type:luminance" maskUnits="userSpaceOnUse" x="0" y="0" width="59" height="42">
<path d="M59 0H0V42H59V0Z" fill="white"/>
</mask>
<g mask="url(#mask1_216_258)">
<mask id="mask2_216_258" style="mask-type:luminance" maskUnits="userSpaceOnUse" x="0" y="0" width="59" height="42">
<path d="M59 0H0V42H59V0Z" fill="white"/>
</mask>
<g mask="url(#mask2_216_258)">
<path d="M55.4591 16.174C55.4591 16.174 52.754 18.9769 52.287 19.4613V16.174H50.1109V25.16H52.287V22.1285C52.3549 22.0609 52.7979 21.6171 52.9787 21.4364C53.1833 21.7198 55.6656 25.16 55.6656 25.16H58.4607C58.4607 25.16 54.6644 20.1002 54.5101 19.8937C54.693 19.7151 58.3225 16.174 58.3225 16.174H55.4591ZM41.1666 19.1617L41.1538 19.3292H43.3041L43.3363 19.2146C43.4765 18.7158 43.7366 17.788 45.1715 17.788C45.5232 17.788 46.6647 17.9213 47.0687 19.5313H44.606V21.3371H47.1651C47.0578 22.1155 46.657 23.5461 45.1586 23.5461C44.2053 23.5461 43.542 22.9818 43.3391 21.9986L43.3129 21.8735H41.1329L41.169 22.0581C41.5818 24.1732 43.0497 25.3863 45.1965 25.3863C47.8187 25.3863 49.4473 23.5829 49.4473 20.6792C49.4473 17.8048 47.7689 15.9477 45.1715 15.9477C42.5894 15.9477 41.2852 17.6135 41.1666 19.1617ZM39.0369 16.174C39.0369 16.174 37.5019 20.1917 37.2757 20.7839C36.9919 20.212 34.9878 16.174 34.9878 16.174H32.5203C32.5203 16.174 36.1486 22.8951 36.2278 23.0421C35.9653 23.4995 35.8536 23.57 35.4521 23.57C35.243 23.57 34.932 23.5019 34.7933 23.441L34.567 23.3412V25.2445L34.6883 25.2742C34.895 25.3246 35.4802 25.3863 35.8688 25.3863C36.8198 25.3863 37.4927 25.115 38.1169 23.7283L41.4952 16.174H39.0369ZM26.0001 17.1469C25.1975 17.9812 24.7734 19.2026 24.7734 20.6793C24.7734 23.5826 26.3929 25.3866 28.9994 25.3866C31.1454 25.3866 32.6128 24.1734 33.0256 22.0583L33.0618 21.8733H30.8825L30.8564 21.9983C30.6522 22.9821 29.989 23.5458 29.0356 23.5458C27.4966 23.5458 26.9479 22.0774 26.9479 20.7028C26.9479 18.5536 28.0268 17.7878 29.0356 17.7878C30.46 17.7878 30.7193 18.7158 30.8588 19.214L30.8914 19.3289H33.0409L33.028 19.1616C32.9087 17.6138 31.6044 15.9474 29.0239 15.9474C27.8001 15.9474 26.7546 16.3622 26.0001 17.1469Z" fill="#3D565F"/>
<path d="M15.1889 22.2478C15.0977 22.3366 12.0176 25.2896 11.8018 25.5007C12.2209 25.7939 14.0209 26.8823 16.4276 26.0793C16.6105 26.0156 16.9337 25.9354 17.123 25.8471L17.3151 25.6465C17.8967 24.9889 18.6604 24.1022 19.0897 22.2478C18.3955 21.962 17.5816 21.7744 16.8372 21.7744C16.1961 21.7744 15.6069 21.9132 15.1889 22.2478Z" fill="#3D565F"/>
<path d="M9.91945 13.3556L9.09907 13.5707L8.63368 13.7337C7.94395 14.0047 7.32857 14.4015 6.75098 14.8503C9.57057 14.034 11.5734 15.6322 11.6048 15.6581C11.6048 15.6581 15.092 18.3835 15.1892 18.4781C16.0506 19.3167 18.0494 19.387 18.9819 18.6845C18.7569 17.7415 17.8621 16.0854 16.9015 15.2862L16.635 15.0485C15.9112 14.4582 15.3042 14.075 14.3733 13.7095L13.8806 13.5413L13.0968 13.3447C12.5851 13.2423 12.0051 13.1977 11.4802 13.1977C10.9564 13.1977 10.4315 13.2505 9.91945 13.3556Z" fill="#3D565F"/>
<path d="M5.62988 23.7953C5.62988 24.2852 5.70464 24.8236 5.89597 25.3963C5.96591 25.5996 6.05313 25.8053 6.15441 26.0156L6.16647 26.0422C6.88433 26.7225 7.71435 27.2538 8.63723 27.6166L9.10426 27.7788L9.92301 27.9951C10.4351 28.0994 10.9612 28.1526 11.4862 28.1526C12.0103 28.1526 12.5356 28.1186 13.0469 28.0146L13.8845 27.8094L14.438 27.6166C15.1273 27.3453 15.8178 26.9492 16.3954 26.4985C13.5754 27.3152 11.3953 25.7185 11.3716 25.7005L11.3668 25.6966C11.3668 25.6966 6.76496 21.2212 6.52179 20.9851C6.29992 21.2869 5.62988 22.3226 5.62988 23.7953Z" fill="#3D565F"/>
<path d="M6.53567 15.2698C6.3556 15.334 6.16871 15.4094 5.98181 15.4966L5.96573 15.5025C5.26515 16.2015 4.71972 17.0105 4.34752 17.907L4.17952 18.3596L3.95764 19.158C3.85032 19.6542 3.79688 20.1647 3.79688 20.6757C3.79688 21.1867 3.85032 21.6989 3.95764 22.1958L4.17952 22.993L4.34752 23.4465C4.62687 24.119 5.03403 24.718 5.49747 25.2782C5.32704 24.723 5.24828 24.1952 5.24828 23.7147C5.24828 21.8228 6.30054 20.5835 6.31502 20.567L6.32065 20.5608C6.32065 20.5608 10.9229 16.0851 11.1656 15.8493C10.8546 15.6331 9.78857 14.9805 8.27931 14.9802C7.74874 14.9802 7.16306 15.061 6.53567 15.2698Z" fill="#3D565F"/>
<path d="M20.5032 20.0838V20.0341C20.904 19.1947 21.6572 19.1779 22.4869 19.9426C22.4869 18.6626 22.2043 17.6465 21.5708 17.0725C20.6749 16.2988 19.7376 16.8028 18.9715 15.7503C18.881 14.8323 19.531 14.4433 20.6475 14.7009C19.9811 13.6031 19.2106 12.8615 18.373 12.6715C18.1845 12.6304 18.0141 12.6198 17.8505 12.6383C17.5341 12.6535 17.2608 12.7454 16.9959 12.8212C16.8589 12.8615 16.7206 12.9033 16.5844 12.9299C16.4903 12.9451 16.3963 12.9616 16.293 12.9616C16.0426 12.978 15.7664 12.9358 15.4413 12.7884C14.9031 12.0424 15.2463 11.4133 16.293 11.0889C16.3195 11.0834 16.338 11.0752 16.3541 11.0642C16.338 11.0572 16.3195 11.0478 16.293 11.0419C15.721 10.7237 15.1647 10.4989 14.6599 10.3914C14.1716 10.2916 13.727 10.2835 13.3351 10.3996C12.4284 10.699 12.2314 11.4313 11.5039 11.7715C11.3496 11.8481 11.1546 11.9052 10.9223 11.9306H10.8712C10.0075 11.5385 9.99016 10.807 10.776 10C9.76795 10 8.91181 10.1673 8.29643 10.5161C8.11716 10.624 7.9548 10.7487 7.81654 10.8902C7.09908 11.6905 7.4656 12.5202 6.70478 13.2278C6.63686 13.2951 6.55365 13.356 6.46563 13.4198H6.42383H6.41418C6.26064 13.4288 6.12439 13.4198 5.99536 13.3956C5.38763 13.2533 5.16617 12.6715 5.38763 11.7894C5.30403 11.8387 5.21802 11.8888 5.132 11.9388C4.14002 12.5463 3.46356 13.2361 3.2843 13.9847C3.04474 15.1349 3.97684 15.6753 3.39603 16.8638C2.61708 17.4045 1.95026 17.0554 1.6239 15.9833C0.966324 17.0976 0.691397 18.12 0.940597 18.9191C1.32445 20.0099 2.36909 20.0341 2.52222 21.2735V21.3243C2.12953 22.1641 1.36826 22.1884 0.539062 21.4244C0.539062 22.6966 0.82886 23.7205 1.46191 24.2949C2.35823 25.0592 3.29596 24.5568 4.06325 25.6089C4.15288 26.5261 3.50335 26.9147 2.38556 26.6571C3.05439 27.7635 3.82329 28.5126 4.66134 28.6963C4.83216 28.7303 4.9865 28.7378 5.132 28.7378C5.44873 28.721 5.72164 28.6381 5.99536 28.5552C6.13243 28.5126 6.26948 28.4719 6.41418 28.4371H6.42383C6.51748 28.4219 6.61234 28.4035 6.70478 28.3972C6.97689 28.3816 7.26507 28.4211 7.60265 28.5755C8.13763 29.3274 7.78477 29.9646 6.70478 30.2864C6.70478 30.2864 6.69714 30.2938 6.68831 30.2938C6.69715 30.3032 6.70478 30.3032 6.70478 30.3086C7.2699 30.6183 7.80083 30.8329 8.29643 30.951C8.81691 31.0675 9.28799 31.0765 9.70724 30.951C10.6048 30.6602 10.8041 29.9361 11.5039 29.5944C11.6743 29.5107 11.8708 29.4532 12.1196 29.4208H12.1707C13.0357 29.8114 13.0533 30.5444 12.2656 31.3506C13.231 31.3506 14.0534 31.2009 14.6599 30.8771C14.8741 30.7594 15.063 30.6257 15.2254 30.4596C15.9337 29.669 15.5844 28.8551 16.293 28.1556C16.3794 28.0723 16.4738 27.9969 16.5844 27.9214C16.5763 27.93 16.5683 27.93 16.5683 27.93C16.5683 27.9214 16.5763 27.9214 16.5844 27.9144C16.5844 27.9144 16.5928 27.9062 16.6009 27.9062C16.5956 27.9109 16.5908 27.916 16.5844 27.9214C16.7295 27.9144 16.8689 27.9214 16.9959 27.9386C17.6354 28.056 17.8762 28.6467 17.6535 29.5541C17.7219 29.5197 17.7902 29.4779 17.8505 29.4352C18.8778 28.8203 19.5703 28.1134 19.7508 27.3483C19.99 26.1914 19.0559 25.6601 19.6303 24.4688C19.6303 24.4778 19.621 24.4872 19.621 24.4939C20.4 23.9617 21.066 24.3117 21.3924 25.3763C22.0508 24.2695 22.3253 23.2463 22.0753 22.4476C21.699 21.3575 20.6475 21.3243 20.5032 20.0838ZM17.8505 15.2995C19.1427 16.7398 19.9293 18.6208 19.9293 20.6753C19.9293 22.7306 19.1427 24.6111 17.8505 26.0499C17.586 26.3509 17.3026 26.6238 16.9959 26.8815C16.8589 26.9898 16.7206 27.0984 16.5844 27.206C16.4903 27.2732 16.3963 27.3401 16.293 27.4069C15.7894 27.7482 15.2423 28.0387 14.6599 28.2721C13.6848 28.6545 12.6157 28.8637 11.5039 28.8637C10.3749 28.8637 9.28799 28.6467 8.29643 28.2467C7.74055 28.0137 7.20152 27.7314 6.70478 27.3901C6.61234 27.3233 6.51748 27.2568 6.42383 27.1903L6.41418 27.1822C6.26948 27.0734 6.13243 26.9671 5.99536 26.8483C5.68708 26.5914 5.39688 26.3083 5.132 26.0085C3.86509 24.5783 3.09659 22.7056 3.09659 20.6753C3.09659 18.6361 3.86509 16.7739 5.132 15.3328C5.39688 15.0337 5.68708 14.7514 5.99536 14.4937C6.13243 14.3765 6.26948 14.2678 6.41418 14.1603C6.41418 14.1603 6.42383 14.1603 6.42383 14.1521C6.51748 14.0845 6.61234 14.0191 6.70478 13.9531C7.20152 13.627 7.74055 13.3361 8.29643 13.1121C9.28799 12.7129 10.3749 12.4878 11.5039 12.4878C12.6157 12.4878 13.6848 12.7036 14.6599 13.0863C15.2423 13.3126 15.7894 13.6031 16.293 13.9433C16.3963 14.0027 16.4903 14.0774 16.5844 14.145C16.7206 14.2443 16.8589 14.3502 16.9959 14.4605L17.8505 15.2995Z" fill="#3D565F"/>
</g>
</g>
</g>
</g>
<defs>
<clipPath id="clip0_216_258">
<rect width="59" height="42" fill="white"/>
</clipPath>
</defs>
</svg>
