<svg width="82" height="42" viewBox="0 0 82 42" fill="none" xmlns="http://www.w3.org/2000/svg">
<g clip-path="url(#clip0_216_277)">
<mask id="mask0_216_277" style="mask-type:luminance" maskUnits="userSpaceOnUse" x="0" y="0" width="82" height="42">
<path d="M82 0H0V42H82V0Z" fill="white"/>
</mask>
<g mask="url(#mask0_216_277)">
<mask id="mask1_216_277" style="mask-type:luminance" maskUnits="userSpaceOnUse" x="0" y="0" width="82" height="42">
<path d="M82 0H0V42H82V0Z" fill="white"/>
</mask>
<g mask="url(#mask1_216_277)">
<path d="M9.19335 14.5317C10.6469 18.0836 8.27693 20.3494 5.93849 22.6153C3.75807 24.9423 1.83046 27.3613 5.68569 31.7092C4.23208 28.1574 6.6021 25.8915 8.9405 23.6257C11.1209 21.2986 13.0486 18.8797 9.19335 14.5317Z" fill="#3D565F"/>
<path d="M5.68548 10C7.13909 13.5519 4.76907 15.8177 2.43066 18.0835C0.281842 20.4106 -1.64577 22.8295 2.20945 27.2081C0.75585 23.6562 3.12586 21.3904 5.46427 19.1246C7.64466 16.7669 9.5723 14.3479 5.68548 10Z" fill="#3D565F"/>
<path d="M65.2197 23.9624V31.2804H68.5062V28.5859H72.1405V26.9937H68.5062V25.5545H75.7428V31.2804H79.0292V25.5545H81.9995V23.9624H65.2197Z" fill="#3D565F"/>
<path d="M58.1102 29.6882V28.4328H62.4395V26.81H58.1102V25.5545H63.6719V23.9624H54.8555V31.2804H63.7351V29.6882H58.1102Z" fill="#3D565F"/>
<path d="M41.8358 23.9624H32.8613V25.5545H35.8002V31.2804H39.0866V25.5545H41.8358V23.9624Z" fill="#3D565F"/>
<path d="M23.3822 23.9624H14.1865V25.5545H17.1254V31.2804H20.4118V25.5545H23.3822V23.9624Z" fill="#3D565F"/>
<path d="M29.8601 23.9624H26.3209L22.2129 31.2804H24.3301L24.9937 30.025H29.6073L30.2709 31.2804H33.9366L29.8601 23.9624ZM25.8469 28.4941L27.3637 25.6465L28.8173 28.4941H25.8469Z" fill="#3D565F"/>
<path d="M50.8105 23.9624V27.6061L45.5332 23.9624H42.9736V31.2804H45.2173V27.2387L50.6209 31.2804H53.0541V23.9624H50.8105Z" fill="#3D565F"/>
</g>
</g>
</g>
<defs>
<clipPath id="clip0_216_277">
<rect width="82" height="42" fill="white"/>
</clipPath>
</defs>
</svg>
