<svg width="62" height="27" viewBox="0 0 62 27" fill="none" xmlns="http://www.w3.org/2000/svg">
<g clip-path="url(#clip0_104_9455)">
<path d="M11.3286 3.48097C10.6019 4.39296 9.43929 5.11227 8.27666 5.00951C8.13133 3.7764 8.70053 2.46622 9.36663 1.65699C10.0933 0.719315 11.3649 0.0513796 12.3943 0C12.5154 1.28449 12.0431 2.54329 11.3286 3.48097ZM12.3822 5.25357C10.6988 5.15081 9.25763 6.26832 8.45832 6.26832C7.6469 6.26832 6.42371 5.30495 5.09153 5.33064C3.35969 5.35633 1.74896 6.39677 0.864871 8.05376C-0.951743 11.3677 0.392552 16.2745 2.14861 18.9719C3.00848 20.3078 4.03789 21.7721 5.3943 21.7207C6.67804 21.6694 7.18669 20.8344 8.73687 20.8344C10.2992 20.8344 10.7473 21.7207 12.1037 21.6951C13.5085 21.6694 14.3926 20.3592 15.2525 19.0233C16.2334 17.5076 16.6331 16.0304 16.6573 15.9534C16.6331 15.9277 13.9445 14.8359 13.9203 11.5476C13.8961 8.79876 16.0397 7.48858 16.1365 7.41151C14.9255 5.51047 13.0362 5.30495 12.3822 5.25357ZM22.1071 1.52854V21.5538H25.038V14.7074H29.0951C32.801 14.7074 35.4048 12.01 35.4048 8.10514C35.4048 4.20029 32.8494 1.52854 29.1919 1.52854H22.1071ZM25.038 4.14891H28.4169C30.9601 4.14891 32.4134 5.58754 32.4134 8.11798C32.4134 10.6484 30.9601 12.0999 28.4047 12.0999H25.038V4.14891ZM40.7577 21.7079C42.5986 21.7079 44.3062 20.7188 45.0813 19.1518H45.1418V21.5538H47.8546V11.5861C47.8546 8.696 45.6747 6.83349 42.32 6.83349C39.2075 6.83349 36.9065 8.72169 36.8217 11.3164H39.4619C39.6799 10.0833 40.7577 9.27402 42.2352 9.27402C44.0276 9.27402 45.0328 10.1603 45.0328 11.7916V12.8963L41.3754 13.1275C37.9722 13.3459 36.1314 14.823 36.1314 17.392C36.1314 19.9867 38.0328 21.7079 40.7577 21.7079ZM41.5449 19.3316C39.9826 19.3316 38.9896 18.5352 38.9896 17.3149C38.9896 16.0561 39.9463 15.324 41.775 15.2084L45.0328 14.99V16.1204C45.0328 17.9957 43.5311 19.3316 41.5449 19.3316ZM51.4757 27C54.3339 27 55.6782 25.844 56.8529 22.3373L62 7.02617H59.0208L55.5692 18.8563H55.5086L52.0571 7.02617H48.993L53.9585 21.6051L53.692 22.4914C53.2439 23.9943 52.5173 24.5723 51.2214 24.5723C50.9913 24.5723 50.5432 24.5466 50.3616 24.5209V26.9229C50.5311 26.9743 51.2578 27 51.4757 27Z" fill="#A7B6BF"/>
</g>
<defs>
<clipPath id="clip0_104_9455">
<rect width="62" height="27" fill="white"/>
</clipPath>
</defs>
</svg>
