<svg width="52" height="17" viewBox="0 0 52 17" fill="none" xmlns="http://www.w3.org/2000/svg">
<g clip-path="url(#clip0_104_9419)">
<path d="M19.6735 0.290598L12.8929 16.4769H8.4661L5.12422 3.56467C4.9208 2.77037 4.74644 2.47977 4.1265 2.14074C3.11909 1.59829 1.46268 1.0849 0 0.765243L0.0968662 0.290598H7.22622C8.13676 0.290598 8.95043 0.900855 9.15385 1.93732L10.9168 11.3043L15.2758 0.290598H19.6735ZM37.0223 11.1977C37.0416 6.92593 31.1134 6.69345 31.1522 4.78519C31.1618 4.20399 31.7237 3.58405 32.9248 3.42906C33.5254 3.35157 35.1818 3.29345 37.061 4.15556L37.7972 0.71681C36.7801 0.348718 35.4918 0 33.8741 0C29.7379 0 26.8222 2.19886 26.8029 5.3567C26.7738 7.68149 28.8855 8.97949 30.4644 9.76411C32.1014 10.5584 32.6439 11.0621 32.6342 11.7789C32.6245 12.8638 31.3265 13.3482 30.1254 13.3675C28.0137 13.3966 26.7932 12.796 25.8245 12.3407L25.0593 15.886C26.0376 16.3413 27.849 16.7288 29.7185 16.7482C34.126 16.7385 37.0029 14.5687 37.0223 11.1977ZM47.9488 16.4866H51.8234L48.4428 0.290598H44.8684C44.0644 0.290598 43.3864 0.755556 43.0861 1.48205L36.7995 16.4769H41.1972L42.069 14.0553H47.4354L47.9488 16.4866ZM43.2798 10.7521L45.4884 4.66895L46.7573 10.7521H43.2798ZM25.6598 0.290598L22.2017 16.4769H18.0171L21.4752 0.290598H25.6598Z" fill="#A7B6BF"/>
<path d="M19.6735 0.290598L12.8929 16.4769H8.4661L5.12422 3.56467C4.9208 2.77037 4.74644 2.47977 4.1265 2.14074C3.11909 1.59829 1.46268 1.0849 0 0.765243L0.0968662 0.290598H7.22622C8.13676 0.290598 8.95043 0.900855 9.15385 1.93732L10.9168 11.3043L15.2758 0.290598H19.6735ZM37.0223 11.1977C37.0416 6.92593 31.1134 6.69345 31.1522 4.78519C31.1618 4.20399 31.7237 3.58405 32.9248 3.42906C33.5254 3.35157 35.1818 3.29345 37.061 4.15556L37.7972 0.71681C36.7801 0.348718 35.4918 0 33.8741 0C29.7379 0 26.8222 2.19886 26.8029 5.3567C26.7738 7.68149 28.8855 8.97949 30.4644 9.76411C32.1014 10.5584 32.6439 11.0621 32.6342 11.7789C32.6245 12.8638 31.3265 13.3482 30.1254 13.3675C28.0137 13.3966 26.7932 12.796 25.8245 12.3407L25.0593 15.886C26.0376 16.3413 27.849 16.7288 29.7185 16.7482C34.126 16.7385 37.0029 14.5687 37.0223 11.1977ZM47.9488 16.4866H51.8234L48.4428 0.290598H44.8684C44.0644 0.290598 43.3864 0.755556 43.0861 1.48205L36.7995 16.4769H41.1972L42.069 14.0553H47.4354L47.9488 16.4866ZM43.2798 10.7521L45.4884 4.66895L46.7573 10.7521H43.2798ZM25.6598 0.290598L22.2017 16.4769H18.0171L21.4752 0.290598H25.6598Z" fill="#A7B6BF"/>
</g>
<defs>
<clipPath id="clip0_104_9419">
<rect width="52" height="17" fill="white"/>
</clipPath>
</defs>
</svg>
