<svg width="77" height="24" viewBox="0 0 77 24" fill="none" xmlns="http://www.w3.org/2000/svg">
<g clip-path="url(#clip0_104_9457)">
<path d="M0.237628 20.6943C0.104761 20.6943 0 20.8016 0 20.937V23.6378C0 23.7732 0.104761 23.8806 0.237628 23.8806H15.0958C15.2261 23.8806 15.3308 23.7732 15.3308 23.6378V20.937C15.3308 20.8016 15.2261 20.6943 15.0958 20.6943H0.237628Z" fill="#A7B6BF"/>
<path d="M14.7598 14.7355C14.6346 14.388 10.411 2.82343 10.2296 2.33029C9.80287 1.16514 9.28929 0 7.66422 0C6.03915 0 5.50768 1.18303 5.09886 2.33029C4.88422 2.92308 0.72701 14.3011 0.571147 14.7355C0.527709 14.8556 0.583922 15.0012 0.711679 15.0472C0.841991 15.0983 3.04708 15.9517 3.17483 16.0028C3.30259 16.0539 3.43546 15.9747 3.47634 15.8598C3.51978 15.7448 4.43707 13.2177 4.54183 12.9367C4.84334 12.9367 10.4953 12.9367 10.7994 12.9367C10.9016 13.2203 11.8112 15.7397 11.8572 15.8598C11.9006 15.9798 12.0386 16.0488 12.1587 16.0028C12.2788 15.9569 14.4737 15.1034 14.6244 15.0472C14.7726 14.991 14.7956 14.83 14.7598 14.7355ZM5.53578 10.1311L7.65144 3.7765H7.67699L9.80031 10.1311H5.53578Z" fill="#A7B6BF"/>
<path d="M26.9237 7.78906C26.4791 7.78906 26.313 7.85039 25.9706 7.96281L22.8457 16.9697H24.7161C24.7161 16.9697 24.9767 16.1725 25.268 15.1964H28.4977C28.7966 16.1699 29.024 16.9697 29.024 16.9697H30.9813L28.0301 7.96281C27.726 7.85294 27.3274 7.78906 26.9237 7.78906ZM25.7381 13.6914C25.7381 13.6914 26.2773 11.8824 26.3616 11.5886C26.589 10.8731 26.9058 9.71564 26.9058 9.71564H26.962C26.962 9.71564 27.2533 10.9166 27.4577 11.5783C27.5344 11.8543 28.0505 13.6914 28.0505 13.6914H25.7381Z" fill="#A7B6BF"/>
<path d="M33.2882 7.80371H31.5967V16.969H33.2882V7.80371Z" fill="#A7B6BF"/>
<path d="M62.9002 12.6607C62.9002 11.7307 62.7929 11.401 62.5425 11.0459C62.2001 10.5655 61.6277 10.3662 60.5699 10.3662C59.8238 10.3662 59.0905 10.4403 58.3929 10.6166L58.6408 11.8584C59.116 11.7894 59.6143 11.7281 59.9745 11.7281C61.0911 11.7281 61.2189 11.8967 61.2189 12.7272V13.0542C60.971 12.9852 60.69 12.9341 60.3629 12.9341C58.6714 12.9341 57.7822 13.7467 57.7822 15.1239C57.7822 16.4117 58.7327 17.0939 59.9004 17.0939C60.3348 17.0939 60.7845 17.0147 61.1422 16.8793C61.3594 16.7796 61.4514 16.7234 61.7325 16.5343C61.9011 16.7924 62.2409 17.03 62.3764 17.076L63.4597 16.3427C63.0126 15.6579 62.8951 15.2644 62.8951 14.3957V12.6607H62.9002ZM60.4012 15.7627C59.7931 15.7627 59.4533 15.5148 59.4533 14.8888C59.4533 14.2526 59.8877 14.0328 60.7257 14.0328C60.9302 14.0328 61.132 14.0635 61.224 14.0993V14.5592C61.224 15.0574 61.2521 15.3768 61.3134 15.5991C60.9404 15.732 60.6951 15.7627 60.4012 15.7627Z" fill="#A7B6BF"/>
<path d="M55.1585 12.0707C56.1499 11.7028 56.5715 11.087 56.5715 10.1723C56.5715 8.81298 55.6619 7.65805 54.07 7.65805C53.9167 7.65039 53.7634 7.65039 53.6229 7.65039C52.8103 7.65039 51.5277 7.69638 50.9502 7.7296V17.0328C51.5788 17.0711 52.8103 17.1018 53.7992 17.1018C54.903 17.1018 55.7334 16.808 56.2802 16.2688C56.7044 15.8294 56.9369 15.1778 56.9369 14.3499C56.9369 13.2333 56.3237 12.3288 55.1585 12.0707ZM52.6494 9.25246C52.9943 9.24224 53.3393 9.23713 53.6229 9.23713C53.6612 9.23713 53.6868 9.23713 53.7455 9.23713C54.4507 9.23968 54.8315 9.63573 54.8315 10.3409C54.8315 10.6603 54.7267 10.9388 54.5274 11.1279C54.3179 11.3425 54.0061 11.455 53.6229 11.455C53.6229 11.455 52.7873 11.455 52.6494 11.455C52.6494 11.2991 52.6494 9.39299 52.6494 9.25246ZM53.7302 15.5253C53.7046 15.5253 53.6791 15.5253 53.6535 15.5253C53.2984 15.5253 52.9585 15.5202 52.6494 15.5151C52.6494 15.3643 52.6494 13.0059 52.6494 12.8475C52.7925 12.8475 53.7481 12.8475 53.7481 12.8475C54.1697 12.8475 54.5299 12.988 54.788 13.2308C55.018 13.4658 55.1457 13.7674 55.156 14.12C55.1508 15.0577 54.6066 15.5253 53.7302 15.5253Z" fill="#A7B6BF"/>
<path d="M67.1335 10.3691C66.0041 10.3691 65.281 10.479 64.3535 10.7626V16.9691H66.0476V11.9022C66.4947 11.8358 66.5714 11.8205 66.9317 11.8205C67.8643 11.8435 67.9793 12.0376 67.9793 12.817V16.9716H69.658V12.6611C69.658 11.731 69.5507 11.4014 69.3003 11.0463C68.9553 10.5684 68.2757 10.3691 67.1335 10.3691Z" fill="#A7B6BF"/>
<path d="M38.0749 9.02213C38.195 9.02213 38.3304 9.02979 38.4786 9.04001L38.7418 7.72667C38.3278 7.67301 37.9037 7.64746 37.4795 7.64746C36.4242 7.64746 35.8519 7.84932 35.5044 8.33479C35.2591 8.68485 35.1492 9.02468 35.1492 9.95986V10.7647H34.3086V12.1241H35.1492V16.9737H36.828L36.8254 12.1241H38.5016V10.7647H36.8254L36.828 10.0237C36.8229 9.19077 36.9557 9.02213 38.0749 9.02213Z" fill="#A7B6BF"/>
<path d="M75.4508 14.5441C75.1927 14.0408 74.9602 13.6958 74.4389 13.5706V13.5374C74.789 13.4684 75.0675 13.2487 75.3664 12.6124C75.6577 11.989 75.7421 11.8485 75.9107 11.6951C76.0793 11.5444 76.3042 11.598 76.3042 11.598L76.3911 10.4406C76.1483 10.4125 75.88 10.4099 75.6041 10.4252C75.1467 10.4508 74.9065 10.5785 74.6817 10.8162C74.5079 10.9848 74.3878 11.2454 74.2396 11.5418C74.0812 11.8714 73.956 12.1244 73.795 12.4694C73.6315 12.799 73.5523 12.9574 73.1154 12.9574H72.8292V7.80371H71.1377V16.969H72.8292V14.3218L73.0592 14.3167C73.5446 14.3167 73.629 14.4419 73.8845 14.9504C74.1834 15.5636 74.7558 16.969 74.7558 16.969H76.6031C76.6006 16.969 75.6756 14.9862 75.4508 14.5441Z" fill="#A7B6BF"/>
<path d="M47.5076 12.6479C46.9097 12.6479 46.4268 13.1436 46.4268 13.7288C46.4268 14.3292 46.9097 14.8096 47.5076 14.8096C48.1055 14.8096 48.5859 14.3292 48.5859 13.7288C48.5884 13.1436 48.1055 12.6479 47.5076 12.6479Z" fill="#A7B6BF"/>
<path d="M44.0661 12.6607C44.0661 11.7307 43.9588 11.401 43.7109 11.0459C43.366 10.5655 42.7937 10.3662 41.7384 10.3662C40.9948 10.3662 40.2692 10.4403 39.5691 10.6166L39.8195 11.8584C40.2947 11.7894 40.793 11.7281 41.143 11.7281C42.2647 11.7281 42.3925 11.8967 42.3925 12.7272V13.0542C42.1446 12.9852 41.8636 12.9341 41.5391 12.9341C39.8527 12.9341 38.9609 13.7467 38.9609 15.1239C38.9609 16.4117 39.9115 17.0939 41.074 17.0939C41.5084 17.0939 41.9607 17.0147 42.3158 16.8793C42.533 16.7796 42.6276 16.7234 42.9086 16.5343C43.0773 16.7924 43.4145 17.03 43.5525 17.076L44.6333 16.3427C44.1888 15.6579 44.0687 15.2644 44.0687 14.3957V12.6607H44.0661ZM41.5672 15.7627C40.9642 15.7627 40.6243 15.5148 40.6243 14.8888C40.6243 14.2526 41.0536 14.0328 41.8891 14.0328C42.0935 14.0328 42.2954 14.0635 42.3899 14.0993V14.5592C42.3899 15.0574 42.4155 15.3768 42.4794 15.5991C42.1063 15.732 41.861 15.7627 41.5672 15.7627Z" fill="#A7B6BF"/>
</g>
<defs>
<clipPath id="clip0_104_9457">
<rect width="77" height="24" fill="white"/>
</clipPath>
</defs>
</svg>
