<svg width="51" height="33" viewBox="0 0 51 33" fill="none" xmlns="http://www.w3.org/2000/svg">
<g clip-path="url(#clip0_104_9422)">
<path d="M20.0627 0.257288L14.0679 14.5561H10.1571L7.20796 3.14535C7.02786 2.44424 6.87348 2.18695 6.32996 1.88785C5.4391 1.40544 3.97256 0.951966 2.67969 0.672165L2.76652 0.257288H9.06043C9.86124 0.257288 10.5849 0.791161 10.7682 1.71418L12.3248 9.98921L16.1744 0.257288H20.0627ZM35.381 9.88951C35.3971 6.11702 30.1645 5.90798 30.1999 4.21952C30.2127 3.70816 30.6984 3.16143 31.7693 3.02314C32.3 2.9556 33.7601 2.90092 35.4164 3.66314L36.066 0.630356C35.1752 0.308746 34.0302 0 32.6055 0C28.9488 0 26.3759 1.94253 26.3566 4.72767C26.3341 6.78597 28.193 7.93412 29.5952 8.61915C31.0393 9.32026 31.5217 9.77052 31.5152 10.3944C31.5056 11.3528 30.3639 11.7774 29.3026 11.7934C27.4404 11.8224 26.3631 11.2917 25.5044 10.8897L24.8322 14.0254C25.6973 14.421 27.2925 14.7651 28.9456 14.7844C32.8274 14.7812 35.3714 12.8612 35.381 9.88951ZM45.039 14.5561H48.4609L45.4731 0.257288H42.3181C41.6074 0.257288 41.0092 0.668949 40.7422 1.30574L35.1913 14.5561H39.0763L39.8482 12.4206H44.5951L45.039 14.5561ZM40.9095 9.49071L42.8584 4.11983L43.9776 9.49071H40.9095ZM25.3468 0.257288L22.2883 14.5561H18.5897L21.6483 0.257288H25.3468Z" fill="#A7B6BF"/>
<path d="M34.632 22.7148C34.2139 22.7148 33.947 22.747 33.8184 22.7792V25.0626H34.5999C35.4907 25.0626 36.0343 24.5898 36.0343 23.8726C36.0343 23.0911 35.4875 22.7148 34.632 22.7148Z" fill="#A7B6BF"/>
<path d="M0 18.585V32.2599H50.8144V18.585H0ZM10.06 29.0984C9.2881 29.0984 8.49694 28.883 8.09814 28.6482L8.40367 27.5579C8.82177 27.8056 9.47464 28.0178 10.15 28.0178C10.9862 28.0178 11.4558 27.6222 11.4558 27.0337C11.4558 26.487 11.0923 26.1654 10.1822 25.8341C8.98257 25.416 8.22036 24.7728 8.22036 23.7436C8.22036 22.5537 9.20448 21.666 10.7804 21.666C11.5619 21.666 12.1311 21.8365 12.5042 22.0198L12.1922 23.0908C11.9253 22.9525 11.4204 22.7466 10.745 22.7466C9.90881 22.7466 9.55504 23.1872 9.55504 23.615C9.55504 24.1714 9.97313 24.4287 10.938 24.7921C12.1922 25.2745 12.7904 25.9049 12.7904 26.934C12.7904 28.1014 11.9124 29.0984 10.06 29.0984ZM18.2385 28.9923H13.8775V21.7722H18.0777V22.8528H15.1961V24.7181H17.9169V25.7891H15.1961V27.9117H18.2385V28.9923ZM22.8086 27.9953C23.3328 27.9953 23.8892 27.8892 24.243 27.738L24.4617 28.78C24.1497 28.9312 23.4647 29.1017 22.5867 29.1017C20.2936 29.1017 18.901 27.6673 18.901 25.4707C18.901 23.094 20.5605 21.666 22.7668 21.666C23.6351 21.666 24.2462 21.8365 24.5131 21.978L24.2333 23.0264C23.8892 22.8753 23.41 22.7466 22.8182 22.7466C21.3517 22.7466 20.2904 23.6697 20.2904 25.4031C20.2904 26.9887 21.2102 27.9953 22.8086 27.9953ZM31.1094 25.8952C31.1094 28.124 29.9644 29.1081 28.2277 29.1081C26.5554 29.1081 25.4747 28.1754 25.4747 25.9049V21.7689H26.7901V21.7722V25.982C26.7901 27.3971 27.3787 28.05 28.2695 28.05C29.2215 28.05 29.7908 27.3971 29.7908 25.982V21.7722H31.1094V25.8952ZM36.2615 28.9955C36.1554 28.78 35.9721 28.1915 35.7791 27.291C35.5637 26.3487 35.2324 26.0496 34.483 26.0271H33.8173V28.9955H32.5116V21.8815C33.0133 21.785 33.7433 21.7207 34.5056 21.7207C35.5444 21.7207 36.2423 21.8912 36.7343 22.2996C37.1299 22.6309 37.355 23.1358 37.355 23.7565C37.355 24.6892 36.7247 25.3195 36.0364 25.5575V25.5897C36.5606 25.7826 36.8726 26.2876 37.0431 26.9822C37.2778 27.8828 37.4708 28.7189 37.6123 28.9955H36.2615ZM42.861 28.9923H38.5V21.7722H42.7002V22.8528H39.8186V24.7181H42.5394V25.7891H39.8186V27.9117H42.861V28.9923Z" fill="#A7B6BF"/>
</g>
<defs>
<clipPath id="clip0_104_9422">
<rect width="51" height="33" fill="white"/>
</clipPath>
</defs>
</svg>
