<svg width="82" height="20" viewBox="0 0 82 20" fill="none" xmlns="http://www.w3.org/2000/svg">
<g clip-path="url(#clip0_104_9437)">
<path d="M10.0705 8.79834C10.0271 8.75689 10.0271 8.69095 10.0667 8.64762C10.0686 8.64574 10.0686 8.64574 10.0705 8.64385L10.8938 7.82055L11.5381 7.17245L10.7261 7.81866H9.72757C9.66728 7.81678 9.62018 7.76968 9.61829 7.70939V5.63135L9.4996 6.66189L8.79499 7.3665C8.75166 7.40795 8.68195 7.40795 8.63862 7.3665L7.81531 6.54508L7.17099 5.89887L7.81531 6.71088V7.71128C7.81343 7.77156 7.76633 7.81866 7.70604 7.82055H5.62988L6.66043 7.93924L7.36504 8.64385C7.40837 8.6853 7.40837 8.75124 7.36881 8.79457C7.36692 8.79646 7.36692 8.79646 7.36504 8.79834L5.89741 10.2679L6.70941 9.62353H7.70793C7.76821 9.62353 7.8172 9.67251 7.8172 9.7328V11.8108L7.93589 10.7803L8.6405 10.0719C8.68383 10.0305 8.75354 10.0305 8.79687 10.0719L10.2645 11.5414L9.62018 10.7294V9.73092C9.62018 9.67063 9.66916 9.62164 9.72945 9.62164H11.8075L10.777 9.50295L10.0705 8.79834Z" fill="#A7B6BF"/>
<path d="M15.4921 0.00244141H1.94428C0.870404 0.00244141 0 0.872846 0 1.94672V15.4945C0 16.5684 0.870404 17.4388 1.94428 17.4388H15.4921C16.5659 17.4388 17.4364 16.5684 17.4364 15.4945V1.94672C17.4345 0.872846 16.5659 0.00244141 15.4921 0.00244141ZM13.9039 9.53733L12.4343 11.0068C12.3929 11.0502 12.327 11.0502 12.2836 11.0106C12.2817 11.0087 12.2817 11.0087 12.2799 11.0068L11.9163 10.6432V12.8569C11.9144 12.9172 11.8654 12.9662 11.8051 12.9662H9.72705C9.66677 12.9643 9.61967 12.9172 9.61778 12.8569V12.3407L8.05218 13.9063C8.00885 13.9478 7.94103 13.9478 7.8977 13.9063L6.42818 12.4424C6.38673 12.3991 6.38673 12.3313 6.42818 12.288L6.79368 11.9225H4.58187C4.52158 11.9206 4.47448 11.8735 4.4726 11.8132V9.7295C4.4726 9.66921 4.52158 9.62022 4.58187 9.62022H5.09808L3.53249 8.05463C3.49104 8.01129 3.49104 7.94347 3.53249 7.90014L5.002 6.43062C5.04533 6.38918 5.11316 6.38918 5.15649 6.43062L5.5201 6.79424V4.58431C5.5201 4.52402 5.56908 4.47504 5.62937 4.47504H5.63125H7.7093C7.76958 4.47504 7.81857 4.52402 7.81857 4.58431V5.09864L9.38417 3.53493C9.4275 3.49348 9.49532 3.49348 9.53865 3.53493L11.0082 5.00444C11.0496 5.04777 11.0496 5.1156 11.0082 5.15893L10.6427 5.52254H12.8564C12.9167 5.52442 12.9656 5.57341 12.9656 5.6337V7.71174C12.9638 7.77203 12.9167 7.81913 12.8564 7.82101H12.3402L13.9057 9.38661C13.9453 9.42617 13.9453 9.49588 13.9039 9.53733Z" fill="#A7B6BF"/>
<path fill-rule="evenodd" clip-rule="evenodd" d="M26.6574 6.91802C26.6819 7.72249 26.047 8.30275 25.2425 8.30275H23.1287V5.58981H25.2576C26.0018 5.56155 26.6291 6.14182 26.6574 6.88599C26.6574 6.8973 26.6574 6.90672 26.6574 6.91802ZM79.0682 1.93109V10.0097C79.0663 10.1453 78.9551 10.2546 78.8176 10.2527C78.8138 10.2527 78.8119 10.2527 78.8082 10.2527H77.1126C76.9751 10.2583 76.8582 10.1547 76.8488 10.0191V1.93109H74.1962C74.0605 1.91979 73.9588 1.80298 73.9644 1.66733V0.282599C73.955 0.146951 74.0568 0.0282599 74.1924 0.0188399H74.1962H81.766C81.9036 0.0263759 82.0072 0.145067 81.9997 0.282599V1.66733C82.0053 1.80486 81.9017 1.92167 81.766 1.93109H79.0682ZM36.701 9.90792V8.55709C36.701 8.42145 36.5898 8.31029 36.4542 8.31029H32.4978C32.0965 8.30652 31.7724 7.97871 31.7762 7.57742C31.7762 7.56046 31.7762 7.54539 31.7781 7.52843V5.59169H35.9888C36.1188 5.58792 36.2243 5.4843 36.23 5.35431V3.98841C36.2318 3.85276 36.1226 3.73972 35.9869 3.73784C35.9756 3.73784 35.9643 3.73784 35.953 3.73972H31.7724V2.65078C31.7705 2.25702 32.0889 1.93486 32.4827 1.93298C32.4865 1.93298 32.4883 1.93298 32.4921 1.93298H36.4485C36.5841 1.94051 36.6991 1.83689 36.7066 1.70125C36.7066 1.69559 36.7066 1.68994 36.7066 1.68429V0.267527C36.7047 0.128111 36.5917 0.0169559 36.4523 0.0169559C36.4447 0.0169559 36.4372 0.0169559 36.4297 0.0188399L32.3169 0C30.8097 0 29.5813 1.20952 29.555 2.71672V7.55858C29.57 9.04128 30.7701 10.2395 32.2528 10.2527H36.4504C36.5841 10.2565 36.6972 10.151 36.701 10.0172C36.701 10.0134 36.701 10.0097 36.701 10.0059V9.91734V9.90792ZM53.4798 4.80418V4.73071C53.7925 4.54419 54.0601 4.28985 54.2635 3.98841C54.4821 3.66248 54.6366 3.29699 54.7195 2.91265L55.3902 0.308975C55.4165 0.177095 55.3299 0.0489838 55.198 0.0226079C55.181 0.0188399 55.1641 0.0169559 55.1471 0.0188399H53.5627C53.5043 0.0169559 53.4478 0.0282599 53.395 0.0508678C53.3272 0.0847797 53.282 0.148835 53.2707 0.224195L52.615 2.67339C52.5566 2.92772 52.4511 3.16888 52.3042 3.38553C52.1911 3.54756 52.0442 3.68132 51.8727 3.77929C51.7239 3.86218 51.5638 3.9187 51.3961 3.94696C51.2454 3.97146 51.0909 3.98276 50.9383 3.98088H49.7759V0.267527C49.7759 0.133763 49.6685 0.0263759 49.5347 0.0263759H49.5328H47.8222C47.6846 0.0169559 47.5678 0.120576 47.5584 0.258107V10.0153C47.5678 10.151 47.6846 10.2546 47.8222 10.2489H49.5177C49.6534 10.2583 49.7702 10.1566 49.7796 10.021V10.0153V5.68212H50.9609C51.251 5.67082 51.5393 5.70284 51.82 5.77632C52.0461 5.83849 52.2477 5.96472 52.4021 6.14181C52.5792 6.36789 52.7074 6.62789 52.7789 6.90672L53.6757 10.0718C53.7059 10.1754 53.8001 10.247 53.9093 10.247H55.6049C55.7406 10.2546 55.8555 10.151 55.863 10.0172C55.8649 9.99646 55.863 9.97574 55.8593 9.95502L54.955 6.56383C54.9022 6.36224 54.84 6.16442 54.7666 5.96849C54.7025 5.79516 54.6158 5.63314 54.5084 5.4843C54.3973 5.33358 54.2616 5.2017 54.1053 5.09808C53.9093 4.97186 53.6983 4.872 53.4779 4.80041L53.4798 4.80418ZM59.6178 6.31137L60.1717 4.46318L60.7275 2.39079H60.8142L61.3549 4.46318L61.9088 6.31137H59.6178ZM62.4325 8.12001L62.9977 10.0153C63.0467 10.1886 63.139 10.2489 63.2502 10.2489H65.0946C65.2302 10.2527 65.3452 10.1453 65.3489 10.0097C65.3489 9.98328 65.3471 9.9569 65.3376 9.93052L62.3119 0.825189C62.1688 0.38245 61.9578 0.0244919 61.4415 0.0244919H60.1322C59.8722 0 59.6178 0.116808 59.4671 0.329699C59.3616 0.478534 59.2825 0.644325 59.2354 0.821421L56.221 9.91545C56.1758 10.0436 56.2417 10.1849 56.3698 10.2301C56.3981 10.2395 56.4282 10.2452 56.4584 10.2452H58.2312C58.3405 10.2583 58.4441 10.1962 58.4837 10.0944C58.5025 10.053 58.5176 10.0115 58.5289 9.9682L59.0941 8.11624L62.4325 8.12001ZM71.5171 3.27438C71.519 4.0129 70.9199 4.61201 70.1814 4.6139H70.1776H68.19V1.93863H70.0872C70.8276 1.89153 71.4663 2.45296 71.5152 3.19337C71.5171 3.22163 71.5171 3.24989 71.5171 3.27626V3.27438ZM68.19 9.94183V6.51861H70.6147C72.4045 6.50731 73.8476 5.04533 73.8344 3.25365C73.8344 3.24047 73.8344 3.22728 73.8344 3.21409C73.8307 2.77135 73.7308 2.33427 73.5462 1.93109C73.1713 1.07576 72.4384 0.42955 71.5435 0.163907C71.178 0.0640557 70.8012 0.0150719 70.4225 0.0188399H66.7224C66.3286 0.00376799 65.997 0.312743 65.982 0.706497C65.982 0.710265 65.982 0.715917 65.982 0.719685C65.982 0.779973 65.9725 0.842145 65.982 0.908084V9.99458C65.9801 10.1283 66.0875 10.2395 66.2212 10.2414C66.225 10.2414 66.2288 10.2414 66.2325 10.2414H67.9545C68.0449 10.2395 68.1278 10.1886 68.1693 10.1095C68.1919 10.0549 68.2013 9.99458 68.1975 9.93429L68.19 9.94183ZM21.6328 10.2527H25.4611C27.345 10.3186 28.8993 9.00548 28.9615 7.0499C28.9728 6.85396 28.9615 6.65615 28.9276 6.46209C28.5922 4.85693 27.3243 3.75291 25.7079 3.75291H23.1287V1.93109H27.5334C27.671 1.93863 27.7878 1.83501 27.7972 1.69748C27.7972 1.68241 27.7972 1.66922 27.7953 1.65415V0.356075C27.7953 0.167675 27.7331 0.0301439 27.5334 0.0339119H21.6931C21.3031 -0.00188399 20.9564 0.286367 20.9206 0.676353C20.9187 0.702729 20.9169 0.729105 20.9187 0.755481V9.53865C20.9169 9.93429 21.2353 10.2565 21.6309 10.2583C21.6347 10.2583 21.6366 10.2583 21.6403 10.2583L21.6328 10.2527ZM39.12 1.00605L38.9881 3.22351C38.9448 3.97711 38.8958 4.63274 38.8449 5.19228C38.7639 6.11356 38.6716 8.32725 37.4753 8.32725H37.4282C37.2963 8.32913 37.1889 8.43463 37.1833 8.56651V9.98893C37.1738 10.1246 37.2775 10.2433 37.4131 10.2527C37.4188 10.2527 37.4263 10.2527 37.4319 10.2527H37.5374C38.438 10.2527 39.233 10.1528 39.9094 9.12229C40.1374 8.78317 40.3163 8.41391 40.4444 8.02581C40.5895 7.57553 40.6969 7.11396 40.7647 6.64484C40.842 6.14182 40.906 5.58227 40.9531 4.9662C41.0021 4.35579 41.0511 3.69263 41.0982 2.97294L41.1566 1.95182H44.0014V10.004C44.0014 10.1415 44.1145 10.2527 44.252 10.2508C44.2558 10.2508 44.2595 10.2508 44.2633 10.2508H45.9589C46.0964 10.2602 46.2132 10.1547 46.2226 10.0191C46.2226 10.0078 46.2226 9.99835 46.2226 9.98704V0.755481C46.2132 0.346655 45.8722 0.0226079 45.4634 0.0339119C45.4596 0.0339119 45.4559 0.0339119 45.4521 0.0339119H39.8566C39.478 0.0452158 39.1728 0.346655 39.1539 0.723453C39.1464 0.796929 39.1257 0.891128 39.12 0.996632V1.00605Z" fill="#A7B6BF"/>
<path d="M44.3267 13.3693H43.5297C43.4148 13.3693 43.3564 13.4182 43.3564 13.5181V14.8633H41.8869V13.5181C41.8925 13.4748 41.8793 13.4296 41.8511 13.3975C41.8059 13.3749 41.755 13.3655 41.706 13.3693H40.9204C40.8055 13.3693 40.7471 13.4182 40.7471 13.5181V17.3388C40.7471 17.4425 40.8055 17.4971 40.9204 17.4971H41.706C41.7569 17.5027 41.8059 17.4914 41.8511 17.4688C41.8756 17.45 41.8869 17.4067 41.8869 17.3388V15.7601H43.3564V17.3388C43.3564 17.4425 43.4148 17.4971 43.5297 17.4971H44.3267C44.3756 17.5027 44.4265 17.4933 44.4698 17.4688C44.4924 17.45 44.5019 17.4067 44.5019 17.3388V13.5181C44.5075 13.4748 44.4962 13.4314 44.4698 13.3975C44.4265 13.373 44.3756 13.3636 44.3267 13.3693Z" fill="#A7B6BF"/>
<path d="M39.4479 13.9077C39.284 13.708 39.0749 13.5516 38.8356 13.4518C38.538 13.3312 38.2177 13.2728 37.8955 13.2822C37.596 13.2841 37.2983 13.3067 37.0025 13.3538C36.7105 13.3934 36.426 13.4763 36.1585 13.5969C36.1057 13.6195 36.0624 13.6553 36.0285 13.7024C36.0078 13.7457 35.9984 13.7928 36.0002 13.8399V18.9625C36.0002 19.0209 36.0134 19.0586 36.0398 19.0717C36.0794 19.0906 36.1227 19.0981 36.166 19.0962H36.9761C37.0232 19.1019 37.0703 19.0925 37.1137 19.0717C37.1401 19.0586 37.1401 19.0209 37.1401 18.9625V17.4703C37.2908 17.5043 37.4415 17.5288 37.5941 17.5438C37.7392 17.557 37.8842 17.5645 38.0312 17.5645C38.3157 17.5721 38.5983 17.5137 38.8564 17.395C39.0824 17.2895 39.2822 17.1312 39.4366 16.9353C39.593 16.7337 39.7079 16.502 39.7758 16.2552C39.8511 15.9858 39.8869 15.7069 39.885 15.4262C39.8869 15.1436 39.853 14.861 39.7833 14.586C39.7211 14.3392 39.6062 14.1074 39.4479 13.9077ZM38.4438 16.3173C38.278 16.4944 38.0425 16.5924 37.7994 16.5849C37.7071 16.5849 37.6186 16.5792 37.5093 16.5698C37.385 16.5566 37.2625 16.5321 37.1419 16.5001V14.3542C37.2437 14.3241 37.3492 14.3034 37.4547 14.2902C37.5489 14.277 37.645 14.2676 37.741 14.2657C37.8767 14.2638 38.0105 14.2826 38.1386 14.3222C38.2535 14.3561 38.3571 14.422 38.44 14.5087C38.5286 14.6104 38.5907 14.7329 38.6246 14.8629C38.6699 15.04 38.6925 15.2227 38.6887 15.4055H38.6906C38.6925 15.835 38.6077 16.1365 38.4438 16.3173Z" fill="#A7B6BF"/>
<path d="M26.7289 13.3693H25.932C25.8152 13.3693 25.7568 13.4182 25.7568 13.5181V14.8633H24.2873V13.5181C24.2873 13.4559 24.2779 13.4145 24.2534 13.3975C24.2081 13.3749 24.1573 13.3655 24.1083 13.3693H23.3208C23.2059 13.3693 23.1475 13.4182 23.1475 13.5181V17.3388C23.1475 17.4425 23.2059 17.4971 23.3208 17.4971H24.1083C24.1592 17.5027 24.2081 17.4914 24.2534 17.4688C24.2779 17.45 24.2873 17.4067 24.2873 17.3388V15.7601H25.7568V17.3388C25.7568 17.4425 25.8152 17.4971 25.932 17.4971H26.7289C26.7779 17.5027 26.8269 17.4933 26.8702 17.4688C26.9023 17.45 26.9023 17.4067 26.9023 17.3388V13.5181C26.9079 13.4748 26.8966 13.4314 26.8702 13.3975C26.8269 13.373 26.7779 13.3636 26.7289 13.3693Z" fill="#A7B6BF"/>
<path d="M31.0202 13.3691H27.6346C27.5668 13.3691 27.5235 13.3804 27.5047 13.4049C27.482 13.4501 27.4726 13.501 27.4764 13.5499V14.1246C27.4764 14.2395 27.5273 14.2979 27.6346 14.2979H28.75V17.3405C28.75 17.4442 28.8103 17.4988 28.9308 17.4988H29.707C29.7579 17.5044 29.8069 17.495 29.8521 17.4705C29.8766 17.4517 29.8879 17.4084 29.8879 17.3405V14.2979H31.0202C31.1257 14.2979 31.1784 14.2395 31.1784 14.1246V13.5499C31.1841 13.4991 31.1728 13.4482 31.1464 13.4049C31.1106 13.3747 31.0654 13.3634 31.0202 13.3691Z" fill="#A7B6BF"/>
<path d="M22.0473 12.1459C22.051 12.1045 22.0416 12.063 22.019 12.0291C22.0002 12.0065 21.955 11.9971 21.8815 11.9971H21.0412C20.9301 11.9971 20.8754 12.0461 20.8754 12.1459L20.8679 17.3551C20.8641 17.3966 20.8754 17.438 20.8999 17.472C20.9414 17.4983 20.9922 17.5096 21.0412 17.504H21.8909C22.0021 17.504 22.0567 17.455 22.0567 17.3551L22.0473 12.1459Z" fill="#A7B6BF"/>
<path d="M70.6402 13.2429C70.3558 13.2391 70.075 13.29 69.8094 13.3917C69.5739 13.4859 69.3629 13.631 69.1896 13.8156C69.0087 14.0115 68.8731 14.2433 68.792 14.4957C68.6978 14.7896 68.6507 15.0967 68.6545 15.4038C68.6545 16.0915 68.809 16.6209 69.1255 16.9977C69.4401 17.3745 69.945 17.5629 70.6195 17.5629C71.294 17.5629 71.797 17.3632 72.1267 16.9977C72.4583 16.6303 72.6222 16.0952 72.6222 15.4038L72.6278 15.3887C72.6278 14.7199 72.4602 14.183 72.1286 13.8137C71.7951 13.4426 71.2996 13.2429 70.6402 13.2429ZM71.3844 15.8918C71.3599 16.0236 71.3128 16.1499 71.2431 16.2648C71.1809 16.3684 71.0962 16.4551 70.9925 16.5154C70.8795 16.5794 70.7495 16.6114 70.6195 16.6077C70.3746 16.6265 70.141 16.5078 70.0091 16.3006C69.8697 16.0236 69.8056 15.7147 69.8245 15.4038C69.8094 15.1043 69.8791 14.8066 70.0242 14.5428C70.156 14.3318 70.3934 14.2094 70.6421 14.2244C70.7702 14.2207 70.8983 14.2527 71.0114 14.3167C71.1112 14.377 71.196 14.4618 71.2544 14.5635C71.3222 14.6804 71.3675 14.8066 71.3882 14.9403C71.4164 15.1024 71.4296 15.2644 71.4277 15.4283H71.4296C71.4296 15.5847 71.4164 15.7392 71.3844 15.8918Z" fill="#A7B6BF"/>
<path d="M76.6676 13.3595L74.4727 13.3576C74.3427 13.3444 74.2108 13.3821 74.1053 13.4612C74.0224 13.563 73.9791 13.6911 73.9848 13.8211L73.9282 14.6783C73.9019 15.0758 73.8736 15.398 73.8435 15.641C73.8227 15.8407 73.7794 16.0366 73.7135 16.2269C73.6701 16.355 73.5985 16.4718 73.5006 16.566C73.3988 16.6546 73.2839 16.7262 73.1596 16.7789C73.0917 16.8147 73.0465 16.8468 73.0465 16.8769C73.0409 16.9278 73.0503 16.9768 73.0729 17.022L73.2858 17.5551C73.299 17.5985 73.3272 17.6362 73.363 17.6606C73.3951 17.6814 73.4459 17.6757 73.5213 17.6493C73.785 17.5759 74.0337 17.4534 74.2523 17.2895C74.4388 17.1388 74.5839 16.9428 74.6762 16.7205C74.7854 16.4492 74.857 16.1666 74.8891 15.8765C74.9324 15.5449 74.9663 15.1531 74.9908 14.6971L75.0153 14.2996H75.9818V17.3328C75.978 17.3762 75.9893 17.4195 76.0176 17.4534C76.0609 17.4836 76.1118 17.4949 76.1626 17.4892H76.9596C77.0104 17.4949 77.0594 17.4836 77.1046 17.4609C77.1329 17.427 77.1461 17.3837 77.1404 17.3404V13.8418C77.1517 13.7118 77.1178 13.5837 77.0425 13.4782C76.9389 13.3859 76.8032 13.3444 76.6676 13.3595Z" fill="#A7B6BF"/>
<path d="M81.9134 15.6821C81.8795 15.5125 81.8041 15.3524 81.6967 15.2167C81.563 15.0453 81.3897 14.9096 81.19 14.8192C80.9036 14.6986 80.5927 14.644 80.2819 14.6572H79.3078V13.5174C79.3135 13.474 79.3003 13.4288 79.272 13.3968C79.2268 13.3742 79.176 13.3648 79.127 13.3685H78.3414C78.2264 13.3685 78.168 13.4175 78.168 13.5174V17.031C78.1605 17.1497 78.1944 17.2665 78.2622 17.3645C78.3696 17.4624 78.5166 17.5077 78.6598 17.4888L80.4062 17.5039C80.6153 17.5058 80.8245 17.4681 81.0204 17.3927C81.2013 17.3268 81.3689 17.2251 81.5102 17.0932C81.7985 16.8351 81.9586 16.4677 81.9549 16.0815C81.953 15.9477 81.9379 15.8139 81.9134 15.6821ZM80.7585 16.2209C80.7416 16.2849 80.7114 16.3452 80.67 16.398C80.6248 16.4564 80.5645 16.5035 80.4966 16.5355C80.41 16.5751 80.3158 16.5939 80.2216 16.592H79.306V15.5219H80.2329C80.3855 15.5106 80.5362 15.5671 80.6455 15.6745C80.7378 15.7782 80.7868 15.9119 80.783 16.0494L80.7868 16.057C80.783 16.1116 80.7736 16.1681 80.7585 16.2209Z" fill="#A7B6BF"/>
<path d="M67.5114 13.9077C67.3456 13.708 67.1365 13.5516 66.8972 13.4518C66.5996 13.3312 66.2793 13.2728 65.9571 13.2822C65.6595 13.2841 65.3618 13.3067 65.066 13.3538C64.774 13.3934 64.4895 13.4763 64.222 13.5969C64.1692 13.6195 64.124 13.6553 64.0901 13.7024C64.0712 13.7457 64.0618 13.7928 64.0637 13.8399V18.9625C64.0637 19.0209 64.075 19.0586 64.1014 19.0717C64.141 19.0906 64.1843 19.0981 64.2276 19.0962H65.0396C65.0867 19.1019 65.1338 19.0925 65.1753 19.0717C65.1941 19.0586 65.2035 19.0209 65.2035 18.9625V17.4703C65.3524 17.5043 65.5031 17.5288 65.6557 17.5438C65.8008 17.5589 65.9477 17.5645 66.0947 17.5645C66.3791 17.5721 66.6599 17.5137 66.918 17.395C67.144 17.2895 67.3437 17.1312 67.4982 16.9353C67.6546 16.7337 67.7695 16.502 67.8374 16.2552C67.9127 15.9858 67.9485 15.7069 67.9466 15.4262C67.9485 15.1436 67.9146 14.861 67.8449 14.586C67.7827 14.3392 67.6697 14.1074 67.5114 13.9077ZM66.5035 16.3173C66.3377 16.4944 66.1022 16.5924 65.8592 16.5849C65.7687 16.5849 65.6783 16.5792 65.5709 16.5698C65.4466 16.5566 65.3241 16.534 65.2035 16.5001V14.3542C65.3053 14.3241 65.4089 14.3034 65.5144 14.2902C65.6105 14.277 65.7066 14.2676 65.8026 14.2657C65.9383 14.2638 66.072 14.2826 66.2002 14.3222C66.3151 14.3561 66.4187 14.4202 66.5016 14.5087C66.5901 14.6104 66.6542 14.7329 66.6862 14.8629C66.7314 15.04 66.7541 15.2227 66.7503 15.4055C66.7522 15.835 66.6693 16.1365 66.5035 16.3173Z" fill="#A7B6BF"/>
<path d="M53.094 13.369H49.6971C49.6293 13.369 49.586 13.3803 49.5672 13.4048C49.5445 13.45 49.5351 13.5008 49.5389 13.5498V14.1244C49.5389 14.2394 49.5935 14.2978 49.6971 14.2978H50.8144V17.3404C50.8144 17.444 50.8746 17.4987 50.9933 17.4987H51.7714C51.8223 17.5043 51.8713 17.493 51.9165 17.4704C51.941 17.4516 51.9523 17.4082 51.9523 17.3404V14.2978H53.0921C53.1957 14.2978 53.2466 14.2394 53.2466 14.1244V13.5498C53.2522 13.499 53.2409 13.4481 53.2164 13.4048C53.1844 13.3765 53.1392 13.3633 53.094 13.369Z" fill="#A7B6BF"/>
<path d="M62.6336 13.6232C62.368 13.3783 61.9497 13.2559 61.3807 13.2559C61.1226 13.2559 60.8645 13.2747 60.6083 13.3124C60.3559 13.3482 60.1053 13.4085 59.866 13.4932C59.8321 13.5008 59.8038 13.5215 59.785 13.5516C59.7699 13.5912 59.7699 13.6345 59.785 13.6741L59.9112 14.2242C59.9131 14.2657 59.9338 14.3015 59.9659 14.3279C60.0111 14.3448 60.062 14.3448 60.1072 14.3279C60.1901 14.3034 60.2748 14.2845 60.3596 14.2676C60.4519 14.2487 60.5499 14.2337 60.6498 14.2205L60.9474 14.1903C61.0473 14.1828 61.1358 14.179 61.2168 14.179C61.3355 14.1752 61.4542 14.1903 61.5691 14.2242C61.6464 14.2487 61.718 14.2921 61.7783 14.3486C61.8273 14.3957 61.8612 14.4578 61.8762 14.5238C61.8932 14.5935 61.9007 14.6651 61.9007 14.7367V14.8648H61.0416C60.7929 14.861 60.5443 14.8949 60.3069 14.9703C60.1166 15.0325 59.9414 15.1323 59.7925 15.2642C59.6569 15.3867 59.5533 15.5393 59.4854 15.7088C59.3555 16.0555 59.3498 16.436 59.4704 16.7865C59.5307 16.9485 59.6343 17.0917 59.768 17.2028C59.9338 17.3328 60.126 17.427 60.3295 17.4817C60.6177 17.5551 60.9154 17.5909 61.2112 17.5834C61.3412 17.5834 61.4806 17.5683 61.6257 17.5683C61.7726 17.5589 61.9177 17.5438 62.0628 17.5212C62.2059 17.5005 62.3454 17.4722 62.4848 17.4364C62.6185 17.4025 62.7485 17.3554 62.8729 17.2951C62.9332 17.2669 62.9803 17.2198 63.0104 17.1614C63.0292 17.1049 63.0387 17.0465 63.0387 16.988L63.0368 16.9862V14.7065C63.0594 14.3034 62.9143 13.9096 62.6336 13.6232ZM61.8951 16.5792C61.8386 16.6018 61.7802 16.6188 61.7217 16.6301C61.6596 16.6414 61.5955 16.6433 61.5371 16.6602C61.4768 16.6753 61.4241 16.6753 61.3694 16.6753H61.2413C61.068 16.6847 60.8966 16.647 60.744 16.566C60.6158 16.4831 60.5443 16.3343 60.5593 16.1817C60.5537 16.0781 60.5782 15.9745 60.6309 15.8821C60.6743 15.8106 60.7345 15.7521 60.808 15.7126C60.8796 15.673 60.9587 15.6466 61.0397 15.6391C61.117 15.6278 61.1961 15.6222 61.2752 15.624H61.897V16.5792H61.8951Z" fill="#A7B6BF"/>
<path d="M35.0381 14.5277C34.9533 14.2733 34.8177 14.0397 34.6406 13.84C34.471 13.6516 34.2619 13.5047 34.0264 13.4124C33.7721 13.3144 33.5026 13.2635 33.2295 13.2673H33.2276C32.9902 13.2673 32.587 13.2824 31.9597 13.4952C31.9257 13.5084 31.8975 13.5235 31.8786 13.5537C31.8636 13.5932 31.8673 13.6271 31.8786 13.6761L32.0049 14.2262C32.0181 14.2677 32.0331 14.2997 32.067 14.3223C32.1085 14.3449 32.1424 14.3449 32.2008 14.3299C32.2837 14.3054 32.7001 14.181 33.1824 14.1904C33.3915 14.1961 33.5987 14.2903 33.7325 14.441C33.8738 14.603 33.9567 14.8084 33.9699 15.0232H32.6925V15.7542H33.9944C33.9944 15.8973 33.9661 16.0386 33.9115 16.1705C33.8663 16.2741 33.7984 16.3646 33.7118 16.438C33.6251 16.5059 33.5252 16.5549 33.4179 16.5793C33.2973 16.6057 33.1748 16.6189 33.0505 16.6189C32.8941 16.6189 32.7377 16.6001 32.587 16.5624C32.4363 16.5285 32.2912 16.4814 32.1481 16.4211C32.1066 16.4041 32.0614 16.3966 32.0162 16.4004C31.986 16.4173 31.9615 16.4437 31.9502 16.4757L31.6997 17.0409C31.6789 17.0729 31.6752 17.1144 31.6884 17.1502C31.7072 17.1841 31.7355 17.2105 31.7694 17.2274C31.9766 17.3593 32.2046 17.4516 32.4438 17.5006C32.6793 17.5515 32.9186 17.5797 33.1598 17.5816C33.8474 17.5816 34.3542 17.4102 34.6858 17.0711C35.0174 16.7319 35.1794 16.1912 35.1794 15.4508C35.1813 15.1381 35.1342 14.8272 35.0381 14.5277Z" fill="#A7B6BF"/>
<path d="M48.9932 14.5277C48.9084 14.2733 48.7727 14.0397 48.5957 13.84C48.4261 13.6516 48.217 13.5047 47.9815 13.4124C47.7271 13.3144 47.4577 13.2635 47.1845 13.2673H47.1827C46.9453 13.2673 46.5421 13.2824 45.9147 13.4952C45.8808 13.5084 45.8526 13.5235 45.8337 13.5537C45.8186 13.5932 45.8224 13.6271 45.8337 13.6761L45.9599 14.2262C45.9731 14.2677 45.9882 14.2997 46.0221 14.3223C46.0636 14.3449 46.0975 14.3449 46.1559 14.3299C46.2388 14.3054 46.6551 14.181 47.1374 14.1904C47.3466 14.1961 47.5538 14.2903 47.6876 14.441C47.8289 14.603 47.9118 14.8084 47.925 15.0232H46.6476V15.7542H47.9494C47.9494 15.8973 47.9212 16.0386 47.8665 16.1705C47.8213 16.2741 47.7535 16.3646 47.6668 16.438C47.5802 16.5059 47.4803 16.5549 47.3729 16.5793C47.2524 16.6057 47.1299 16.6189 47.0056 16.6189C46.8492 16.6189 46.6928 16.6001 46.5421 16.5624C46.3914 16.5285 46.2463 16.4814 46.1031 16.4211C46.0617 16.4041 46.0165 16.3966 45.9712 16.4004C45.9411 16.4173 45.9166 16.4437 45.9053 16.4757L45.6547 17.0409C45.634 17.0729 45.6302 17.1144 45.6434 17.1502C45.6623 17.1841 45.6905 17.2105 45.7244 17.2274C45.9317 17.3593 46.1596 17.4516 46.3989 17.5006C46.6344 17.5515 46.8737 17.5797 47.1148 17.5816C47.8025 17.5816 48.3093 17.4102 48.6409 17.0711C48.9725 16.7319 49.1345 16.1912 49.1345 15.4508C49.1364 15.1381 49.0893 14.8272 48.9932 14.5277Z" fill="#A7B6BF"/>
<path d="M57.9489 11.9917H54.4353C54.2902 11.9747 54.1433 12.0218 54.0378 12.1217C53.953 12.2366 53.9134 12.3779 53.9247 12.5192V17.346C53.9247 17.4458 53.9794 17.4948 54.0905 17.4948H54.9553C55.0043 17.5005 55.0551 17.4892 55.0966 17.4628C55.1211 17.4289 55.1305 17.3874 55.1267 17.346V13.0316H57.2443V17.346C57.2443 17.4458 57.3009 17.4948 57.4101 17.4948H58.2673C58.3163 17.5005 58.3672 17.4892 58.4086 17.4628C58.4331 17.4289 58.4463 17.3874 58.4407 17.346H58.4614V12.5192C58.4708 12.3779 58.4331 12.2366 58.3521 12.1217C58.2391 12.0218 58.094 11.9747 57.9489 11.9917Z" fill="#A7B6BF"/>
</g>
<defs>
<clipPath id="clip0_104_9437">
<rect width="82" height="20" fill="white"/>
</clipPath>
</defs>
</svg>
