<svg width="34" height="34" viewBox="0 0 34 34" fill="none" xmlns="http://www.w3.org/2000/svg">
<g clip-path="url(#clip0_104_9435)">
<path fill-rule="evenodd" clip-rule="evenodd" d="M22.0164 26.6909L19.9202 30.4399V28.7913L22.0164 26.6909ZM26.1786 11.9616L21.4009 16.7351C21.2632 16.8728 21.2632 17.1009 21.4009 17.2387L23.7424 19.5802L27.0266 19.9288H20.2732C20.0795 19.9288 19.9159 20.0881 19.9159 20.2861V23.4583L22.0422 26.1614L17.2731 21.3837C17.1353 21.2459 16.9072 21.2459 16.7695 21.3837L14.4925 23.6606L14.0664 27.0438V20.2904C14.0664 20.0967 13.9071 19.9331 13.7091 19.9331H10.3001L7.78645 21.9863L12.5599 17.2128C12.6976 17.0751 12.6976 16.847 12.5599 16.7092L10.171 14.3203L6.92989 14.0104H13.6833C13.877 14.0104 14.0406 13.8512 14.0406 13.6532V10.4293L11.9358 7.78645L16.7135 12.5599C16.8513 12.6976 17.0794 12.6976 17.2171 12.5599L19.563 10.2141L19.9116 6.90407V13.6575C19.9116 13.8512 20.0709 14.0147 20.2689 14.0147H23.6305L26.1786 11.9616ZM27.3838 23.2173V20.2818L28.5847 24.4182L27.3838 23.2173ZM33.8618 19.1411L28.7354 14.0147L26.6822 11.9616L30.4227 14.0147C30.6164 14.0147 30.7756 13.8555 30.7756 13.6575V6.90407C30.7756 6.71038 30.6164 6.55112 30.4227 6.55112H23.2259H20.2603L24.3924 5.38035C24.5301 5.24262 24.5301 5.01449 24.3924 4.87675L19.6189 0.103303C19.4812 -0.0344343 19.2531 -0.0344343 19.1153 0.103303L14.0363 5.18236L11.8669 7.37754L11.8712 7.37324L11.8841 7.35171L14.0406 3.49938C14.0406 3.30569 13.8813 3.14643 13.6833 3.14643H6.92989C6.7362 3.14643 6.57694 3.30569 6.57694 3.49938V10.7263V13.6575L5.38035 9.52968C5.24262 9.39194 5.01449 9.39194 4.87675 9.52968L0.103303 14.3031C-0.0344343 14.4409 -0.0344343 14.669 0.103303 14.8067L7.28715 21.9906L3.55964 19.9374C3.36595 19.9374 3.20669 20.0967 3.20669 20.2947V27.0481C3.20669 27.2418 3.36595 27.4054 3.55964 27.4054H10.7564H13.7177L9.59424 28.5718C9.45651 28.7096 9.45651 28.9377 9.59424 29.0754L14.3677 33.8489C14.5054 33.9866 14.7336 33.9866 14.8713 33.8489L19.9245 28.7956V30.4442C19.9245 30.6379 20.0838 30.8014 20.2818 30.8014H27.0352C27.2289 30.8014 27.3925 30.6422 27.3925 30.4442V23.2173L28.5847 24.4182C28.7225 24.5559 28.9506 24.5559 29.0883 24.4182L33.8618 19.6447C33.9995 19.507 33.9995 19.2789 33.8618 19.1411Z" fill="#A7B6BF"/>
</g>
<defs>
<clipPath id="clip0_104_9435">
<rect width="34" height="34" fill="white"/>
</clipPath>
</defs>
</svg>
