<svg width="37" height="37" viewBox="0 0 37 37" fill="none" xmlns="http://www.w3.org/2000/svg">
<g clip-path="url(#clip0_104_9430)">
<path d="M13.1709 11.2148C13.1709 7.48368 14.8731 4.14744 17.5489 1.94144C15.7446 0.715885 13.5795 0.000976562 11.2373 0.000976562C5.04822 0.000976562 0.0234375 5.02576 0.0234375 11.2148C0.0234375 17.4107 5.04822 22.4286 11.2373 22.4286C13.5727 22.4286 15.7446 21.7137 17.5421 20.4882C14.8731 18.2822 13.1709 14.9459 13.1709 11.2148Z" fill="#A7B6BF"/>
<path d="M25.2013 0C22.8659 0 20.694 0.714908 18.8965 1.94047C21.5655 4.14647 23.2744 7.48951 23.2744 11.2138C23.2744 14.9382 21.5723 18.2812 18.8965 20.4872C20.694 21.7128 22.8659 22.4277 25.2013 22.4277C31.3972 22.4277 36.4151 17.4029 36.4151 11.2138C36.4151 5.02478 31.3972 0 25.2013 0Z" fill="#A7B6BF"/>
<path d="M22.4573 11.2139C22.4573 7.65976 20.8028 4.50055 18.2223 2.44434C15.6418 4.50055 13.9873 7.65976 13.9873 11.2139C13.9873 14.768 15.6418 17.9272 18.2223 19.9834C20.796 17.9272 22.4573 14.768 22.4573 11.2139Z" fill="#A7B6BF"/>
<path d="M0.569417 36.7622H0.0508049V30.7182H0.569417V36.7622ZM4.58421 30.7182C5.04672 30.7113 5.50649 30.7838 5.94437 30.9303C6.32751 31.0575 6.68055 31.2628 6.98023 31.5351C7.26485 31.8005 7.48652 32.1248 7.63157 32.4861C7.93672 33.2948 7.93672 34.187 7.63157 34.9957C7.48652 35.3569 7.26485 35.6812 6.98023 35.9467C6.68055 36.219 6.32751 36.4243 5.94437 36.5515C5.50649 36.6979 5.04672 36.7691 4.58558 36.7622H2.38251V30.7182H4.58421ZM2.90522 31.219V36.2614H4.58421C4.97967 36.271 5.37376 36.2122 5.75006 36.089C6.06616 35.9823 6.35488 35.8085 6.59982 35.5813C6.83107 35.3597 7.00759 35.0874 7.11843 34.7877C7.35242 34.1172 7.35242 33.3865 7.11843 32.716C7.00759 32.4149 6.83107 32.1426 6.59982 31.9196C6.35625 31.6911 6.06616 31.5187 5.75006 31.4119C5.37376 31.2888 4.97967 31.2313 4.58421 31.2395L2.90522 31.219ZM14.3188 30.6497C14.5719 30.6484 14.8237 30.6785 15.07 30.7359C15.3054 30.792 15.5339 30.8755 15.7501 30.985C15.9581 31.0904 16.151 31.2217 16.3248 31.375C16.4945 31.5255 16.6423 31.7006 16.7641 31.8936L16.3235 32.1878C16.2195 32.0291 16.0949 31.8854 15.954 31.7595C15.8117 31.6336 15.6529 31.5241 15.4846 31.4366C15.3095 31.3462 15.1234 31.2765 14.9318 31.2313C14.732 31.1834 14.5268 31.1601 14.3202 31.1601C13.9767 31.1574 13.636 31.2203 13.3171 31.3462C13.0161 31.4625 12.7424 31.6391 12.5112 31.8648C12.2786 32.0988 12.0952 32.3766 11.972 32.6818C11.7107 33.3591 11.7107 34.1103 11.972 34.7891C12.0952 35.0942 12.2799 35.372 12.5125 35.606C12.7438 35.8318 13.0175 36.0069 13.3185 36.1246C13.6373 36.2505 13.9781 36.3134 14.3215 36.3107C14.5268 36.3107 14.7307 36.2874 14.9291 36.2423C15.1207 36.1985 15.3054 36.1301 15.4805 36.0397C15.6502 35.9522 15.8089 35.8441 15.9526 35.7168C16.0949 35.5909 16.2195 35.4459 16.3221 35.2858L16.7531 35.6019C16.6272 35.7934 16.4767 35.9686 16.3057 36.1205C16.1319 36.271 15.9403 36.3996 15.7364 36.5036C15.523 36.6117 15.2972 36.6938 15.0646 36.7472C14.4077 36.8963 13.7222 36.8457 13.0941 36.6021C12.7274 36.4571 12.3935 36.2409 12.1116 35.9645C11.8311 35.6867 11.6108 35.3542 11.463 34.9888C11.1496 34.1856 11.1496 33.2948 11.463 32.4916C11.6108 32.1248 11.8325 31.7923 12.1116 31.5145C12.3935 31.2395 12.7274 31.0219 13.0941 30.8769C13.4855 30.7223 13.9028 30.6443 14.3229 30.6484L14.3188 30.6497ZM18.5553 33.4029C18.6319 33.2743 18.7277 33.158 18.8385 33.0581C18.9425 32.9623 19.0575 32.8815 19.1833 32.8186C19.3092 32.757 19.4433 32.7105 19.5802 32.6804C19.7156 32.6503 19.8552 32.6352 19.9948 32.6352C20.2301 32.6325 20.4641 32.6708 20.6858 32.7488C20.887 32.82 21.0717 32.9308 21.2277 33.0759C21.3796 33.2209 21.4973 33.3974 21.5725 33.5945C21.6574 33.8107 21.6984 34.0419 21.6957 34.2745V36.7622H21.2031V34.4182C21.2058 34.2308 21.1771 34.0433 21.1168 33.8654C21.0635 33.7094 20.9759 33.5671 20.861 33.4494C20.7447 33.3331 20.6051 33.2442 20.4518 33.1881C20.2753 33.1251 20.0878 33.0936 19.899 33.0964C19.717 33.095 19.535 33.1279 19.3653 33.1935C19.2039 33.2551 19.0575 33.3495 18.9343 33.4699C18.8111 33.5917 18.7126 33.7381 18.6456 33.8982C18.5744 34.0707 18.5375 34.2568 18.5402 34.4442V36.7609H18.0476V30.5457H18.5402L18.5553 33.4029ZM24.9209 32.6352C25.1795 32.6325 25.4368 32.6859 25.6735 32.7885C25.9007 32.8884 26.1046 33.0334 26.2729 33.2168C26.4466 33.4084 26.5821 33.6314 26.6724 33.8736C26.7723 34.1404 26.8243 34.4237 26.8243 34.7097C26.8243 34.748 26.8243 34.7822 26.8243 34.8151C26.8243 34.8479 26.8243 34.8794 26.8243 34.9122H23.4143C23.4267 35.1298 23.48 35.3446 23.5717 35.543C23.6552 35.7195 23.7729 35.8796 23.9165 36.011C24.0575 36.1396 24.223 36.2382 24.4023 36.3025C24.5898 36.3695 24.7882 36.4037 24.988 36.4024C25.2507 36.4065 25.5107 36.3531 25.7515 36.2464C25.9773 36.1424 26.1839 35.9987 26.3604 35.8235L26.6245 36.1684C26.5041 36.2902 26.3714 36.3996 26.2291 36.4927C26.1004 36.5761 25.9636 36.6459 25.8199 36.6993C25.6831 36.7513 25.5408 36.7869 25.3957 36.8088C25.2507 36.8293 25.1056 36.8389 24.9592 36.8375C24.6787 36.8402 24.3996 36.7882 24.1396 36.6842C23.896 36.5871 23.6757 36.4407 23.4923 36.2546C23.3076 36.0657 23.1639 35.84 23.0695 35.5937C22.9669 35.3227 22.9149 35.034 22.919 34.7439C22.9163 34.4552 22.9683 34.1692 23.0722 33.8996C23.168 33.6519 23.3117 33.4262 23.4951 33.2346C23.6757 33.0485 23.8933 32.9007 24.1341 32.8008C24.3845 32.6913 24.6541 32.6339 24.9264 32.6311L24.9209 32.6352ZM24.9209 33.0704C24.7266 33.0676 24.5337 33.1032 24.353 33.1757C24.1861 33.2442 24.0328 33.3441 23.9028 33.4699C23.7715 33.5986 23.6634 33.7505 23.5854 33.9174C23.5019 34.0967 23.4485 34.2896 23.428 34.4866H26.3344C26.3194 34.2882 26.2715 34.0926 26.1908 33.9106C26.1182 33.7436 26.0156 33.5917 25.887 33.4631C25.6297 33.2086 25.2822 33.0663 24.9209 33.0704ZM29.8375 32.6352C30.1248 32.6325 30.4108 32.6872 30.6763 32.7981C30.9281 32.9021 31.1538 33.0622 31.3345 33.2661L31.0156 33.5972C30.8624 33.4426 30.6817 33.3167 30.482 33.2277C30.274 33.1374 30.0496 33.0936 29.8238 33.0964C29.6103 33.095 29.3996 33.1361 29.2039 33.2195C29.0164 33.3003 28.8468 33.4179 28.7045 33.5644C28.5608 33.7135 28.4486 33.89 28.3747 34.083C28.2173 34.5044 28.2173 34.9683 28.3747 35.3898C28.5197 35.7798 28.8208 36.0917 29.2039 36.2532C29.3996 36.3367 29.6103 36.3777 29.8238 36.3764C30.0537 36.3791 30.2808 36.3312 30.4902 36.2382C30.69 36.1492 30.8706 36.0247 31.0266 35.8714L31.3345 36.2081C31.1511 36.4106 30.9253 36.5707 30.6735 36.676C30.4081 36.7855 30.1235 36.8416 29.8361 36.8389C29.5487 36.843 29.2628 36.7882 28.9973 36.6801C28.4978 36.4776 28.1051 36.0781 27.9094 35.5772C27.7055 35.0408 27.7055 34.4483 27.9094 33.9133C28.1037 33.4111 28.4978 33.0115 28.9973 32.8077C29.2614 32.6941 29.5474 32.6352 29.8347 32.6339L29.8375 32.6352ZM32.9888 34.4141H33.6484L35.3575 32.7009H35.9787L34.0452 34.618L36.0102 36.7622H35.3848L33.6456 34.8629H32.9861V36.7622H32.4935V30.5457H32.9861L32.9888 34.4141ZM5.2164 29.1514V27.0988C5.2164 26.3243 4.72242 25.803 3.92739 25.7961C3.46625 25.766 3.02564 25.9891 2.7766 26.3791C2.54945 26.0014 2.13483 25.777 1.69422 25.7961C1.31107 25.777 0.947087 25.9631 0.736358 26.2833V25.8728H0.0234375V29.1486H0.7432V27.3355C0.7432 26.7663 1.05792 26.4653 1.54506 26.4653C2.0322 26.4653 2.25798 26.7731 2.25798 27.3287V29.1514H2.97775V27.3355C2.97775 26.7663 3.30616 26.4653 3.77961 26.4653C4.25307 26.4653 4.49937 26.7731 4.49937 27.3287V29.1514H5.2164ZM15.865 25.8755H14.7019V24.8821H13.9822V25.8755H13.3171V26.5268H13.9822V28.0211C13.9822 28.7819 14.2764 29.2348 15.1193 29.2348C15.434 29.2362 15.7433 29.1486 16.0101 28.9817L15.8048 28.3714C15.6133 28.485 15.3971 28.5493 15.174 28.5561C14.8182 28.5561 14.7006 28.3372 14.7006 28.0088V26.5268H15.865V25.8755ZM21.9447 25.7934C21.5903 25.7824 21.2592 25.9672 21.0813 26.2737V25.8755H20.3807V29.1514H21.0936V27.315C21.0936 26.7677 21.3262 26.4721 21.7928 26.4721C21.9461 26.4694 22.0966 26.4981 22.2389 26.5542L22.4578 25.8823C22.295 25.8235 22.1226 25.7934 21.9502 25.7934H21.9447ZM12.7534 26.1355C12.3497 25.896 11.8858 25.777 11.4165 25.7934C10.5872 25.7934 10.0481 26.1902 10.0481 26.8416C10.0481 27.3766 10.4449 27.705 11.1784 27.8076L11.5136 27.8555C11.9036 27.9103 12.0897 28.0129 12.0897 28.1976C12.0897 28.4508 11.8297 28.5944 11.3426 28.5944C10.9499 28.6068 10.564 28.4863 10.2479 28.2524L9.91264 28.8079C10.3327 29.1021 10.8377 29.2513 11.3494 29.2335C12.295 29.2335 12.8437 28.7874 12.8437 28.1648C12.8437 27.5887 12.4113 27.2877 11.6997 27.185L11.3645 27.1371C11.0566 27.0961 10.8089 27.0345 10.8089 26.8156C10.8089 26.5761 11.0415 26.4311 11.4329 26.4311C11.7887 26.4379 12.1362 26.5351 12.4441 26.7116L12.7534 26.1355ZM31.8476 25.7934C31.4932 25.7824 31.162 25.9672 30.9842 26.2737V25.8755H30.2781V29.1514H30.991V27.315C30.991 26.7677 31.2236 26.4721 31.6902 26.4721C31.8435 26.4694 31.994 26.4981 32.1363 26.5542L32.3553 25.8823C32.1924 25.8235 32.02 25.7934 31.8476 25.7934ZM22.6658 27.5134C22.6658 28.5069 23.3582 29.2335 24.4133 29.2335C24.8415 29.254 25.2616 29.1144 25.5914 28.8421L25.2493 28.266C25.003 28.4535 24.702 28.5575 24.3927 28.5602C23.8235 28.5602 23.4061 28.1415 23.4061 27.5121C23.4061 26.8826 23.8249 26.4707 24.3927 26.4639C24.702 26.4666 25.003 26.5706 25.2493 26.7581L25.5914 26.182C25.2616 25.9097 24.8415 25.7701 24.4133 25.7907C23.3582 25.7907 22.6658 26.5173 22.6658 27.5107V27.5134ZM29.3407 27.5134V25.8714H28.6278V26.2696C28.3815 25.9508 27.9956 25.7729 27.5933 25.7893C26.6752 25.7893 25.9513 26.5091 25.9513 27.5093C25.9513 28.5096 26.6711 29.2294 27.5933 29.2294C27.9956 29.2458 28.3815 29.0679 28.6278 28.7491V29.1459H29.3407V27.5134ZM26.6888 27.5134C26.6888 26.9374 27.0651 26.4653 27.6823 26.4653C28.2721 26.4653 28.6689 26.9182 28.6689 27.5134C28.6689 28.1087 28.2707 28.5616 27.6823 28.5616C27.0651 28.5616 26.6888 28.0882 26.6888 27.5134ZM18.0873 25.7934C17.1294 25.7934 16.4562 26.4926 16.4562 27.5134C16.4562 28.5548 17.1554 29.2335 18.1352 29.2335C18.6237 29.2513 19.1026 29.0871 19.4789 28.7737L19.13 28.2455C18.8577 28.4631 18.5211 28.5835 18.1721 28.5876C17.7123 28.5876 17.295 28.3755 17.1924 27.7857H19.6253C19.6322 27.6968 19.639 27.6079 19.639 27.5121C19.639 26.4913 19.0013 25.792 18.0832 25.792L18.0873 25.7934ZM18.0736 26.4311C18.5334 26.4311 18.8276 26.7184 18.9028 27.2261H17.2033C17.2786 26.7526 17.5659 26.4311 18.0736 26.4311ZM35.9554 27.5134V24.5591H35.2425V26.2723C34.9962 25.9535 34.6103 25.7756 34.208 25.792C33.2899 25.792 32.566 26.5118 32.566 27.5121C32.566 28.5123 33.2858 29.2321 34.208 29.2321C34.6103 29.2485 34.9962 29.0706 35.2425 28.7518V29.1486H35.9554V27.5134ZM36.7888 28.849C36.8175 28.849 36.8449 28.8544 36.8709 28.8654C36.8955 28.8763 36.9188 28.8914 36.9379 28.9105C36.9571 28.9297 36.9721 28.9516 36.9831 28.9762C37.005 29.0282 37.005 29.0857 36.9831 29.1377C36.9721 29.1623 36.9571 29.1842 36.9379 29.2034C36.9188 29.2225 36.8955 29.2376 36.8709 29.2485C36.8449 29.2595 36.8175 29.2649 36.7888 29.2649C36.7039 29.2663 36.6259 29.2157 36.5917 29.1377C36.5698 29.0857 36.5698 29.0282 36.5917 28.9762C36.6136 28.9256 36.6533 28.8859 36.7039 28.8654C36.7299 28.8544 36.7587 28.849 36.7888 28.849ZM36.7888 29.2184C36.8107 29.2184 36.8312 29.2143 36.8517 29.2061C36.8709 29.1979 36.8873 29.187 36.9024 29.1719C36.9653 29.109 36.9653 29.005 36.9024 28.942C36.8873 28.927 36.8709 28.916 36.8517 28.9078C36.8312 28.8996 36.8107 28.8955 36.7888 28.8955C36.7669 28.8955 36.745 28.8996 36.7245 28.9078C36.6424 28.9434 36.6027 29.0392 36.6383 29.1213C36.6465 29.1404 36.6574 29.1568 36.6725 29.1719C36.6875 29.187 36.7053 29.1979 36.7245 29.2061C36.745 29.2143 36.7655 29.2184 36.7888 29.2184ZM36.8011 28.9584C36.8216 28.9571 36.8421 28.9625 36.8586 28.9749C36.8723 28.9858 36.8805 29.0022 36.8791 29.02C36.8791 29.0351 36.8736 29.0501 36.8627 29.0597C36.8504 29.0706 36.8339 29.0775 36.8175 29.0788L36.8805 29.1514H36.8312L36.7724 29.0788H36.7532V29.1514H36.7122V28.9584H36.8011ZM36.7532 28.994V29.046H36.8011C36.8093 29.0487 36.8189 29.0487 36.8271 29.046C36.8339 29.0419 36.8367 29.0351 36.8367 29.0269C36.8367 29.0186 36.8339 29.0118 36.8271 29.0077C36.8189 29.005 36.8093 29.005 36.8011 29.0077L36.7532 28.994ZM33.3035 27.5121C33.3035 26.936 33.6798 26.4639 34.297 26.4639C34.8867 26.4639 35.2836 26.9168 35.2836 27.5121C35.2836 28.1073 34.8867 28.5602 34.297 28.5602C33.6798 28.5602 33.3035 28.0868 33.3035 27.5121ZM9.23393 27.5121V25.87H8.52101V26.2682C8.2747 25.9494 7.88882 25.7715 7.48652 25.7879C6.56835 25.7879 5.84448 26.5077 5.84448 27.508C5.84448 28.5082 6.56424 29.228 7.48652 29.228C7.88882 29.2444 8.2747 29.0665 8.52101 28.7477V29.1445H9.23393V27.5121ZM6.58203 27.5121C6.58203 26.936 6.95833 26.4639 7.57547 26.4639C8.16523 26.4639 8.56206 26.9168 8.56206 27.5121C8.56206 28.1073 8.16523 28.5602 7.57547 28.5602C6.95696 28.5616 6.57929 28.0895 6.57929 27.5134L6.58203 27.5121ZM36.6342 36.5543H36.5562V36.7609H36.5178V36.5543H36.4398V36.5187H36.6328V36.5543H36.6342ZM36.9311 36.7581H36.8928V36.5611L36.8216 36.7335H36.7806L36.7094 36.5611V36.7609H36.6711V36.5214H36.7299L36.7984 36.6938L36.8668 36.5214H36.9256L36.9311 36.7581Z" fill="#A7B6BF"/>
</g>
<defs>
<clipPath id="clip0_104_9430">
<rect width="37" height="37" fill="white"/>
</clipPath>
</defs>
</svg>
