<svg width="42" height="26" viewBox="0 0 42 26" fill="none" xmlns="http://www.w3.org/2000/svg">
<g clip-path="url(#clip0_104_9426)">
<path d="M15.0509 12.8378C15.0509 8.5665 16.9995 4.74726 20.0627 2.22188C17.9972 0.818897 15.5186 0.000488281 12.8373 0.000488281C5.75224 0.000488281 0 5.75273 0 12.8378C0 19.9307 5.75224 25.6751 12.8373 25.6751C15.5108 25.6751 17.9972 24.8567 20.0549 23.4537C16.9995 20.9284 15.0509 17.1091 15.0509 12.8378Z" fill="#A7B6BF"/>
<path d="M28.824 0C26.1506 0 23.6642 0.818408 21.6064 2.22139C24.6618 4.74677 26.6182 8.5738 26.6182 12.8373C26.6182 17.1008 24.6696 20.9279 21.6064 23.4532C23.6642 24.8562 26.1506 25.6746 28.824 25.6746C35.9169 25.6746 41.6614 19.9224 41.6614 12.8373C41.6614 5.75224 35.9169 0 28.824 0Z" fill="#A7B6BF"/>
<path d="M25.6825 12.837C25.6825 8.76834 23.7885 5.15175 20.8344 2.79785C17.8804 5.15175 15.9863 8.76834 15.9863 12.837C15.9863 16.9057 17.8804 20.5222 20.8344 22.8761C23.7807 20.5222 25.6825 16.9057 25.6825 12.837Z" fill="#A7B6BF"/>
</g>
<defs>
<clipPath id="clip0_104_9426">
<rect width="42" height="26" fill="white"/>
</clipPath>
</defs>
</svg>
